<svg xmlns="http://www.w3.org/2000/svg" xmlns:xlink="http://www.w3.org/1999/xlink" viewBox="0 0 185 185.172">
  <defs>
    <style>
      .cls-1 {
        fill: #444441;
      }

      .cls-2 {
        fill: #fee2d4;
      }

      .cls-3 {
        filter: url(#Ellipse_12);
      }
    </style>
    <filter id="Ellipse_12" x="0" y="0" width="185" height="185.172" filterUnits="userSpaceOnUse">
      <feOffset dy="3" input="SourceAlpha"/>
      <feGaussianBlur stdDeviation="3" result="blur"/>
      <feFlood flood-opacity="0.443"/>
      <feComposite operator="in" in2="blur"/>
      <feComposite in="SourceGraphic"/>
    </filter>
  </defs>
  <g id="Group_1" data-name="Group 1" transform="translate(9 6)">
    <g class="cls-3" transform="matrix(1, 0, 0, 1, -9, -6)">
      <ellipse id="Ellipse_12-2" data-name="Ellipse 12" class="cls-1" cx="83.5" cy="83.586" rx="83.5" ry="83.586" transform="translate(9 6)"/>
    </g>
    <g id="Element_2_" transform="translate(39.116 32.608)">
      <path id="Path_1" data-name="Path 1" class="cls-2" d="M172.339,122.835c-1.938-1.891-6.312-6.319-11.879-11.941l.3-.3a3.094,3.094,0,1,0-4.374-4.378l-.3.3-3.827-3.831.3-.3a3.094,3.094,0,0,0-4.374-4.378l-.3.3c-1.292-1.244-2.535-2.537-3.827-3.831l.3-.3a3.094,3.094,0,0,0-4.374-4.378l-.348.348c-1.143-1.095-2.237-2.189-3.33-3.284,17.4-.2,32.406-.8,32.406-2.338,0-1.692-17.943-2.239-37.277-2.388C121.1,72.186,112.7,64.674,111.752,65.619c-.8.8,4.722,7.214,12.674,15.672a2.536,2.536,0,0,0-.348.846h-5.616a3.071,3.071,0,0,0-5.964,0h-5.616A3.089,3.089,0,0,0,103.9,79.8a3.046,3.046,0,0,0-2.982,2.338H95.3a3.087,3.087,0,0,0-6.014,0H85.509a3.769,3.769,0,0,0-2.982-1.443,3.831,3.831,0,0,0,0,7.662,3.769,3.769,0,0,0,2.982-1.443h3.678V93.73H86.155v63.884h70.677v-40.45l-1.292-1.294,1.541-1.542c5.616,5.572,10.04,9.951,11.929,11.891a3.955,3.955,0,0,0,1.093,3.134,3.868,3.868,0,1,0,5.467-5.473A4.445,4.445,0,0,0,172.339,122.835Zm-27.933-21.1-1.541,1.542-3.827-3.831,1.541-1.542Zm-9.742-6.667-1.342-1.343h-3.181V87.262q2.982,3.06,6.113,6.269ZM112.3,93.73h-5.418V86.963H112.3Zm6.213-6.766h5.418v6.816h-5.418ZM95.3,86.913h5.418V93.73H95.3Zm55.766,24.628-3.827-3.831,1.541-1.542L152.607,110Z" transform="translate(-78.7 -65.539)"/>
    </g>
  </g>
</svg>
