<svg xmlns="http://www.w3.org/2000/svg" xmlns:xlink="http://www.w3.org/1999/xlink" viewBox="0 0 185 185">
  <defs>
    <style>
      .cls-1 {
        fill: #444441;
      }

      .cls-2 {
        fill: #dba68f;
      }

      .cls-3 {
        fill: #fff;
      }

      .cls-4 {
        fill: #fee2d4;
      }

      .cls-5 {
        filter: url(#Ellipse_13);
      }
    </style>
    <filter id="Ellipse_13" x="0" y="0" width="185" height="185" filterUnits="userSpaceOnUse">
      <feOffset dy="3" input="SourceAlpha"/>
      <feGaussianBlur stdDeviation="3" result="blur"/>
      <feFlood flood-opacity="0.412"/>
      <feComposite operator="in" in2="blur"/>
      <feComposite in="SourceGraphic"/>
    </filter>
  </defs>
  <g id="Group_35" data-name="Group 35" transform="translate(9 6)">
    <g class="cls-5" transform="matrix(1, 0, 0, 1, -9, -6)">
      <circle id="Ellipse_13-2" data-name="Ellipse 13" class="cls-1" cx="83.5" cy="83.5" r="83.5" transform="translate(9 6)"/>
    </g>
    <g id="Group_33" data-name="Group 33" transform="translate(57.207 40.806)">
      <circle id="Ellipse_14" data-name="Ellipse 14" class="cls-2" cx="22.764" cy="22.764" r="22.764"/>
      <circle id="Ellipse_15" data-name="Ellipse 15" class="cls-1" cx="12.078" cy="12.078" r="12.078" transform="translate(10.686 10.686)"/>
      <g id="Group_11" data-name="Group 11" transform="translate(5.517 5.666)">
        <g id="Group_2" data-name="Group 2" transform="translate(21.43 1.862)">
          <rect id="Rectangle_160" data-name="Rectangle 160" class="cls-3" width="6.909" height="1.69" transform="matrix(0.5, -0.866, 0.866, 0.5, 0, 5.983)"/>
        </g>
        <g id="Group_3" data-name="Group 3" transform="translate(25.498 7.816)">
          <rect id="Rectangle_161" data-name="Rectangle 161" class="cls-3" width="6.909" height="1.69" transform="matrix(0.866, -0.5, 0.5, 0.866, 0, 3.454)"/>
        </g>
        <g id="Group_4" data-name="Group 4" transform="translate(1.83 21.451)">
          <rect id="Rectangle_162" data-name="Rectangle 162" class="cls-3" width="6.909" height="1.69" transform="matrix(0.866, -0.5, 0.5, 0.866, 0, 3.454)"/>
        </g>
        <g id="Group_5" data-name="Group 5" transform="translate(0 16.253)">
          <rect id="Rectangle_163" data-name="Rectangle 163" class="cls-3" width="6.909" height="1.69"/>
        </g>
        <g id="Group_6" data-name="Group 6" transform="translate(27.287 16.253)">
          <rect id="Rectangle_164" data-name="Rectangle 164" class="cls-3" width="6.909" height="1.69"/>
        </g>
        <g id="Group_7" data-name="Group 7" transform="translate(1.848 7.785)">
          <rect id="Rectangle_165" data-name="Rectangle 165" class="cls-3" width="1.69" height="6.909" transform="matrix(0.5, -0.866, 0.866, 0.5, 0, 1.463)"/>
        </g>
        <g id="Group_8" data-name="Group 8" transform="translate(25.49 21.468)">
          <rect id="Rectangle_166" data-name="Rectangle 166" class="cls-3" width="1.69" height="6.909" transform="matrix(0.5, -0.866, 0.866, 0.5, 0, 1.463)"/>
        </g>
        <g id="Group_9" data-name="Group 9" transform="translate(7.793 1.879)">
          <rect id="Rectangle_167" data-name="Rectangle 167" class="cls-3" width="1.69" height="6.909" transform="matrix(0.866, -0.5, 0.5, 0.866, 0, 0.845)"/>
        </g>
        <g id="Group_10" data-name="Group 10" transform="translate(16.253)">
          <rect id="Rectangle_168" data-name="Rectangle 168" class="cls-3" width="1.69" height="6.909"/>
        </g>
      </g>
      <g id="Group_12" data-name="Group 12" transform="translate(7.008 56.263)">
        <rect id="Rectangle_169" data-name="Rectangle 169" class="cls-4" width="1.69" height="26.79"/>
      </g>
      <g id="Group_13" data-name="Group 13" transform="translate(6.958 51.392)">
        <path id="Path_2" data-name="Path 2" class="cls-4" d="M138.842,190.371h-1.69a3.181,3.181,0,1,0-6.362,0H129.1a4.871,4.871,0,1,1,9.742,0Z" transform="translate(-129.1 -185.5)"/>
      </g>
      <g id="Group_14" data-name="Group 14" transform="translate(17.694 17.843)">
        <path id="Path_3" data-name="Path 3" class="cls-4" d="M160.442,169.79h-1.69V122.871a3.181,3.181,0,1,0-6.362,0V169.79H150.7V122.871a4.871,4.871,0,0,1,9.742,0V169.79Z" transform="translate(-150.7 -118)"/>
      </g>
      <g id="Group_15" data-name="Group 15" transform="translate(7.008 83.053)">
        <path id="Path_4" data-name="Path 4" class="cls-4" d="M151.467,271.467A22.294,22.294,0,0,1,129.2,249.2h1.69a20.639,20.639,0,0,0,20.626,20.626v1.64Z" transform="translate(-129.2 -249.2)"/>
      </g>
      <g id="Group_16" data-name="Group 16" transform="translate(42.694 88.371)">
        <path id="Path_5" data-name="Path 5" class="cls-4" d="M201,276.849v-1.69A15.294,15.294,0,0,0,216.259,259.9h1.69A16.969,16.969,0,0,1,201,276.849Z" transform="translate(-201 -259.9)"/>
      </g>
      <g id="Group_17" data-name="Group 17" transform="translate(15.01 56.263)">
        <path id="Path_6" data-name="Path 6" class="cls-4" d="M163.093,227.457H161.4A15.294,15.294,0,0,0,146.145,212.2H145.3V195.3h1.69v15.259A16.964,16.964,0,0,1,163.093,227.457Z" transform="translate(-145.3 -195.3)"/>
      </g>
      <g id="Group_18" data-name="Group 18" transform="translate(57.953 72.317)">
        <rect id="Rectangle_170" data-name="Rectangle 170" class="cls-4" width="1.69" height="16.104"/>
      </g>
      <g id="Group_31" data-name="Group 31" transform="translate(28.43 48.708)">
        <g id="Group_19" data-name="Group 19" transform="translate(0 4.821)">
          <rect id="Rectangle_171" data-name="Rectangle 171" class="cls-4" width="1.69" height="14.463"/>
        </g>
        <g id="Group_20" data-name="Group 20" transform="translate(8.052 4.821)">
          <rect id="Rectangle_172" data-name="Rectangle 172" class="cls-4" width="1.69" height="14.463"/>
        </g>
        <g id="Group_21" data-name="Group 21" transform="translate(0 19.285)">
          <path id="Path_7" data-name="Path 7" class="cls-4" d="M177.171,223.771A4.879,4.879,0,0,1,172.3,218.9h1.69a3.181,3.181,0,1,0,6.362,0h1.69A4.879,4.879,0,0,1,177.171,223.771Z" transform="translate(-172.3 -218.9)"/>
        </g>
        <g id="Group_22" data-name="Group 22" transform="translate(0)">
          <path id="Path_8" data-name="Path 8" class="cls-4" d="M182.042,184.971h-1.69a3.181,3.181,0,0,0-6.362,0H172.3a4.871,4.871,0,1,1,9.742,0Z" transform="translate(-172.3 -180.1)"/>
        </g>
        <g id="Group_23" data-name="Group 23" transform="translate(10.736 19.285)">
          <path id="Path_9" data-name="Path 9" class="cls-4" d="M198.771,223.771A4.879,4.879,0,0,1,193.9,218.9h1.69a3.181,3.181,0,1,0,6.362,0h1.69A4.879,4.879,0,0,1,198.771,223.771Z" transform="translate(-193.9 -218.9)"/>
        </g>
        <g id="Group_24" data-name="Group 24" transform="translate(10.736 1.342)">
          <path id="Path_10" data-name="Path 10" class="cls-4" d="M203.642,187.671h-1.69a3.181,3.181,0,0,0-6.362,0H193.9a4.871,4.871,0,1,1,9.742,0Z" transform="translate(-193.9 -182.8)"/>
        </g>
        <g id="Group_25" data-name="Group 25" transform="translate(21.471 19.285)">
          <path id="Path_11" data-name="Path 11" class="cls-4" d="M220.371,223.771A4.879,4.879,0,0,1,215.5,218.9h1.69a3.181,3.181,0,0,0,6.362,0h1.69A4.944,4.944,0,0,1,220.371,223.771Z" transform="translate(-215.5 -218.9)"/>
        </g>
        <g id="Group_26" data-name="Group 26" transform="translate(21.422 2.684)">
          <path id="Path_12" data-name="Path 12" class="cls-4" d="M225.142,190.371h-1.69a3.181,3.181,0,1,0-6.362,0H215.4a4.871,4.871,0,1,1,9.742,0Z" transform="translate(-215.4 -185.5)"/>
        </g>
        <g id="Group_27" data-name="Group 27" transform="translate(29.523 7.555)">
          <rect id="Rectangle_173" data-name="Rectangle 173" class="cls-4" width="1.69" height="11.73"/>
        </g>
        <g id="Group_28" data-name="Group 28" transform="translate(21.471 7.555)">
          <rect id="Rectangle_174" data-name="Rectangle 174" class="cls-4" width="1.69" height="11.73"/>
        </g>
        <g id="Group_29" data-name="Group 29" transform="translate(18.788 6.213)">
          <rect id="Rectangle_175" data-name="Rectangle 175" class="cls-4" width="1.69" height="13.072"/>
        </g>
        <g id="Group_30" data-name="Group 30" transform="translate(10.736 6.213)">
          <rect id="Rectangle_176" data-name="Rectangle 176" class="cls-4" width="1.69" height="13.072"/>
        </g>
      </g>
      <g id="Group_32" data-name="Group 32" transform="translate(29.275 103.679)">
        <rect id="Rectangle_177" data-name="Rectangle 177" class="cls-4" width="2.684" height="1.69"/>
      </g>
    </g>
  </g>
</svg>
