<?xml version="1.0" encoding="utf-8"?>
<!-- Generator: Adobe Illustrator 22.1.0, SVG Export Plug-In . SVG Version: 6.00 Build 0)  -->
<svg version="1.1" id="Vrstva_1" xmlns="http://www.w3.org/2000/svg" xmlns:xlink="http://www.w3.org/1999/xlink" x="0px" y="0px"
	 viewBox="0 0 573 478.5" style="enable-background:new 0 0 573 478.5;" xml:space="preserve">
<style type="text/css">
	.st0{fill:#FEE2D4;}
	.st1{fill:#43443F;}
	.st2{fill:url(#SVGID_1_);}
	.st3{fill:url(#SVGID_2_);}
	.st4{fill:url(#SVGID_3_);}
	.st5{fill:#CC6972;}
	.st6{fill:#F4E7E1;}
	.st7{fill:url(#SVGID_4_);}
	.st8{fill:#5E5E5C;}
	.st9{fill:url(#SVGID_5_);}
	.st10{fill:url(#SVGID_6_);}
	.st11{fill:url(#SVGID_7_);}
	.st12{fill:url(#SVGID_8_);}
	.st13{fill:#2B2B5B;}
	.st14{fill:url(#SVGID_9_);}
	.st15{fill:#FFFFFF;}
	.st16{fill:#239DB3;}
	.st17{fill:url(#SVGID_10_);}
	.st18{fill:none;stroke:#43443F;stroke-width:4.8432;stroke-miterlimit:10;}
	.st19{fill:url(#SVGID_11_);}
	.st20{fill:url(#SVGID_12_);}
</style>
<g>
	<path class="st0" d="M457.7,132.4c0,0,2.4-0.4,4.4-2.1c0.7,0.5,0.5,2-1.9,3.3C458.2,134.7,457.7,132.4,457.7,132.4z"/>
	<path class="st1" d="M361.4,97.2c0,0,18.1,1.4,23,20.5c5.9,22.7,10.8,34.8,10.8,34.8l65.1-17.6l2,6c0,0-46.6,19.3-59.3,24.5
		c-12.7,5.2-20.6-1.9-22.6-5.2c-2-3.3-17-34.5-17-34.5L361.4,97.2z"/>
	<g>
		
			<rect x="428.1" y="119.8" transform="matrix(0.9904 -0.1383 0.1383 0.9904 -15.4224 62.8659)" class="st1" width="33.2" height="45.1"/>
		
			<linearGradient id="SVGID_1_" gradientUnits="userSpaceOnUse" x1="297.5356" y1="240.4718" x2="285.0813" y2="218.2131" gradientTransform="matrix(0.9482 -0.3178 0.3178 0.9482 92.3155 14.1169)">
			<stop  offset="0" style="stop-color:#FFFFFF"/>
			<stop  offset="1" style="stop-color:#FEE2D4"/>
		</linearGradient>
		<polygon class="st2" points="461.5,158.3 432.9,162.3 427.7,125.5 456.4,121.5 		"/>
	</g>
	
		<linearGradient id="SVGID_2_" gradientUnits="userSpaceOnUse" x1="405.0166" y1="218.5328" x2="380.9453" y2="140.6549" gradientTransform="matrix(0.9952 9.750000e-02 -9.750000e-02 0.9952 -24.8881 -8.8133)">
		<stop  offset="0" style="stop-color:#5E5E5C"/>
		<stop  offset="1" style="stop-color:#43443F"/>
	</linearGradient>
	<path class="st3" d="M311.3,258.8c0,0,1.3-33.9-0.5-47.5c-5.1-39.5,31.2-98.7,41.9-115.5c4.8,0.3,11.6,1.9,11.6,1.9
		s27,25.8,14,69.8c-3.9,13.3-5.8,19-11,27c-0.2,7.2-14.5,53.3-14.5,53.3L311.3,258.8z"/>
	
		<linearGradient id="SVGID_3_" gradientUnits="userSpaceOnUse" x1="-184.1733" y1="94.8753" x2="-184.1733" y2="171.5448" gradientTransform="matrix(-0.9952 -9.750000e-02 -9.750000e-02 0.9952 173.3811 9.7668)">
		<stop  offset="0" style="stop-color:#FFFFFF"/>
		<stop  offset="1" style="stop-color:#FEE2D4"/>
	</linearGradient>
	<path class="st4" d="M354.4,95.8c-3.6-3.1-17.5-5.3-17.5-5.3l-20,33.3l0.9,83.6l45.6,5.2C363.4,212.6,393,129,354.4,95.8z"/>
	<path class="st5" d="M351.5,100.1c0,0,3.6,0.2,5,2.9c-0.2,2-0.6,6.1-0.6,6.1s6.8,18.5,7.9,38.2c1.7,30-2.5,54.2-2.5,54.2l-12,6.7
		l-5.3-14c0,0,7.6-26.7,9.3-47.7c1.8-21.7-0.2-37.2-0.2-37.2s-4.4-2.4-6.6-4.8C350.9,101.8,351.5,100.1,351.5,100.1z"/>
	<path class="st6" d="M335.8,92.3l-2.2,3.2l7.5,10.9c0,0,6.8-0.7,10.4-6.3C343.1,99.3,335.8,92.3,335.8,92.3z"/>
	
		<linearGradient id="SVGID_4_" gradientUnits="userSpaceOnUse" x1="378.4866" y1="211.2496" x2="359.0652" y2="148.4156" gradientTransform="matrix(0.9952 9.750000e-02 -9.750000e-02 0.9952 -24.8881 -8.8133)">
		<stop  offset="0" style="stop-color:#43443F"/>
		<stop  offset="1" style="stop-color:#43443F"/>
	</linearGradient>
	<path class="st7" d="M293.3,218c0,0,26-48.7,14.1-105.9c10.2-14.4,26.2-16.8,26.2-16.8s15.3,31.4,3.7,71.2
		c-2.6,9-11.5,29.3-18.3,49C313.7,230.6,293.3,218,293.3,218z"/>
	<path class="st8" d="M329.6,99.8c0,0,2.5,10.2-3,17.8c3.4,3.4,9,5.1,9,5.1s-2.3,3.6-7.6,6.9c2.4,5.3,8.3,21.7,7.9,33
		c5.3-21.3,3.9-37.7,1.9-47.9c-2-10.2-5.1-17.8-5.1-17.8L329.6,99.8z"/>
	<g>
		<g>
			<path class="st0" d="M435.2,143.8l9.1-2.1l-8.5-3.9C435,139.6,434.8,141.7,435.2,143.8z"/>
			<path class="st0" d="M445.1,142.2l-9.7,2.3c1.4,5.3,6.8,8.6,12.2,7.4L445.1,142.2z"/>
			<path class="st8" d="M445.1,141.3l2.3-9.6c-1.5-0.3-3-0.3-4.6,0.1c-3,0.8-5.3,2.8-6.6,5.3L445.1,141.3z"/>
			<path class="st1" d="M445.6,141.8l2.6,9.9c5.3-1.6,8.5-7.1,7.1-12.5c-1-3.7-3.8-6.4-7.3-7.4L445.6,141.8z"/>
		</g>
	</g>
	<polygon class="st1" points="311.1,98.4 269.5,124.1 274.9,136.7 320.7,126.9 	"/>
	<g>
		
			<linearGradient id="SVGID_5_" gradientUnits="userSpaceOnUse" x1="682.1579" y1="265.276" x2="661.5045" y2="253.9166" gradientTransform="matrix(0.9987 -5.210000e-02 5.210000e-02 0.9987 -330.6617 -134.2323)">
			<stop  offset="0" style="stop-color:#DBB19B"/>
			<stop  offset="1" style="stop-color:#FEE2D4"/>
		</linearGradient>
		<path class="st9" d="M336.2,91.7c0,0,1.3-2.9,0.4-10.2c-0.9-7.2,7.9-7.8,7.9-7.8s4,6.6,5.2,10.7c1.1,3.8,5.3,6.2,7.1,6.2
			c3.9,0.1,10.4-0.3,10.4-0.3s-12.3,2.7-15.1,8.8C345.5,99.9,336.2,91.7,336.2,91.7z"/>
		<path class="st0" d="M366.9,90.5c-3.4,0.3-8.3,0.6-11.3,0.5c-4.3-0.1-5.3-4.3-5.3-4.3l-2.9-6.9c0,0-1.7-0.7-3-2.1
			c-0.5-0.6-1.7-3.2,1.4-4.6c4.6-2.2-0.4-13.7-0.4-13.7l6.5-2.3l6.1,2.6l11.5,15.4c0,0,0.2,0.9-1,1.2c-1.2,0.2-2.7,0.8-2.7,0.8
			s2.8,11.5,2.8,12.1C368.5,89.5,368.1,90.4,366.9,90.5z"/>
		<path class="st1" d="M362,69.4c0.1,0.9-0.1,1-1,1.1c-0.9,0.1-3.6,0.6-3.5,0c0-0.2,1.5-1,3.9-2.4C362.1,67.6,361.9,68.5,362,69.4z"
			/>
		<path class="st1" d="M334.3,63.3c15.4-10.7,21.9-11.8,24-7.5c0.4,0.8,0.5,2.7-0.4,3.8c-5.4-0.1-10.5,0.4-8.8,3.8
			c0.4,1.1,6.7,12.9,2.4,13.7c-1-1.5-3.9-5.3-7-3.3c-1.8,1.2,0.5,5.4-8.1,7.9C335.4,74.5,333.3,66,334.3,63.3z"/>
	</g>
	<polygon class="st1" points="342.7,81.3 343.5,88.9 334.3,83.5 333.7,77.2 	"/>
	<polygon class="st8" points="343.5,88.9 345,88.6 344.1,80.9 337.3,78 336,78.2 342.7,81.3 	"/>
	<path class="st8" d="M285.7,128.1c0,0,2.9-0.4,14.9-9.2c12-8.8,27.7-24.2,27.7-24.2l-0.7-0.9L285.7,128.1z"/>
	<path class="st0" d="M327.5,92c0,0,1.9,0.1,4.5-1.6c2.6-1.7,4.8-2.5,6.3-2.6c1.5-0.1,2.8,0.2,2.8,0.2c0.1-0.3,0-0.4-0.2-0.6
		c-0.6-0.4-1.7-0.9-2.6-1.5c-1.6-0.4-3.1,0.4-4,0.1c-0.9-0.3-2.9-2.5-3-3.3c-0.1-0.7,2.4-0.1,2.4-0.1s3.5,1.1,4.2,1.2
		c0.7,0.1,1.4-0.8,1.4-0.8l-4.9-2.2c0,0,4.9-0.2,5.8-0.4c0.8-0.2,1.1-1.2,1.1-1.2l-1.1-0.3l0.3-0.5l-6.2-1.8l-4.5,2.7
		c0,0-2.7,0.2-3.2,2.3c-0.6,2.1-2.2,6.4-2.3,6.7c-0.1,0.3-1.3,0.9-1.3,0.9l2.9,3.8L327.5,92z"/>
	<path class="st1" d="M323.1,88l4.8,6.3c0,0-42.6,35.7-50,41.8s-19.1,0.1-19.1,0.1s-1.9-13.1,7.6-18C273.6,114.5,323.1,88,323.1,88z
		"/>
	<path class="st0" d="M460.4,134.8c0,0-5,0.7-5.9,0.9c-1.2,0.2-1.2,1.1-0.5,1.2c0.7,0.1,4.4,0.2,4.2,0.2c-4.2,0.3-5.9,0.4-5.9,1.1
		c0,0.5,0.3,1.3,0.6,2c0.2,0.5,0.6,0.8,1.5,1c0.4,0.1,6.9,0.7,6.9,0.7s1.1,0.1,1.6-1c0.5-1.1-0.6-5.3-0.8-6.1c-0.2-0.8-1.7-1-1.7-1
		L460.4,134.8z"/>
</g>
<path class="st0" d="M484.7,299.5c0,0,1.8,1.6,2.8,1.8c1.1,0.2,9.4,5.5,9.4,5.5s0.9-2.5-1-3.3c-1.3-0.6-2.5-2.4-2.5-2.4l10.5-1.9
	c0,0,2.9,2.3,3.6,2.5c0.7,0.3,2.2-0.6,2-0.7c-1.2-0.9-5.6-4.3-5.6-4.3s-2.7-3.1-3.8-2.9c-1.1,0.2-2.6,0.4-2.6,0.4s-2.6,0.3-5,0.7
	c-2.4,0.4-3.9,0.7-3.9,0.7l-2.6,0.5L484.7,299.5z"/>
<g>
	<path class="st0" d="M70.2,153c0,0-0.2-3.9-1-4.7c-0.8-0.8-5.5-10-5.5-10s-1.5,1.9-0.7,3c0.8,1.2,1,3.7,1,3.7l-6.8-2.7
		c0,0-8.1-3.1-8.8-3.2c-0.7-0.2-1.5,0.9-0.6,1.4c1.4,0.7,7.3,3.4,7.3,3.4s-7.3-1.5-8-1.7c-0.7-0.2-1.3,0.7-0.7,1.3
		c0.6,0.5-1.1,1.6-0.1,2.1c1,0.5,9.8,2.5,9.8,2.5s2.4,1.7,4.7,2.7c2.2,1,3.8,1.9,3.8,1.9l2.2,1.6L70.2,153z"/>
	<path class="st1" d="M190.3,192.8c0,0-50.4,5.1-60.1,6.5c-9.7,1.5-12.4,0.5-23.2-6.9C95.7,182,64.7,153,64.7,153l4.2-5.8l53.6,36.5
		l53.5-15.8L190.3,192.8z"/>
</g>
<linearGradient id="SVGID_6_" gradientUnits="userSpaceOnUse" x1="278.3991" y1="270.9757" x2="258.5224" y2="206.6687">
	<stop  offset="0" style="stop-color:#5E5E5C"/>
	<stop  offset="1" style="stop-color:#3E3F3B"/>
</linearGradient>
<path class="st10" d="M331.2,258.2c0,0-90.6-97.8-116.3-100.7c-25.7-2.9-28,1-28,1s41.9,88.1,75,114.1
	C299.3,285.7,331.2,258.2,331.2,258.2z"/>
<linearGradient id="SVGID_7_" gradientUnits="userSpaceOnUse" x1="173.3674" y1="209.2527" x2="304.9295" y2="209.2527">
	<stop  offset="0" style="stop-color:#FFFFFF"/>
	<stop  offset="1" style="stop-color:#FEE2D4"/>
</linearGradient>
<path class="st11" d="M271.5,261.9c0,0-46-25.1-79.8-47.8c-18.9-12.7-18.4-45.4-18.4-45.4s4.8-8,11-10.1
	c15.3-5.3,33.1-0.1,56.2,19.1c32.6,27.1,64.3,83.2,64.3,83.2L271.5,261.9z"/>
<linearGradient id="SVGID_8_" gradientUnits="userSpaceOnUse" x1="115.2203" y1="177.9717" x2="95.0871" y2="166.8984" gradientTransform="matrix(-0.9677 -0.2523 -0.2523 0.9677 316.2365 17.001)">
	<stop  offset="0" style="stop-color:#D6A78F"/>
	<stop  offset="1" style="stop-color:#FEE2D4"/>
</linearGradient>
<path class="st12" d="M190.9,156.9c0,0-1.6-2.4-1.2-5.7c0.4-3.3-6.3-9.2-6.3-9.2s-5.2,5.6-7.3,9.5c-1.9,3.5-6.4,5-8.3,4.7
	c-3.9-0.7-10.1-2.4-10.1-2.4s15.7,11.3,16.8,14.4C176.4,170.4,190.9,156.9,190.9,156.9z"/>
<path class="st0" d="M158.1,153.9c3.3,1,8.1,2.3,11,2.8c4.2,0.7,6-3.1,6-3.1l4.3-6.2c0,0,1.8-0.3,3.4-1.5c0.7-0.5,2.3-2.7-0.4-4.8
	c-4.1-3.1,3.1-13.4,3.1-13.4l-5.9-3.6l-6.5,1.3l-14.4,12.7c0,0-0.3,0.9,0.8,1.4c1.1,0.5,2.5,1.3,2.5,1.3s-5.1,10.7-5.2,11.2
	C156.7,152.6,156.9,153.5,158.1,153.9z"/>
<path class="st13" d="M167.1,134.3c-0.3,0.9-0.1,1,0.8,1.3c0.9,0.3,3.4,1.3,3.5,0.7c0-0.2-1.3-1.3-3.3-3.2
	C167.4,132.5,167.4,133.3,167.1,134.3z"/>
<path class="st1" d="M195.5,133.8c-12.9-13.6-19.1-16-22-12.2c-0.5,0.7-1.1,2.6-0.4,3.8c5.3,1,10.2,2.5,7.8,5.5
	c-0.6,1-9.2,11.3-5.1,12.9c1.3-1.3,4.9-4.4,7.5-1.8c1.5,1.5-1.6,5.2,6.3,9.3C192.1,144.6,196,136.7,195.5,133.8z"/>
<path class="st0" d="M191.2,157.4l1.6,2.7l-7,13.1c0,0-3.8,0.9-10.4-3.9C180.2,168.3,191.2,157.4,191.2,157.4z"/>
<linearGradient id="SVGID_9_" gradientUnits="userSpaceOnUse" x1="190.9724" y1="206.4846" x2="315.3982" y2="206.4846">
	<stop  offset="0" style="stop-color:#191918"/>
	<stop  offset="1" style="stop-color:#43443F"/>
</linearGradient>
<path class="st14" d="M191,156.9c0,0-2.3,50.6,56.1,64.7c28.2,6.8,50.7,36.2,50.7,36.2s37.9-33,2.5-40.3c-19.7-4-60.2-49.3-77-60.6
	C217.1,152.8,191,156.9,191,156.9z"/>
<path class="st5" d="M178,171c0,0-1.7,1.4-2.5,3.3c1,2.1,3.2,3.4,3.2,3.4s4.1,25.7,13,42.6c14.2,27.3,30.5,44,30.5,44l14.2,2.2
	l-1.5-15.4c0,0-12.6-7.2-31.2-30.5c-13.8-17.2-22.3-43.4-22.3-43.4s2-1.8,2.9-4.1C180.2,172.6,178,171,178,171z"/>
<g>
	
		<rect x="251.7" y="239.9" transform="matrix(0.951 -0.3092 0.3092 0.951 -65.8773 98.5761)" class="st15" width="52.8" height="34.5"/>
	<g>
		<g>
			
				<rect x="249.8" y="250.6" transform="matrix(0.9525 -0.3046 0.3046 0.9525 -64.6257 88.2146)" class="st16" width="1.3" height="1.3"/>
			
				<rect x="247.9" y="251.1" transform="matrix(0.9526 -0.3042 0.3042 0.9526 -64.7115 87.7821)" class="st1" width="2.9" height="0.9"/>
		</g>
		<g>
			
				<rect x="250.9" y="254" transform="matrix(0.9524 -0.3049 0.3049 0.9524 -65.6721 88.8085)" class="st16" width="1.3" height="1.3"/>
			
				<rect x="249" y="254.6" transform="matrix(0.9524 -0.3049 0.3049 0.9524 -65.8251 88.504)" class="st1" width="2.9" height="0.9"/>
		</g>
		<g>
			
				<rect x="252" y="257.5" transform="matrix(0.9526 -0.3041 0.3041 0.9526 -66.541 89.0643)" class="st16" width="1.3" height="1.3"/>
			
				<rect x="250.1" y="258" transform="matrix(0.9525 -0.3045 0.3045 0.9525 -66.757 88.8805)" class="st1" width="2.9" height="0.9"/>
		</g>
		<g>
			
				<rect x="253.1" y="260.9" transform="matrix(0.9525 -0.3046 0.3046 0.9525 -67.6172 89.7137)" class="st16" width="1.3" height="1.3"/>
			
				<rect x="251.2" y="261.5" transform="matrix(0.952 -0.3061 0.3061 0.952 -68.0497 89.9306)" class="st1" width="2.9" height="0.9"/>
		</g>
		<g>
			
				<rect x="254.2" y="264.4" transform="matrix(0.9521 -0.3059 0.3059 0.9521 -68.8611 90.6709)" class="st16" width="1.3" height="1.3"/>
			
				<rect x="252.3" y="264.9" transform="matrix(0.9526 -0.3042 0.3042 0.9526 -68.6964 89.7796)" class="st1" width="2.9" height="0.9"/>
		</g>
		<g>
			
				<rect x="255.3" y="267.8" transform="matrix(0.9526 -0.3044 0.3044 0.9526 -69.5709 90.6387)" class="st16" width="1.3" height="1.3"/>
			
				<rect x="253.4" y="268.4" transform="matrix(0.952 -0.3061 0.3061 0.952 -70.0541 90.9377)" class="st1" width="2.9" height="0.9"/>
		</g>
		<g>
			
				<rect x="256.4" y="271.3" transform="matrix(0.9521 -0.3059 0.3059 0.9521 -70.8643 91.6773)" class="st16" width="1.3" height="1.3"/>
			
				<rect x="254.5" y="271.8" transform="matrix(0.9522 -0.3055 0.3055 0.9522 -70.9429 91.2359)" class="st1" width="2.9" height="0.9"/>
		</g>
		<g>
			
				<rect x="257.5" y="274.7" transform="matrix(0.9528 -0.3035 0.3035 0.9528 -71.3894 91.3244)" class="st16" width="1.3" height="1.3"/>
			
				<rect x="255.6" y="275.3" transform="matrix(0.9525 -0.3045 0.3045 0.9525 -71.7429 91.3805)" class="st1" width="2.9" height="0.9"/>
		</g>
		<g>
			
				<rect x="258.6" y="278.2" transform="matrix(0.9524 -0.3048 0.3048 0.9524 -72.6554 92.3051)" class="st16" width="1.3" height="1.3"/>
			
				<rect x="256.7" y="278.7" transform="matrix(0.9522 -0.3055 0.3055 0.9522 -72.9436 92.2404)" class="st1" width="2.9" height="0.9"/>
		</g>
	</g>
</g>
<path class="st1" d="M200.7,169.8c0,0,5.6,14,32.4,14c26.7,0,46.9,0.7,46.9,0.7l3.1,73.3h7.8c0,0,3.9-54.1,5-71
	c1.1-16.9-5.3-21-18-22.8s-58-8.2-58-8.2L200.7,169.8z"/>
<path class="st1" d="M348,302.6c0,0,41-13.3,58.5-35.2c11.7-14.7,11.3-47,11.3-47L348,302.6z"/>
<path class="st1" d="M404.4,213.7c0,0,21.2,4.6,21.2,31.4c0,26.7,1,49.3,1,49.3l62.4,0.8l-1.9,7.8c0,0-42.1,3.5-59,4.6
	c-16.9,1.1-19.1-10.7-19.1-10.7l-10.2-52L404.4,213.7z"/>
<polygon class="st1" points="330.8,423.6 426.2,361.8 425.4,342.3 410.7,333.2 326,416.3 "/>
<path class="st1" d="M334.5,345.4c21.3,7.4,74.2,5.3,74.2,5.3l17.1-9.3L313,317.2C313,317.2,321.3,340.8,334.5,345.4z"/>
<path class="st8" d="M295.2,339.6c0,0-11,6.2,4.8,9.7c15.8,3.5,112.1-9.6,111.3-8.6c-0.7,19.2,7.7,33.3,7.7,33.3l2.1-41.4
	L295.2,339.6z"/>
<path class="st1" d="M326.6,416.3l-5,0.3l0.2,6.1l2.5-0.1l-2.2,8.7l0.5,7.9c0,0,1.6,0.8,1.8-0.6c0.1-0.4,1.7-8.1,1.7-8.1l4-6.3
	L326.6,416.3z"/>
<path class="st15" d="M342.9,317.7c0,0,26.8-35.2,56.2-58.9c17.7-14.3,20.3-37.7,20.3-37.7s-6.6-7.3-12.8-9.6
	c-6.9-2.5-40.5,1.8-63.6,21c-32.6,27.1-66.5,81.5-66.5,81.5L342.9,317.7z"/>
<path class="st0" d="M336.1,313c0,0,6.4-16.2,18.6-21.2c13.3-5.4,23.4-22,23.4-22s-9.8,11.8-23.2,20.2c-13.4,8.5-24,23.7-24,23.7
	L336.1,313z"/>
<path class="st0" d="M402.5,210.9l-2.6,2.1l1.7,15.2c0,0,2.7,0.8,9.4-0.9C406,221.7,402.5,210.9,402.5,210.9z"/>
<path class="st1" d="M402.5,210.9c0,0,0.1,61.2-59.3,69.7c-38.2,5.5-66.7,66.7-66.7,66.7S261,325.5,264,305.5
	c8.3-13.7,19.6-24.6,45-34C392.1,240.8,402.5,210.9,402.5,210.9z"/>
<path class="st1" d="M293,280.2c0,0,32.7-46.6,65.5-61.3c23.2-10.4,44.1-8,44.1-8s-4.7,32.4-42,45.6
	C323.2,269.6,293,280.2,293,280.2z"/>
<path class="st5" d="M411,227.3c0,0,1.7,1.5,2.2,3.6c-1.1,2-3.4,3.2-3.4,3.2s1.8,11.8-8.9,27.6c-16.5,24.3-16.7,52.3-16.7,52.3
	h-10.2l-9.7-0.2c0,0,6.4-32.9,27.2-52.7c14.8-14.2,16-27.2,16-27.2s-2.2-3.3-3-5.5C408.6,228.1,411,227.3,411,227.3z"/>
<path class="st1" d="M268.8,314.1c0,0,146.9-0.2,152.4-0.2c5.6,0,19.7,2.7,18.7,20.2c-61.2,4.9-85.8,14.2-107,16.3
	C257.7,357.9,268.8,314.1,268.8,314.1z"/>
<path class="st8" d="M397.5,215.7c0,0-2.2,14.8-11,17.5c0.9,4.6,2.9,8.4,2.9,8.4s-0.6,1.8-8.8,0.9c-0.9,5.5-7.8,22.7-15.5,29.5
	c21.5-11.2,27.1-27.6,30.5-37.1c3.4-9.5,5.4-22.2,5.4-22.2L397.5,215.7z"/>
<g>
	
		<linearGradient id="SVGID_10_" gradientUnits="userSpaceOnUse" x1="979.8256" y1="159.9172" x2="959.5851" y2="148.7849" gradientTransform="matrix(0.8992 0.4377 -0.4377 0.8992 -384.3994 -342.0721)">
		<stop  offset="0" style="stop-color:#D9AC96"/>
		<stop  offset="1" style="stop-color:#FEE2D4"/>
	</linearGradient>
	<path class="st17" d="M403.3,210.9c0,0,3.2-1.3,5.2-5.4c2-4,10.7-3,10.7-3s0.3,7.7-0.6,11.9c-0.9,3.9,1.6,8,3.2,8.9
		c3.4,2,9.2,4.8,9.2,4.8s-15.2-2.7-18.1-1.1C410,227.5,403.3,210.9,403.3,210.9z"/>
	<path class="st0" d="M430.6,228c-3.1-1.4-7.6-3.5-10.2-5.1c-3.7-2.2-2.6-6.3-2.6-6.3l0.8-7.5c0,0-1.1-1.4-1.6-3.3
		c-0.2-0.8,0-3.6,3.5-3.4c5.1,0.3,6.3-12.2,6.3-12.2l6.8,1.1l4.1,5.2l2.7,19c0,0-0.3,0.9-1.5,0.5c-1.2-0.4-2.7-0.6-2.7-0.6
		s-3.1,11.4-3.3,11.9C432.6,227.9,431.8,228.5,430.6,228z"/>
	<path class="st1" d="M436.6,207.2c-0.3,0.9-0.6,0.8-1.5,0.5c-0.8-0.4-3.4-1.2-3.1-1.7c0.1-0.2,1.8-0.1,4.6-0.2
		C437.5,205.7,436.9,206.3,436.6,207.2z"/>
	<path class="st1" d="M415.3,188.4c18.7-1.9,24.9,0.3,24.7,5c-0.1,0.9-0.9,2.6-2.2,3.2c-4.7-2.7-9.4-4.8-9.5-0.9
		c-0.2,1.1-0.4,14.5-4.5,13.1c-0.2-1.9-0.8-6.5-4.5-6.2c-2.1,0.2-2.2,5-10.9,3C410.8,198.8,413,190.3,415.3,188.4z"/>
</g>
<path class="st1" d="M431.2,443l-0.1,7.8l6,0l0.2-3l8.5,2.8l7.9,0.1c0,0,1-1.5-0.5-1.8c-0.4-0.1-7.9-2.3-7.9-2.3l-7.2-5.2L431.2,443
	z"/>
<path class="st1" d="M439.9,332.3L439,442.9l-8.9-2c0,0-22.5-88.7-14.3-105.8C422.9,320.7,439.9,332.3,439.9,332.3z"/>
<path class="st8" d="M196.6,160.6c0,0,6.4,11.4,13.3,14.5c-2.8,5.1-5.8,9.1-5.8,9.1s2.1,2.1,8.9,0.1c1.2,5.5,10.4,23.6,18.4,30.1
	c-25.5-15.1-30.2-27-34.1-36.3c-3.9-9.3-4.9-19.4-4.9-19.4L196.6,160.6z"/>
<path class="st1" d="M394.7,452.1h-3V363c0-5.8-4.7-10.5-10.5-10.5H275.1c-5.8,0-10.5,4.7-10.5,10.5v89.1h-3V363
	c0-7.4,6.1-13.5,13.5-13.5h106.1c7.4,0,13.5,6.1,13.5,13.5V452.1z"/>
<polygon class="st8" points="500.7,305.1 470.1,306.6 470.1,308.2 501.2,308.2 "/>
<path class="st1" d="M529.7,313.1H454c-1.4,0-2.5-1.1-2.5-2.5c0-1.4,1.1-2.5,2.5-2.5h75.7c1.4,0,2.5,1.1,2.5,2.5
	C532.2,312,531.1,313.1,529.7,313.1z"/>
<g>
	<path class="st1" d="M521.6,308.1h-21v-3h21c2.4,0,4.4-0.9,5.6-2.6c1.4-2,1.5-4.8,0.5-7.7c-2.5-6.8-14.6-39.2-14.7-39.5l2.8-1.1
		c0.1,0.3,12.2,32.8,14.7,39.5c1.4,3.9,1.1,7.7-0.8,10.4C528,306.7,525,308.1,521.6,308.1z"/>
	<path class="st8" d="M519.3,255.4c0,2.6-2.1,4.7-4.7,4.7c-2.6,0-4.7-2.1-4.7-4.7c0-2.6,2.1-4.7,4.7-4.7
		C517.2,250.8,519.3,252.9,519.3,255.4z"/>
	<g>
		<path class="st1" d="M500.8,290.1l-1.5-0.4l17.9-73.4l1.5,0.4c0,0,2.2,16.1-3.1,38.1C510.2,276.8,500.8,290.1,500.8,290.1z"/>
		
			<rect x="467.8" y="251.6" transform="matrix(0.2368 -0.9716 0.9716 0.2368 141.4946 685.6003)" class="st0" width="78.7" height="2.3"/>
	</g>
</g>
<path class="st0" d="M462.2,306.1c0,0,1.6,1.9,2.7,2c1.1,0.1,3.4,0.3,6.1-0.7c2.7-1,9.7-3.2,9.7-3.2s3.9,1.4,4.6,1.6
	c0.7,0.2,2.1-0.9,1.8-1c-1.3-0.8-6.6-3.3-6.6-3.3s-3-3.4-4.1-3.1c-1.1,0.3-4.6,1.8-7,2.4c-2.3,0.6-3.8,1.1-3.8,1.1l-2.4,0.1
	L462.2,306.1z"/>
<g>
	<path class="st15" d="M107.5,69v2.2h2.1l-17,17.1L82,82.1L66.4,98.6c-0.5-0.3-1.1-0.4-1.7-0.4c-2,0-3.7,1.7-3.7,3.7
		c0,2,1.7,3.7,3.7,3.7c2,0,3.7-1.7,3.7-3.7c0-0.6-0.2-1.2-0.4-1.7l14.3-15.3L93,91.2l18.2-18.3v1.9h2.2V69H107.5z M64.8,103.3
		c-0.8,0-1.5-0.7-1.5-1.5c0-0.8,0.7-1.5,1.5-1.5c0.8,0,1.5,0.7,1.5,1.5C66.2,102.7,65.6,103.3,64.8,103.3z"/>
	<polygon class="st15" points="112.3,102.9 69.4,102.9 69.4,101.8 112.3,101.8 112.3,102.9 	"/>
	<polygon class="st15" points="65.3,96.2 64.2,96.2 64.2,66.2 65.3,66.2 65.3,96.2 	"/>
	<polygon class="st15" points="71.9,99.3 82.7,87.9 93.3,93.7 109.1,78.4 109.1,99.3 	"/>
</g>
<g>
	<path class="st18" d="M119.8,99.5c-9.2,18.3-31.6,25.6-49.9,16.4c-18.3-9.2-25.6-31.6-16.4-49.9c9.2-18.3,31.6-25.6,49.9-16.4
		C121.7,58.9,129.1,81.2,119.8,99.5z"/>
	<linearGradient id="SVGID_11_" gradientUnits="userSpaceOnUse" x1="39.2772" y1="143.7674" x2="72.451" y2="143.7674">
		<stop  offset="0" style="stop-color:#191918"/>
		<stop  offset="1" style="stop-color:#43443F"/>
	</linearGradient>
	<polygon class="st19" points="53.6,166.1 39.3,158.9 58.2,121.5 72.5,128.7 	"/>
	<linearGradient id="SVGID_12_" gradientUnits="userSpaceOnUse" x1="58.6624" y1="120.7312" x2="76.3348" y2="120.7312">
		<stop  offset="0" style="stop-color:#191918"/>
		<stop  offset="1" style="stop-color:#43443F"/>
	</linearGradient>
	<path class="st20" d="M76.3,121l-14.3-7.2c0,0,2.2,2.4,1,4.7c-1.2,2.3-4.4,2-4.4,2l14.3,7.2c0,0-2.1-2.4-1-4.7
		C73.1,120.7,76.3,121,76.3,121z"/>
</g>
<path class="st0" d="M63.2,147.8c0,0-1.3-1.8-0.9-4.7c0.7-1.4-1.1-3.8-1.4-4.9c-0.3-1.1-0.4-2.3,0.3-2.7c0.5,0.5,0.8,1.5,2.1,2.7
	c0.6,1.9,1.5,2.4,2.3,4C66.7,143.9,63.2,147.8,63.2,147.8z"/>
<path class="st15" d="M60.6,89.1c0-18.8,15.2-34,34-34c3.1,0,6.2,0.4,9,1.2c-5.1-3.4-11.2-5.4-17.7-5.4c-17.5,0-31.6,14.2-31.6,31.6
	c0,9.7,4.4,18.3,11.2,24.1C62.4,101.5,60.6,95.5,60.6,89.1z"/>
<path class="st8" d="M410.3,299c0,0-1.8,2.9,11.6,5.1s27.1,1.6,27.1,1.6L410.3,299z"/>
<path class="st1" d="M359.6,225.8l19.5,58.1c0,0,3.4,11,15.2,13.5c11.8,2.5,67.2,10.7,67.2,10.7l2-6.5l-61.3-17.9l-12.5-66.5
	L359.6,225.8z"/>
<path class="st1" d="M290.3,302c0,6.4-5.1,11.5-11.5,11.5h-15.3c-6.4,0-11.5-5.1-11.5-11.5l0,0c0-6.4,5.1-11.5,11.5-11.5h15.3
	C285.1,290.5,290.3,295.7,290.3,302L290.3,302z"/>
<path class="st1" d="M261.6,357v-53.5c0-0.8,0.7-1.5,1.5-1.5c0.8,0,1.5,0.7,1.5,1.5v49.2c0,0-0.7,0.6-1.9,2.3
	C262.1,355.9,261.6,357,261.6,357z"/>
<path class="st0" d="M289.7,257.8c0,0,0.1,1.6,0.5,3.2c0.5,1.9,0.5,7.8,0.2,9.7c-0.3,1.8-0.8,3.1-1.6,3.2c-0.8,0.1-1.5,0.2-2.2,1.2
	s-1.4-0.3-2.8,0.5s-3.9-0.9-3.9-0.9l2.3-0.8c0,0,0.4-3.9,0.6-5.1c0.2-1.2,0.2-2.7,0.2-2.7s-4.4,3.1-5.7,3.2
	c-1.2,0.2-1.9-0.5-1.9-0.5s4.4-3.9,5.6-5.3c1.2-1.4,3-4.1,3.1-4.7c0.2-0.6,0.3-1.2,0.3-1.2L289.7,257.8z"/>
</svg>
