<svg xmlns="http://www.w3.org/2000/svg" xmlns:xlink="http://www.w3.org/1999/xlink" viewBox="0 0 185 185">
  <defs>
    <style>
      .cls-1 {
        fill: #444441;
      }

      .cls-2 {
        fill: #fee2d4;
      }

      .cls-3 {
        filter: url(#Ellipse_17);
      }
    </style>
    <filter id="Ellipse_17" x="0" y="0" width="185" height="185" filterUnits="userSpaceOnUse">
      <feOffset dy="3" input="SourceAlpha"/>
      <feGaussianBlur stdDeviation="3" result="blur"/>
      <feFlood flood-opacity="0.361"/>
      <feComposite operator="in" in2="blur"/>
      <feComposite in="SourceGraphic"/>
    </filter>
  </defs>
  <g id="Group_96" data-name="Group 96" transform="translate(9 6)">
    <g class="cls-3" transform="matrix(1, 0, 0, 1, -9, -6)">
      <circle id="Ellipse_17-2" data-name="Ellipse 17" class="cls-1" cx="83.5" cy="83.5" r="83.5" transform="translate(9 6)"/>
    </g>
    <g id="Group_95" data-name="Group 95" transform="translate(38.331 46.664)">
      <g id="Group_94" data-name="Group 94">
        <path id="Path_38" data-name="Path 38" class="cls-2" d="M160.66,101.647l-.547-.547-.547-.547h0a21.837,21.837,0,0,0-31.462.05l-.6.6-5.318,5.915-5.219-5.765-.6-.6a21.837,21.837,0,0,0-31.462-.05h0l-.2.2-.845.895c-8.648,8.9-9.046,23.857-.845,33.151l39.165,43.589,39.265-43.688A24.864,24.864,0,0,0,160.66,101.647Z" transform="translate(-77.12 -93.887)"/>
      </g>
    </g>
  </g>
</svg>
