<?xml version="1.0" encoding="utf-8"?>
<!-- Generator: Adobe Illustrator 22.1.0, SVG Export Plug-In . SVG Version: 6.00 Build 0)  -->
<svg version="1.1" id="Layer_1" xmlns="http://www.w3.org/2000/svg" xmlns:xlink="http://www.w3.org/1999/xlink" x="0px" y="0px"
	 viewBox="0 0 1366 768" style="enable-background:new 0 0 1366 768;" xml:space="preserve">
<style type="text/css">
	.st0{fill:#43443F;}
</style>
<g>
	<path class="st0" d="M157.7,252.3c1.8-0.2,3.6-0.7,5.4-0.7c17.6,0,35.2-0.2,52.8,0.1c8.9,0.2,17.9,0.9,26.5,3.6
		c6.8,2.1,13.1,5.5,19,9.4c3.1,2.1,5.6,4.8,7.6,7.9c6.5,9.5,10.7,19.9,11.8,31.5c0.8,8.9,1.2,17.9,0.3,26.8
		c-1.4,14.8-8.3,26.3-21,34.2c-3.4,2.1-7,3.9-10.4,5.9c-0.7,0.4-1.3,0.8-2.3,1.5c1.7,0.9,2.9,1.7,4.3,2.2
		c17.3,6.2,27.3,19.1,32.7,36.1c2,6.3,2.9,12.8,3.3,19.3c0.4,6.3,0.7,12.6,0.5,18.9c-0.4,12.6-3,24.9-8.2,36.5
		c-7.3,16.4-19.8,26.5-37.4,30.2c-7.4,1.6-14.8,2.5-22.3,2.5c-18.6-0.1-37.3,0.1-55.9,0.2c-2.2,0-4.4-0.3-6.8-0.4
		C157.7,429.4,157.7,341,157.7,252.3z M207.7,480.6c1.5,0.1,2.9,0.4,4.3,0.4c2.7-0.1,5.4-0.2,8.1-0.5c8.7-1,14.7-5.5,17.2-14.1
		c0.9-3.2,1.7-6.5,2.3-9.8c1.5-9.4,1.5-18.8,0.9-28.2c-0.4-7-1.8-13.9-4.6-20.5c-1.5-3.6-3.5-6.8-6.4-9.4
		c-6.4-5.7-13.8-6.9-21.8-5.1C205.9,399.7,206,472,207.7,480.6z M207.3,356.1c3.7,0,7,0.3,10.3-0.1c9-1,14.1-5.5,16.6-14.2
		c2.8-10.1,3.7-20.3,2.4-30.6c-0.5-3.9-1.2-7.8-2.3-11.5c-1.7-5.8-5.6-9.7-11.5-11.1c-2.7-0.6-5.5-0.9-8.3-1c-2.5,0-5.1,0.1-7.7,1.4
		c-0.1,2.3-0.4,4.7-0.4,7.1c-0.1,9-0.2,17.9-0.2,26.9c0.1,9.4,0.4,18.7,0.6,28.1C206.9,352.7,207.1,354.3,207.3,356.1z"/>
	<path class="st0" d="M1093.7,517.1c-5.7,1.8-40.7,2.1-50,0.6c-0.2-0.6-0.5-1.4-0.7-2.1c-3.3-14.3-6.7-28.6-10-43
		c-3.8-16.7-7.6-33.5-11.4-50.3c-1.7-7.5-3.4-15-5.1-22.4c-0.2-0.9-0.4-1.8-0.7-3c-2.2-0.2-4.4-0.3-6.6-0.4c-1.6,1.8-1.9,3.9-1.9,6
		c0,37.7,0.1,75.3,0.1,113c0,0.7-0.1,1.4-0.1,2.4c-0.9,0.1-1.7,0.3-2.5,0.4c-11.7,0.5-23.5,0.6-35.3,0.3c-2.9-0.1-5.8-0.1-8.6-0.1
		c-0.6,0-1.2-0.1-1.8-0.1c-0.5-2-0.6-263.2-0.1-266c1.6-0.2,3.3-0.7,5-0.7c17.6,0,35.2-0.1,52.8,0.1c10.2,0.1,20.5,1.4,30.3,4.2
		c13.3,3.8,24.1,11.3,31.9,22.8c3.7,5.4,5.8,11.5,7.3,17.9c2.9,12.2,4,24.6,2.8,37.1c-0.9,9.5-2.8,18.8-5.9,27.8
		c-2.1,6.2-5.5,11.5-10.5,15.8c-4.5,3.9-9,7.9-13.5,11.9c-0.7,0.6-1.4,1.3-2.4,2.1c5.6,20.9,11.7,41.9,17.9,62.8
		C1081.3,475.2,1087.5,496.1,1093.7,517.1z M1009.1,362.9c0.6,0,1.1,0.1,1.5,0.1c4.2,0,8.5,0,12.7,0c2.7,0,5.1-1,6.8-3
		c3.1-3.6,5.8-7.5,7.2-12c2.7-8.6,3.9-17.5,3.3-26.5c-0.6-9.4-2.5-18.3-8.1-26.2c-2-2.8-4.3-4.5-7.7-4.5c-5-0.1-9.9-0.1-14.9-0.1
		c-0.4,0-0.9,0.2-1.3,0.3C1007,299.2,1007.3,354.3,1009.1,362.9z"/>
	<path class="st0" d="M622,517.3c-16.4,1.8-32.4,1.9-48.7,0.6c-0.2-2-0.4-3.9-0.5-5.8c-0.1-1,0-2.1,0-3.1c0-82.2,0-164.4,0-246.7
		c0-3.3,0.2-6.7,0.4-10.3c1.8-0.1,3.4-0.3,5.1-0.3c10.2-0.1,20.5-0.1,30.7-0.1c3.8,0,7.5,0,11.2,0c1.3,1.3,1.8,2.8,1.9,4.4
		c0,1.8,0,3.5,0,5.3c0,27.8,0,55.5,0,83.3c0,0.8,0,1.7,0,2.5c0.2,0.1,0.4,0.1,0.5,0.2c0.4-0.8,0.9-1.6,1.3-2.4
		c4.2-8.7,7.8-17.7,11.2-26.7c8-21.2,16-42.5,24-63.7c0.3-0.7,0.6-1.5,1-2.4c1.6-0.1,3.1-0.3,4.7-0.3c8-0.1,16-0.1,24-0.2
		c8,0,16,0,24,0c0.8,0,1.6,0,2.7,0c-0.3,0.9-0.5,1.5-0.8,2.1c-15.5,35.2-31.3,70.2-48.2,104.8c-0.8,1.6-0.9,2.9-0.3,4.5
		c17.2,49.1,34,98.3,50.4,147.7c0.7,2.1,1.4,4.2,2.1,6.3c-4.5,2-44.5,2.5-51,0.7c-0.9-2.6-1.9-5.3-2.7-8c-4.5-14.8-9-29.7-13.4-44.5
		c-6.4-21.4-12.8-42.9-19.2-64.3c-0.2-0.7-0.4-1.4-0.7-2.3c-0.5,0.6-0.9,0.9-1.1,1.3c-3.2,5.9-5.1,12.2-6.9,18.6
		c-1.3,4.7-1.4,9.6-1.4,14.5c0,27,0,54.1,0,81.1C622,515,622,516,622,517.3z"/>
	<path class="st0" d="M449.5,252.1c17.3,88.4,34.5,176.6,51.8,264.9c-2.8,1.1-5.6,1.1-8.2,1.2c-12.1,0.7-24.1,0.8-36.2,0.1
		c-0.6,0-1.3-0.1-1.9-0.2c-0.4-0.1-0.8-0.2-1.4-0.4c-0.7-3-1.6-6.1-2.2-9.2c-2.5-14-4.9-28-7.3-42c-0.1-0.9-0.4-1.7-0.5-2.5
		c-4.7-2-24.1-2.3-32-0.5c-3.1,18.1-6.2,36.4-9.3,54.6c-15.9,0-31.5,0-47.4,0c0.2-1.8,0.4-3.5,0.7-5.1c3.4-18.5,6.7-37,10.2-55.4
		c3.5-18.7,7.2-37.4,10.8-56c3.4-17.6,6.9-35.3,10.4-52.9c3.5-17.9,7.1-35.7,10.7-53.6c2.8-13.5,5.7-27.1,8.6-40.6
		c0.2-0.8,0.4-1.5,0.6-2.4C421,252.1,435.1,252.1,449.5,252.1z M439.5,428c0.3-5.5-10.4-88.1-11.8-91.3
		c-1.7,3.9-12.6,86.4-11.9,91.3C423.6,428.1,431.5,428,439.5,428z"/>
	<path class="st0" d="M784.5,252.8c1.8-0.9,3.5-1.2,5.3-1.2c30.3,0,60.6,0,90.9,0c1.4,0,2.8,0.3,4.4,0.5c0.1,1,0.2,1.7,0.2,2.5
		c0,10,0,20,0,30c0,2.6-0.8,3.6-3.5,3.8c-1,0.1-2.1,0-3.1,0c-13.9,0-27.8,0-41.8,0c-0.6,0-1.2,0.1-2.1,0.2c-0.2,1.7-0.5,3.3-0.6,5
		c-0.4,9.7-0.9,19.3-0.9,29c-0.1,11.4,0.2,22.9,0.4,34.3c0,1.4,0.3,2.8,0.4,4.3c2.4,1.1,4.8,1.1,7.2,1.2c2.2,0.1,4.3-0.2,6.5-0.2
		c6.1,0,12.2,0.2,18.2,0.2c1.3,0,2.5,0,4,0c0.6,12.3,0.7,24.4-0.1,36.8c-2.7,0.2-5.4,0.5-8,0.5c-4.6,0.1-9.3,0-13.9,0
		c-3.5,0-7,0.1-10.6,0.2c-1.1,0-2.2,0.3-3.5,0.4c-0.1,0.8-0.3,1.5-0.3,2.2c-0.1,6.4-0.2,12.8-0.3,19.2c0,2.6,0,5.1,0,7.7
		c0,16.2,0,32.5,0,48.7c0,3.1,1.1,4.3,4.2,4.5c2.1,0.1,4.2,0,6.2,0c12.5,0,25,0,37.4,0c0.9,0,1.7,0,2.5,0c2.3,4.3,2.7,29.3,0.7,35
		c-6.7,1.5-92.3,1.5-99.2,0.1c-1-0.8-0.8-1.9-0.8-2.9c0-8.2,0-16.5,0-24.7c0-19.5,0-39,0-58.6c0-36.6,0-73.3-0.1-109.9
		c0-20.5-0.1-41-0.1-61.4C784.3,257.7,784.4,255.3,784.5,252.8z"/>
	<path class="st0" d="M1209.8,517.5c-15.3,1.6-30.2,1.6-45.2,0.4c-0.1-0.7-0.3-1.3-0.4-2c-0.1-2.3-0.2-4.6-0.2-7
		c0-59.7,0-119.3,0-179c0-1,0-2.1,0-3.2c0.7-0.1,1.2-0.2,1.7-0.2c13.8,0,27.5,0,41.3,0c2.2,0,2.8,0.6,3,2.8c0.1,1.4,0.2,2.9,0.2,4.3
		c0,49.6,0,99.2-0.1,148.7c0,10.5,0,21,0,31.4C1210,514.9,1209.9,516,1209.8,517.5z"/>
	<path class="st0" d="M1165.2,251.5c14.8-1.2,29.6-1.2,44.6,0.1c0.8,15.5,0.4,30.8,0.2,46c-0.2,0.2-0.2,0.3-0.3,0.3
		c-0.1,0.1-0.1,0.1-0.2,0.1c-0.6,0.1-1.1,0.2-1.7,0.2c-13.9,0-27.8,0-41.7,0c-0.2,0-0.4-0.1-0.7-0.2
		C1163.6,292.6,1163.2,257.9,1165.2,251.5z"/>
</g>
</svg>
