<?xml version="1.0" encoding="utf-8"?>
<!-- Generator: Adobe Illustrator 22.1.0, SVG Export Plug-In . SVG Version: 6.00 Build 0)  -->
<svg version="1.1" id="Layer_1" xmlns="http://www.w3.org/2000/svg" xmlns:xlink="http://www.w3.org/1999/xlink" x="0px" y="0px"
	 viewBox="0 0 757 500" style="enable-background:new 0 0 757 500;" xml:space="preserve">
<style type="text/css">
	.st0{opacity:0.56;fill:#43443F;}
	.st1{opacity:0.5;}
	.st2{fill:none;stroke:#FFFFFF;stroke-width:5.06;stroke-linecap:round;stroke-miterlimit:10;}
	.st3{fill:#43443F;}
	.st4{fill:#E6F0F2;}
	.st5{fill:#E3DED5;}
	.st6{fill:#FFFFFF;}
	.st7{fill:#CF8778;}
	.st8{fill:#FEE2D4;}
	.st9{fill:#D1D3D4;}
	.st10{fill:#FCFCFC;}
	.st11{fill:none;stroke:#43443F;stroke-width:0.7206;stroke-miterlimit:10;}
	.st12{fill:#F9A395;}
	.st13{fill:#FF806D;}
	.st14{fill:#8B82E0;}
	.st15{fill:#FFE690;}
	.st16{fill:#F4F4F4;}
	.st17{fill:#CBCEDD;}
</style>
<path class="st0" d="M254,394.9c0,2.1-38.7,3.7-86.5,3.7S81,397,81,394.9c0-2.1,38.7-3.7,86.5-3.7S254,392.9,254,394.9z"/>
<path class="st0" d="M684,394.9c0,2.1-38.7,3.7-86.5,3.7c-47.8,0-86.5-1.7-86.5-3.7c0-2.1,38.7-3.7,86.5-3.7
	C645.2,391.2,684,392.9,684,394.9z"/>
<g class="st1">
	<g>
		<path class="st2" d="M583.3,226.5c16,17.9,29.6,38,40.4,59.6"/>
		<path class="st2" d="M533.5,182.6c10.1,6.9,19.6,14.5,28.6,22.6"/>
		<path class="st2" d="M466.2,148.9c10.9,3.7,21.4,8,31.7,13"/>
		<path class="st2" d="M409.9,136.3c9.8,1.1,19.4,2.7,28.8,4.9"/>
		<path class="st2" d="M336.3,137.8c13.8-2.1,27.8-3.2,42.2-3.2c10.6,0,21.1,0.6,31.4,1.8"/>
		<path class="st2" d="M276.7,154.1c11-4.4,22.3-8.1,34-11.1"/>
		<path class="st2" d="M174.7,225.3c6.9-7.7,14.3-15,22.1-21.9"/>
	</g>
	<g>
		<path class="st2" d="M569,230.9c17.2,18.5,31.8,39.4,43.1,62.3"/>
		<path class="st2" d="M469.6,164.5c31.4,11.7,60,29.4,84.3,51.5"/>
		<path class="st2" d="M423.2,151.9c7.7,1.3,15.2,3,22.6,5"/>
		<path class="st2" d="M307.5,157.9c5.6-1.6,11.4-3,17.2-4.2"/>
		<path class="st2" d="M203.3,215.8c23.8-21.6,51.5-38.9,82-50.5"/>
		<path class="st2" d="M158.3,269.3c9.5-15,20.5-29,32.8-41.7"/>
	</g>
	<g>
		<path class="st2" d="M187,296c10.5-17.7,23.3-33.9,38.1-48"/>
		<path class="st2" d="M538,253.9c12.5,12.9,23.5,27.3,32.6,43"/>
		<path class="st2" d="M449.5,198.1c30.7,10.3,58.4,27.2,81.4,48.9"/>
		<path class="st2" d="M330.5,191.7c15.5-3.4,31.5-5.2,48-5.2c17.9,0,35.4,2.1,52.1,6.1"/>
		<path class="st2" d="M277.5,210.7c10.8-5.5,22.1-10.2,33.8-13.9"/>
	</g>
	<g>
		<path class="st2" d="M538.6,236.8c3.5,3.3,6.9,6.7,10.3,10.2"/>
		<path class="st2" d="M426.1,178.8c12.3,2.5,24.3,6,35.9,10.4"/>
		<path class="st2" d="M305.4,186c8.8-2.9,17.7-5.3,26.9-7.2"/>
		<path class="st2" d="M212.2,244.3c20.4-20.9,44.7-37.9,71.8-50"/>
	</g>
	<g>
		<path class="st2" d="M545.7,225.9c4.5,4.1,8.9,8.4,13.1,12.9"/>
		<path class="st2" d="M438.7,168.4c7.3,1.8,14.5,4,21.6,6.5"/>
		<path class="st2" d="M330.3,165.7c15.6-3.1,31.7-4.7,48.2-4.7c15.2,0,30.2,1.4,44.6,4"/>
		<path class="st2" d="M269.3,186.3c11.3-5.6,23.2-10.3,35.4-14.1"/>
		<path class="st2" d="M185.8,253c6.7-8.3,13.9-16.2,21.7-23.5"/>
	</g>
</g>
<path class="st3" d="M228.3,302.3v85.4c0,4-3.2,7.2-7.2,7.2H101.7c-4,0-7.2-3.2-7.2-7.2v-97.7c0-4,3.2-7.2,7.2-7.2h24.9
	c5.5,0,10.3,3.7,11.7,9l0.9,3.2h81.8C225.1,295.1,228.3,298.4,228.3,302.3z"/>
<g>
	<polygon class="st4" points="113.1,302.4 104.4,311.1 104.4,327.9 218.4,327.9 218.4,302.4 	"/>
	<polygon class="st5" points="113.1,311.1 113.1,302.4 104.4,311.1 	"/>
</g>
<g>
	<g>
		
			<rect x="137.2" y="225.8" transform="matrix(0.4889 -0.8723 0.8723 0.4889 -150.9337 294.0563)" class="st6" width="76.6" height="100"/>
		<g>
			<path class="st7" d="M154.8,274.4l-21.2-11.9l-12.4,22.1l21.2,11.9l0.2-0.3l0,0l5.4-9.6l0,0l0.1-0.3c0,0,0,0,0,0
				c0.2-0.3,0.3-0.6,0.4-0.7c0,0,0.1-0.2,0.6-1.1c0,0,0,0,0,0l0.1-0.3l0,0l5.4-9.6l-0.1,0L154.8,274.4z"/>
			<path class="st7" d="M148.6,285.6c0.1-0.1,0.1-0.2,0.1-0.2C148.7,285.5,148.6,285.5,148.6,285.6z"/>
			<path class="st7" d="M148.6,285.7C148.6,285.7,148.6,285.6,148.6,285.7C148.6,285.6,148.6,285.6,148.6,285.7z"/>
			<path class="st7" d="M148.7,285.4C148.7,285.4,148.8,285.3,148.7,285.4C148.8,285.3,148.7,285.4,148.7,285.4z"/>
			<path class="st7" d="M148.8,285.3C148.8,285.3,148.8,285.3,148.8,285.3L148.8,285.3z"/>
			<path class="st7" d="M148.7,285.4C148.7,285.4,148.7,285.4,148.7,285.4C148.7,285.4,148.7,285.4,148.7,285.4z"/>
		</g>
		
			<rect x="127.6" y="241.8" transform="matrix(0.4889 -0.8723 0.8723 0.4889 -138.0879 252.7027)" class="st3" width="38.1" height="4.8"/>
		
			<rect x="110.2" y="253.6" transform="matrix(0.4889 -0.8723 0.8723 0.4889 -153.4972 246.9547)" class="st3" width="47.7" height="1.7"/>
		
			<rect x="137.2" y="281.9" transform="matrix(0.4889 -0.8723 0.8723 0.4889 -169.7796 278.8761)" class="st3" width="31.7" height="4.8"/>
		
			<rect x="145.6" y="276.3" transform="matrix(0.4889 -0.8723 0.8723 0.4889 -151.6782 298.5577)" class="st3" width="66.7" height="4.8"/>
		
			<rect x="162.5" y="285.8" transform="matrix(0.4889 -0.8723 0.8723 0.4889 -151.3036 318.1161)" class="st3" width="66.7" height="4.8"/>
		
			<rect x="136" y="256.2" transform="matrix(0.4889 -0.8723 0.8723 0.4889 -154.7932 253.0205)" class="st7" width="5" height="4.8"/>
		
			<rect x="144.1" y="293.6" transform="matrix(0.4889 -0.8723 0.8723 0.4889 -183.2963 279.141)" class="st8" width="5" height="4.8"/>
		
			<rect x="154.3" y="251.4" transform="matrix(0.4889 -0.8723 0.8723 0.4889 -134.4095 278.1992)" class="st3" width="31.7" height="4.8"/>
		
			<rect x="161.2" y="263.1" transform="matrix(0.4889 -0.8724 0.8724 0.4889 -147.9255 278.4663)" class="st7" width="5" height="4.8"/>
		
			<rect x="161.3" y="303.3" transform="matrix(0.4889 -0.8724 0.8724 0.4889 -182.9128 299.1685)" class="st8" width="5" height="4.8"/>
		
			<rect x="178.2" y="312.7" transform="matrix(0.4889 -0.8723 0.8723 0.4889 -182.538 318.7145)" class="st7" width="5" height="4.8"/>
		
			<rect x="131.9" y="245.8" transform="matrix(0.4889 -0.8723 0.8723 0.4889 -137.9926 257.6797)" class="st3" width="38.1" height="1.6"/>
		
			<rect x="135.4" y="247.8" transform="matrix(0.4889 -0.8723 0.8723 0.4889 -137.9146 261.7491)" class="st3" width="38.1" height="1.6"/>
		
			<rect x="138.9" y="249.7" transform="matrix(0.4889 -0.8723 0.8723 0.4889 -137.8367 265.8184)" class="st3" width="38.1" height="1.6"/>
		
			<rect x="142.4" y="251.7" transform="matrix(0.4889 -0.8723 0.8723 0.4889 -137.7588 269.8878)" class="st3" width="38.1" height="1.6"/>
		
			<rect x="142" y="286.2" transform="matrix(0.4889 -0.8723 0.8723 0.4889 -169.673 284.4388)" class="st3" width="31.7" height="1.6"/>
		
			<rect x="145.5" y="288.2" transform="matrix(0.4889 -0.8723 0.8723 0.4889 -169.5951 288.509)" class="st3" width="31.7" height="1.6"/>
		
			<rect x="149.1" y="290.1" transform="matrix(0.4889 -0.8723 0.8723 0.4889 -169.5172 292.5786)" class="st3" width="31.7" height="1.6"/>
		
			<rect x="159.1" y="255.7" transform="matrix(0.4889 -0.8723 0.8723 0.4889 -134.3029 283.7622)" class="st3" width="31.7" height="1.6"/>
		
			<rect x="162.7" y="257.6" transform="matrix(0.4889 -0.8723 0.8723 0.4889 -134.225 287.8319)" class="st3" width="31.7" height="1.6"/>
		
			<rect x="166.2" y="259.6" transform="matrix(0.4889 -0.8723 0.8723 0.4889 -134.147 291.9016)" class="st3" width="31.7" height="1.6"/>
		
			<rect x="150" y="280.4" transform="matrix(0.4889 -0.8723 0.8723 0.4889 -151.6118 303.747)" class="st3" width="66.7" height="1.6"/>
		
			<rect x="153.6" y="282.4" transform="matrix(0.4889 -0.8723 0.8723 0.4889 -151.5338 307.8167)" class="st3" width="66.7" height="1.6"/>
		
			<rect x="157.1" y="284.4" transform="matrix(0.4889 -0.8723 0.8723 0.4889 -151.4558 311.8868)" class="st3" width="66.7" height="1.6"/>
		
			<rect x="180.6" y="284" transform="matrix(0.4889 -0.8723 0.8723 0.4889 -143.1674 325.3039)" class="st3" width="50.8" height="1.6"/>
		
			<rect x="184.1" y="286" transform="matrix(0.4889 -0.8723 0.8723 0.4889 -143.0893 329.3742)" class="st3" width="50.8" height="1.6"/>
		
			<rect x="187.6" y="287.9" transform="matrix(0.4889 -0.8723 0.8723 0.4889 -143.0115 333.4427)" class="st3" width="50.8" height="1.6"/>
		
			<rect x="185.8" y="312" transform="matrix(0.4889 -0.8723 0.8723 0.4889 -179.0981 329.3871)" class="st7" width="11.4" height="11"/>
	</g>
</g>
<g>
	<path class="st9" d="M228.3,313.2v72.2c0,4-3.2,7.2-7.2,7.2H101.7c-4,0-7.2-3.2-7.2-7.2v-64.1h54.5l0.8-2.1
		c1.5-3.9,5.5-6.4,9.9-6.4h65.9C226.6,312.8,227.5,313,228.3,313.2z"/>
</g>
<path class="st3" d="M233.5,322.4l-5.2,65.4c0,4-3.2,7.2-7.2,7.2H101.7c-2.7,0-5.1-1.5-6.3-3.8c-0.6-1-0.9-2.2-0.9-3.4l-5.2-64.1
	h59.7l0.8-2.1c1.5-3.9,5.5-6.4,9.9-6.4h65.9c0.9,0,1.8,0.1,2.6,0.4C231.3,316.6,233.5,319.2,233.5,322.4z"/>
<path class="st3" d="M233.5,322.4l-5.2,65.4c0,4-3.2,7.2-7.2,7.2H101.7c-2.7,0-5.1-1.5-6.3-3.8l132.9-75.6
	C231.3,316.6,233.5,319.2,233.5,322.4z"/>
<path class="st3" d="M662.5,302.3v85.4c0,4-3.2,7.2-7.2,7.2H535.9c-4,0-7.2-3.2-7.2-7.2v-97.7c0-4,3.2-7.2,7.2-7.2h24.9
	c5.5,0,10.3,3.7,11.7,9l0.9,3.2h81.8C659.3,295.1,662.5,298.4,662.5,302.3z"/>
<g>
	<polygon class="st4" points="547.2,302.4 538.6,311.1 538.6,327.9 652.6,327.9 652.6,302.4 	"/>
	<polygon class="st5" points="547.2,311.1 547.2,302.4 538.6,311.1 	"/>
</g>
<g>
	<g>
		<polygon class="st10" points="643.9,282.3 602.5,309.8 562.2,336.6 538.7,301.2 520,273.1 601.6,218.8 		"/>
	</g>
	<g>
		<g>
			<g>
				<g>
					<path class="st8" d="M602.1,241.9c-0.2-0.4-0.4-0.8-0.7-1.2c-3-4.5-9-5.7-13.5-2.7c-0.7,0.5-1.4,1-1.9,1.7l7.3,6.4L602.1,241.9
						z"/>
				</g>
				<g>
					<path class="st3" d="M586,239.6c-2.4,2.7-3.1,6.5-1.8,9.9l9.1-3.4L586,239.6z"/>
				</g>
				<g>
					<path class="st7" d="M601.9,250.7c1.4-2.7,1.6-5.9,0.2-8.8l-8.8,4.2L601.9,250.7z"/>
				</g>
				<g>
					<path class="st8" d="M599.8,256.4c1.4-0.9,2.5-2.1,3.2-3.5l-8.6-4.6l-2.1,9.5C594.9,258.3,597.5,257.9,599.8,256.4z"/>
				</g>
				<g>
					<path class="st7" d="M584.2,249.5c0.3,0.7,0.6,1.3,1,2c1.5,2.2,3.6,3.6,6,4.1l2.1-9.5L584.2,249.5z"/>
				</g>
				<polyline class="st11" points="599.1,257.2 606.8,255.9 610,260.7 				"/>
				
					<rect x="608.9" y="255" transform="matrix(0.8326 -0.5539 0.5539 0.8326 -40.4811 380.7151)" class="st3" width="1.4" height="4.6"/>
				
					<rect x="610" y="245.9" transform="matrix(0.8326 -0.5539 0.5539 0.8326 -35.2367 379.8118)" class="st3" width="1.4" height="4.6"/>
				
					<rect x="597.7" y="227.4" transform="matrix(0.8326 -0.5539 0.5539 0.8326 -27.0312 369.8997)" class="st3" width="1.4" height="4.6"/>
				
					<rect x="578.5" y="239.1" transform="matrix(0.8326 -0.5539 0.5539 0.8326 -36.7055 361.2237)" class="st3" width="1.4" height="4.6"/>
				
					<rect x="589.7" y="258" transform="matrix(0.8326 -0.5539 0.5539 0.8326 -45.3056 370.5689)" class="st3" width="1.4" height="4.6"/>
				<polyline class="st11" points="603.2,246.6 607.9,246.7 611.1,251.6 				"/>
				<polyline class="st11" points="597,236.9 598.9,233.2 595.5,228.2 				"/>
				<polyline class="st11" points="583.3,245.4 579.9,244.9 576.3,239.6 				"/>
				<polyline class="st11" points="588.6,254.8 587.3,258.2 590.6,263.3 				"/>
			</g>
			<g>
				
					<rect x="626.2" y="254.5" transform="matrix(0.8326 -0.5539 0.5539 0.8326 -45.022 392.4054)" class="st3" width="0.9" height="32.3"/>
				
					<rect x="623.5" y="256.3" transform="matrix(0.8326 -0.5539 0.5539 0.8326 -46.4677 391.2105)" class="st3" width="0.9" height="32.3"/>
				
					<rect x="620.8" y="258.1" transform="matrix(0.8326 -0.5539 0.5539 0.8326 -47.9132 390.0156)" class="st3" width="0.9" height="32.3"/>
				
					<rect x="618.1" y="259.9" transform="matrix(0.8326 -0.5539 0.5539 0.8326 -49.3584 388.823)" class="st3" width="0.9" height="32.3"/>
				
					<rect x="615.4" y="261.7" transform="matrix(0.8326 -0.5539 0.5539 0.8326 -50.8035 387.6311)" class="st3" width="0.9" height="32.3"/>
				
					<rect x="612.7" y="263.5" transform="matrix(0.8326 -0.5539 0.5539 0.8326 -52.2489 386.4375)" class="st3" width="0.9" height="32.3"/>
				
					<rect x="610" y="265.3" transform="matrix(0.8326 -0.5539 0.5539 0.8326 -53.6943 385.2439)" class="st3" width="0.9" height="32.3"/>
				
					<rect x="607.3" y="267.1" transform="matrix(0.8326 -0.5539 0.5539 0.8326 -55.1396 384.0504)" class="st3" width="0.9" height="32.3"/>
				
					<rect x="604.6" y="268.9" transform="matrix(0.8326 -0.5539 0.5539 0.8326 -56.5853 382.855)" class="st3" width="0.9" height="32.3"/>
			</g>
		</g>
		<g>
			<g>
				
					<rect x="571.7" y="289.5" transform="matrix(0.8326 -0.5539 0.5539 0.8326 -73.9154 368.0369)" class="st3" width="0.5" height="33.7"/>
				
					<rect x="570.2" y="290.4" transform="matrix(0.8326 -0.5539 0.5539 0.8326 -74.6851 367.4003)" class="st3" width="0.5" height="33.7"/>
				
					<rect x="568.8" y="291.4" transform="matrix(0.8326 -0.5539 0.5539 0.8326 -75.4547 366.7659)" class="st3" width="0.5" height="33.7"/>
				
					<rect x="567.4" y="292.3" transform="matrix(0.8326 -0.5539 0.5539 0.8326 -76.2245 366.1291)" class="st3" width="0.5" height="33.7"/>
				
					<rect x="565.9" y="293.3" transform="matrix(0.8326 -0.5539 0.5539 0.8326 -76.9939 365.4962)" class="st3" width="0.5" height="33.7"/>
				
					<rect x="564.5" y="294.2" transform="matrix(0.8326 -0.5539 0.5539 0.8326 -77.7637 364.859)" class="st3" width="0.5" height="33.7"/>
				
					<rect x="563" y="295.2" transform="matrix(0.8326 -0.5539 0.5539 0.8326 -78.5334 364.2234)" class="st3" width="0.5" height="33.7"/>
				
					<rect x="561.6" y="296.2" transform="matrix(0.8326 -0.5539 0.5539 0.8326 -79.303 363.5878)" class="st3" width="0.5" height="33.7"/>
				
					<rect x="560.2" y="297.1" transform="matrix(0.8326 -0.5539 0.5539 0.8326 -80.0727 362.9522)" class="st3" width="0.5" height="33.7"/>
				
					<rect x="558.7" y="298.1" transform="matrix(0.8326 -0.5539 0.5539 0.8326 -80.8424 362.3166)" class="st3" width="0.5" height="33.7"/>
				
					<rect x="557.3" y="299" transform="matrix(0.8326 -0.5539 0.5539 0.8326 -81.6122 361.6793)" class="st3" width="0.5" height="33.7"/>
			</g>
			<g>
				<g>
					
						<rect x="528.6" y="267.5" transform="matrix(0.8326 -0.5539 0.5539 0.8326 -59.9509 342.4733)" class="st3" width="15.9" height="5.8"/>
				</g>
				<g>
					
						<rect x="532.4" y="274.3" transform="matrix(0.8326 -0.5539 0.5539 0.8326 -63.6514 343.7504)" class="st12" width="8.8" height="5.8"/>
				</g>
				<g>
					
						<rect x="535.5" y="278.8" transform="matrix(0.8326 -0.5539 0.5539 0.8326 -65.5053 346.5472)" class="st3" width="10.1" height="5.8"/>
				</g>
				<g>
					
						<rect x="539.1" y="284.7" transform="matrix(0.8326 -0.5539 0.5539 0.8326 -68.5884 348.3317)" class="st8" width="5.8" height="5.8"/>
				</g>
				<g>
					
						<rect x="541.6" y="287.3" transform="matrix(0.8326 -0.5539 0.5539 0.8326 -68.9034 352.3967)" class="st7" width="13.9" height="5.8"/>
				</g>
			</g>
		</g>
		<g>
			
				<rect x="584.9" y="240.4" transform="matrix(0.8327 -0.5537 0.5537 0.8327 -54.4647 370.3876)" class="st3" width="1.7" height="69.9"/>
			
				<rect x="583.1" y="241.6" transform="matrix(0.8327 -0.5537 0.5537 0.8327 -55.4268 369.5905)" class="st3" width="1.7" height="69.9"/>
			
				<rect x="581.3" y="242.8" transform="matrix(0.8327 -0.5537 0.5537 0.8327 -56.3886 368.796)" class="st3" width="1.7" height="69.9"/>
			
				<rect x="567.1" y="252.3" transform="matrix(0.8327 -0.5537 0.5537 0.8327 -64.0105 362.4903)" class="st3" width="1.7" height="69.9"/>
			
				<rect x="582.6" y="257.3" transform="matrix(0.8327 -0.5537 0.5537 0.8327 -60.355 370.7574)" class="st3" width="1.7" height="56"/>
			
				<rect x="562.3" y="250.9" transform="matrix(0.8327 -0.5537 0.5537 0.8327 -46.903 354.4422)" class="st12" width="1.7" height="7.9"/>
			
				<rect x="560.2" y="252.3" transform="matrix(0.8327 -0.5537 0.5537 0.8327 -48.0377 353.5029)" class="st8" width="1.7" height="7.9"/>
			
				<rect x="558.1" y="253.7" transform="matrix(0.8327 -0.5537 0.5537 0.8327 -49.1705 352.5757)" class="st7" width="1.7" height="7.9"/>
			
				<rect x="556" y="255.1" transform="matrix(0.8327 -0.5537 0.5537 0.8327 -50.3052 351.6371)" class="st3" width="1.7" height="7.9"/>
			
				<rect x="553.9" y="256.6" transform="matrix(0.8327 -0.5537 0.5537 0.8327 -51.4398 350.6984)" class="st3" width="1.7" height="7.9"/>
			
				<rect x="580.4" y="258.7" transform="matrix(0.8327 -0.5537 0.5537 0.8327 -61.4896 369.8187)" class="st3" width="1.7" height="56"/>
			
				<rect x="578.3" y="260.1" transform="matrix(0.8327 -0.5537 0.5537 0.8327 -62.6242 368.8789)" class="st3" width="1.7" height="56"/>
			
				<rect x="576.2" y="261.5" transform="matrix(0.8327 -0.5537 0.5537 0.8327 -63.7587 367.9413)" class="st3" width="1.7" height="56"/>
			
				<rect x="574.1" y="262.9" transform="matrix(0.8327 -0.5537 0.5537 0.8327 -64.8933 367.0022)" class="st3" width="1.7" height="56"/>
		</g>
	</g>
</g>
<g>
	<path class="st9" d="M662.5,313.2v72.2c0,4-3.2,7.2-7.2,7.2H535.9c-4,0-7.2-3.2-7.2-7.2v-64.1h54.5l0.8-2.1
		c1.5-3.9,5.5-6.4,9.9-6.4h65.9C660.8,312.8,661.7,313,662.5,313.2z"/>
</g>
<path class="st3" d="M667.7,322.4l-5.2,65.4c0,4-3.2,7.2-7.2,7.2H535.9c-2.7,0-5.1-1.5-6.3-3.8c-0.6-1-0.9-2.2-0.9-3.4l-5.2-64.1
	h59.7l0.8-2.1c1.5-3.9,5.5-6.4,9.9-6.4h65.9c0.9,0,1.8,0.1,2.6,0.4C665.5,316.6,667.7,319.2,667.7,322.4z"/>
<path class="st3" d="M667.7,322.4l-5.2,65.4c0,4-3.2,7.2-7.2,7.2H535.9c-2.7,0-5.1-1.5-6.3-3.8l132.9-75.6
	C665.5,316.6,667.7,319.2,667.7,322.4z"/>
<g>
	<g>
		<polygon class="st10" points="565.9,184.6 509.6,264.8 487.6,249.4 447.1,221 474.9,181.4 476,179.9 503.5,140.7 		"/>
	</g>
</g>
<g>
	<path class="st8" d="M528.9,182.8l-7,3.1c2,2.6,2.3,6.2,0.3,9.1c-0.9,1.4-2.3,2.3-3.7,2.8l0.7,7.6c3.6-0.8,6.9-2.8,9.2-6.1
		C531.9,194.3,531.9,187.8,528.9,182.8z"/>
	<path class="st12" d="M519.9,183.7c0.6,0.4,1.1,0.9,1.6,1.5l7-3.1c-1.1-1.7-2.5-3.3-4.2-4.5c-6.8-4.8-16.3-3.2-21.1,3.7l6.2,4.3
		C511.8,182.2,516.5,181.3,519.9,183.7z"/>
	<path class="st7" d="M511.1,196.9c-0.1,0-0.1-0.1-0.2-0.2l-5.1,5.6c0.3,0.2,0.6,0.5,0.9,0.7c3.6,2.5,7.9,3.3,11.9,2.4l-0.7-7.6
		C515.7,198.6,513.2,198.4,511.1,196.9z"/>
	<path class="st3" d="M509,186.2l-6.2-4.3c-4.6,6.5-3.3,15.4,2.8,20.4l5.1-5.6C507.4,194.1,506.6,189.5,509,186.2z"/>
	<g>
		<polygon class="st3" points="534,189.4 533.8,188.8 542.4,186.9 550.5,192.5 550.1,193.1 542.3,187.6 		"/>
		<polygon class="st3" points="526.2,221.3 517.2,215 514.4,207.6 515,207.3 517.7,214.6 526.6,220.8 		"/>
		<g>
			
				<rect x="544.5" y="186.6" transform="matrix(0.8184 0.5747 -0.5747 0.8184 207.0083 -281.0583)" class="st3" width="7.3" height="0.7"/>
			
				<rect x="543.7" y="187.4" transform="matrix(0.8184 0.5747 -0.5747 0.8184 207.0738 -279.7639)" class="st3" width="4.9" height="0.7"/>
		</g>
		<g>
			
				<rect x="520.4" y="214.7" transform="matrix(0.8184 0.5747 -0.5747 0.8184 218.7331 -262.0963)" class="st3" width="7.3" height="0.7"/>
			
				<rect x="519.6" y="215.4" transform="matrix(0.8184 0.5747 -0.5747 0.8184 218.8011 -260.8038)" class="st3" width="4.9" height="0.7"/>
			
				<rect x="521.4" y="213.2" transform="matrix(0.8184 0.5747 -0.5747 0.8184 218.0791 -262.9417)" class="st3" width="7.3" height="0.7"/>
		</g>
	</g>
	<g>
		<polygon class="st3" points="509.8,172.4 510.5,172.3 509.3,163.6 501.2,157.9 500.8,158.5 508.7,164 		"/>
		<polygon class="st3" points="482.4,190.6 491.4,196.9 499.4,197 499.4,196.3 491.6,196.2 482.8,190 		"/>
		<g>
			
				<rect x="503.6" y="157.9" transform="matrix(-0.8184 -0.5747 0.5747 -0.8184 831.4359 579.2502)" class="st3" width="7.3" height="0.7"/>
			
				<rect x="504.8" y="160" transform="matrix(-0.8184 -0.5747 0.5747 -0.8184 830.1481 583.1414)" class="st3" width="4.9" height="0.7"/>
		</g>
		<g>
			
				<rect x="485.4" y="190.1" transform="matrix(-0.8184 -0.5747 0.5747 -0.8184 779.886 627.4165)" class="st3" width="7.3" height="0.7"/>
			
				<rect x="486.6" y="192.3" transform="matrix(-0.8184 -0.5747 0.5747 -0.8184 778.6031 631.304)" class="st3" width="4.9" height="0.7"/>
			
				<rect x="486.4" y="188.7" transform="matrix(-0.8184 -0.5747 0.5747 -0.8184 782.5768 625.3607)" class="st3" width="7.3" height="0.7"/>
		</g>
	</g>
</g>
<g>
	
		<rect x="504.7" y="166.4" transform="matrix(0.8184 0.5747 -0.5747 0.8184 193.2023 -277.3907)" class="st3" width="61.5" height="1.1"/>
	
		<rect x="497.8" y="166.5" transform="matrix(0.8184 0.5747 -0.5747 0.8184 192.5268 -275.1939)" class="st3" width="67.7" height="1.1"/>
	
		<rect x="496.5" y="168.3" transform="matrix(0.8184 0.5747 -0.5747 0.8184 193.3373 -274.1326)" class="st3" width="67.7" height="1.1"/>
</g>
<g>
	<g>
		
			<rect x="506.1" y="221.2" transform="matrix(0.8184 0.5747 -0.5747 0.8184 221.7151 -257.9618)" class="st3" width="25.8" height="1.2"/>
		
			<rect x="498.8" y="221.4" transform="matrix(0.8184 0.5747 -0.5747 0.8184 221.0605 -255.618)" class="st3" width="32.2" height="1.2"/>
		
			<rect x="497.5" y="223.3" transform="matrix(0.8184 0.5747 -0.5747 0.8184 221.9487 -254.4532)" class="st3" width="32.2" height="1.2"/>
		
			<rect x="496.1" y="225.3" transform="matrix(0.8184 0.5747 -0.5747 0.8184 222.8386 -253.2894)" class="st3" width="32.2" height="1.2"/>
		
			<rect x="494.7" y="227.3" transform="matrix(0.8184 0.5747 -0.5747 0.8184 223.7288 -252.1258)" class="st3" width="32.2" height="1.2"/>
		
			<rect x="493.3" y="229.3" transform="matrix(0.8184 0.5747 -0.5747 0.8184 224.6172 -250.9611)" class="st3" width="32.2" height="1.2"/>
		
			<rect x="492.6" y="229.1" transform="matrix(0.8184 0.5747 -0.5747 0.8184 223.6599 -248.3858)" class="st3" width="24.5" height="1.2"/>
	</g>
	<g>
		
			<rect x="476.8" y="200.6" transform="matrix(0.8184 0.5747 -0.5747 0.8184 204.574 -244.8636)" class="st3" width="25.8" height="1.2"/>
		
			<rect x="469.6" y="200.8" transform="matrix(0.8184 0.5747 -0.5747 0.8184 203.9207 -242.5206)" class="st3" width="32.2" height="1.2"/>
		
			<rect x="468.2" y="202.8" transform="matrix(0.8184 0.5747 -0.5747 0.8184 204.8102 -241.3566)" class="st3" width="32.2" height="1.2"/>
		
			<rect x="466.8" y="204.8" transform="matrix(0.8184 0.5747 -0.5747 0.8184 205.6987 -240.1919)" class="st3" width="32.2" height="1.2"/>
		
			<rect x="465.4" y="206.8" transform="matrix(0.8184 0.5747 -0.5747 0.8184 206.5892 -239.0285)" class="st3" width="32.2" height="1.2"/>
		
			<rect x="464" y="208.7" transform="matrix(0.8184 0.5747 -0.5747 0.8184 207.4775 -237.8638)" class="st3" width="32.2" height="1.2"/>
		
			<rect x="464.5" y="204.5" transform="matrix(0.8184 0.5747 -0.5747 0.8184 203.1606 -232.7213)" class="st3" width="10.5" height="1.2"/>
	</g>
</g>
<g>
	
		<rect x="454.7" y="215.3" transform="matrix(0.8184 0.5747 -0.5747 0.8184 208.3724 -222.9483)" class="st7" width="4.5" height="5.9"/>
	
		<rect x="459.7" y="217.5" transform="matrix(0.8184 0.5747 -0.5747 0.8184 210.9164 -225.3385)" class="st7" width="4.5" height="7"/>
	
		<rect x="465.3" y="218.2" transform="matrix(0.8184 0.5747 -0.5747 0.8184 213.1663 -228.1494)" class="st7" width="4.5" height="9.9"/>
	
		<rect x="468.6" y="226" transform="matrix(0.8184 0.5747 -0.5747 0.8184 216.8246 -229.0649)" class="st7" width="4.5" height="5"/>
	
		<rect x="474.9" y="224.3" transform="matrix(0.8184 0.5747 -0.5747 0.8184 218.5817 -232.4945)" class="st7" width="4.5" height="10.5"/>
	
		<rect x="480" y="226.4" transform="matrix(0.8184 0.5747 -0.5747 0.8184 221.104 -234.9396)" class="st7" width="4.5" height="11.8"/>
	
		<rect x="485" y="228.8" transform="matrix(0.8184 0.5747 -0.5747 0.8184 223.6706 -237.3091)" class="st7" width="4.5" height="12.9"/>
	
		<rect x="489.3" y="233.6" transform="matrix(0.8184 0.5747 -0.5747 0.8184 226.7392 -239.0064)" class="st7" width="4.5" height="11.2"/>
	
		<rect x="495.2" y="233.3" transform="matrix(0.8184 0.5747 -0.5747 0.8184 228.7603 -242.0905)" class="st7" width="4.5" height="15.3"/>
	
		<rect x="499.6" y="237.6" transform="matrix(0.8184 0.5747 -0.5747 0.8184 231.7446 -243.9413)" class="st7" width="4.5" height="14.1"/>
	
		<rect x="503.9" y="242" transform="matrix(0.8184 0.5747 -0.5747 0.8184 234.7267 -245.7575)" class="st7" width="4.5" height="12.9"/>
	
		<rect x="509.2" y="243.7" transform="matrix(0.8184 0.5747 -0.5747 0.8184 237.1479 -248.3131)" class="st7" width="4.5" height="14.8"/>
</g>
<g>
	<g>
		
			<rect x="212.1" y="147" transform="matrix(-0.8382 0.5454 -0.5454 -0.8382 567.2812 225.3851)" class="st6" width="76.2" height="99.7"/>
	</g>
</g>
<g>
	<path class="st7" d="M296.6,214.1c0.5-2.3,0.2-4.8-1.2-7c-2.3-3.5-6.6-4.9-10.3-3.7l2.8,8.6L296.6,214.1z"/>
	<path class="st7" d="M293.8,220.1c1.7-1.3,2.9-3.1,3.4-5.1l-8.8-2.1L293.8,220.1z"/>
	<path class="st7" d="M287.6,212.6l-2.8-8.6c-0.7,0.2-1.5,0.6-2.2,1c-4.2,2.7-5.4,8.3-2.6,12.5c2.7,4.2,8.3,5.4,12.5,2.6
		c0.2-0.1,0.3-0.2,0.5-0.4L287.6,212.6z"/>
</g>
<g>
	
		<rect x="285.1" y="192.3" transform="matrix(0.5455 0.8381 -0.8381 0.5455 292.0038 -152.3215)" class="st7" width="2.7" height="1.5"/>
	
		<rect x="283.1" y="193.6" transform="matrix(0.5455 0.8381 -0.8381 0.5455 292.1834 -150.083)" class="st7" width="2.7" height="1.5"/>
	
		<rect x="281.1" y="194.9" transform="matrix(0.5455 0.8381 -0.8381 0.5455 292.3629 -147.8445)" class="st8" width="2.7" height="1.5"/>
	
		<rect x="286" y="196.9" transform="matrix(0.5455 0.8381 -0.8381 0.5455 296.6301 -152.3286)" class="st3" width="5.4" height="0.8"/>
	
		<rect x="284.1" y="198.2" transform="matrix(0.5455 0.8381 -0.8381 0.5455 296.8045 -150.0902)" class="st3" width="5.4" height="0.8"/>
	
		<rect x="282.1" y="199.5" transform="matrix(0.5455 0.8381 -0.8381 0.5455 296.9892 -147.8515)" class="st3" width="5.4" height="0.8"/>
</g>
<g>
	<g>
		<g>
			
				<rect x="225.6" y="164.1" transform="matrix(0.8381 -0.5455 0.5455 0.8381 -57.2601 150.9578)" class="st3" width="0.3" height="15.8"/>
		</g>
		<g>
			
				<rect x="222.8" y="165.9" transform="matrix(0.8381 -0.5455 0.5455 0.8381 -58.7162 149.718)" class="st3" width="0.3" height="15.8"/>
		</g>
		<g>
			
				<rect x="219.9" y="167.7" transform="matrix(0.8381 -0.5455 0.5455 0.8381 -60.1724 148.4791)" class="st3" width="0.3" height="15.8"/>
		</g>
		<g>
			
				<rect x="217.1" y="169.6" transform="matrix(0.8381 -0.5455 0.5455 0.8381 -61.6287 147.2391)" class="st3" width="0.3" height="15.8"/>
		</g>
		<g>
			
				<rect x="214.3" y="171.4" transform="matrix(0.8381 -0.5455 0.5455 0.8381 -63.0848 145.9992)" class="st3" width="0.3" height="15.8"/>
		</g>
		<g>
			
				<rect x="211.5" y="173.2" transform="matrix(0.8381 -0.5455 0.5455 0.8381 -64.5407 144.7579)" class="st3" width="0.3" height="15.8"/>
		</g>
		<g>
			
				<rect x="208.7" y="175.1" transform="matrix(0.8381 -0.5455 0.5455 0.8381 -65.9971 143.5183)" class="st3" width="0.3" height="15.8"/>
		</g>
		
			<rect x="219.2" y="162.5" transform="matrix(0.5455 0.8381 -0.8381 0.5455 237.1793 -110.8341)" class="st3" width="3.2" height="1.5"/>
		
			<rect x="216.3" y="164.3" transform="matrix(0.5455 0.8381 -0.8381 0.5455 237.4355 -107.6397)" class="st3" width="3.2" height="1.5"/>
		
			<rect x="213.5" y="166.2" transform="matrix(0.5455 0.8381 -0.8381 0.5455 237.6917 -104.4453)" class="st3" width="3.2" height="1.5"/>
		
			<rect x="210.7" y="168" transform="matrix(0.5455 0.8381 -0.8381 0.5455 237.9479 -101.2509)" class="st3" width="3.2" height="1.5"/>
		
			<rect x="207.9" y="169.8" transform="matrix(0.5455 0.8381 -0.8381 0.5455 238.2041 -98.0565)" class="st3" width="3.2" height="1.5"/>
		
			<rect x="205.1" y="171.7" transform="matrix(0.5455 0.8381 -0.8381 0.5455 238.4603 -94.8621)" class="st3" width="3.2" height="1.5"/>
		
			<rect x="202.3" y="173.5" transform="matrix(0.5455 0.8381 -0.8381 0.5455 238.7165 -91.6677)" class="st3" width="3.2" height="1.5"/>
	</g>
	
		<rect x="225.2" y="170.4" transform="matrix(0.5455 0.8381 -0.8381 0.5455 247.0081 -113.4982)" class="st3" width="5.9" height="1.3"/>
</g>
<g>
	
		<rect x="205.5" y="173.9" transform="matrix(0.5455 0.8381 -0.8381 0.5455 242.2188 -92.4949)" class="st8" width="1.8" height="6.4"/>
	
		<rect x="207.5" y="174.9" transform="matrix(0.5455 0.8381 -0.8381 0.5455 244.5439 -93.3502)" class="st8" width="1.8" height="7.8"/>
	
		<rect x="210.6" y="173.7" transform="matrix(0.5455 0.8381 -0.8381 0.5455 246.7625 -95.5347)" class="st8" width="1.8" height="12"/>
	
		<rect x="211.3" y="177" transform="matrix(0.5455 0.8381 -0.8381 0.5455 249.1999 -94.9909)" class="st8" width="1.8" height="10.5"/>
	
		<rect x="214.5" y="175.7" transform="matrix(0.5455 0.8381 -0.8381 0.5455 251.4081 -97.3036)" class="st8" width="1.8" height="14.9"/>
	
		<rect x="216.9" y="175.8" transform="matrix(0.5455 0.8381 -0.8381 0.5455 253.6912 -98.6836)" class="st8" width="1.8" height="17.4"/>
</g>
<g>
	<g>
		<g>
			<g>
				
					<rect x="237.6" y="182.6" transform="matrix(0.8381 -0.5455 0.5455 0.8381 -65.4056 160.5239)" class="st3" width="0.3" height="15.8"/>
			</g>
			<g>
				
					<rect x="234.8" y="184.4" transform="matrix(0.8381 -0.5455 0.5455 0.8381 -66.8617 159.284)" class="st3" width="0.3" height="15.8"/>
			</g>
			<g>
				
					<rect x="232" y="186.3" transform="matrix(0.8381 -0.5455 0.5455 0.8381 -68.3178 158.0442)" class="st3" width="0.3" height="15.8"/>
			</g>
			<g>
				
					<rect x="229.2" y="188.1" transform="matrix(0.8381 -0.5455 0.5455 0.8381 -69.7741 156.8041)" class="st3" width="0.3" height="15.8"/>
			</g>
			<g>
				
					<rect x="226.3" y="189.9" transform="matrix(0.8381 -0.5455 0.5455 0.8381 -71.2303 155.5653)" class="st3" width="0.3" height="15.8"/>
			</g>
			<g>
				
					<rect x="223.5" y="191.8" transform="matrix(0.8381 -0.5455 0.5455 0.8381 -72.6864 154.3254)" class="st3" width="0.3" height="15.8"/>
			</g>
			<g>
				
					<rect x="220.7" y="193.6" transform="matrix(0.8381 -0.5455 0.5455 0.8381 -74.1426 153.0844)" class="st3" width="0.3" height="15.8"/>
			</g>
			
				<rect x="231.2" y="181" transform="matrix(0.5455 0.8381 -0.8381 0.5455 258.1655 -112.5173)" class="st3" width="3.2" height="1.5"/>
			
				<rect x="228.4" y="182.8" transform="matrix(0.5455 0.8381 -0.8381 0.5455 258.4219 -109.3228)" class="st3" width="3.2" height="1.5"/>
			
				<rect x="225.6" y="184.7" transform="matrix(0.5455 0.8381 -0.8381 0.5455 258.6779 -106.1285)" class="st3" width="3.2" height="1.5"/>
			
				<rect x="222.8" y="186.5" transform="matrix(0.5455 0.8381 -0.8381 0.5455 258.9341 -102.9341)" class="st3" width="3.2" height="1.5"/>
			
				<rect x="219.9" y="188.3" transform="matrix(0.5455 0.8381 -0.8381 0.5455 259.1903 -99.7397)" class="st3" width="3.2" height="1.5"/>
			
				<rect x="217.1" y="190.2" transform="matrix(0.5455 0.8381 -0.8381 0.5455 259.4465 -96.5453)" class="st3" width="3.2" height="1.5"/>
			
				<rect x="214.3" y="192" transform="matrix(0.5455 0.8381 -0.8381 0.5455 259.7027 -93.3509)" class="st3" width="3.2" height="1.5"/>
		</g>
		
			<rect x="237.2" y="188.9" transform="matrix(0.5455 0.8381 -0.8381 0.5455 267.9941 -115.1815)" class="st3" width="5.9" height="1.3"/>
	</g>
	<g>
		
			<rect x="217.5" y="192.4" transform="matrix(0.5455 0.8381 -0.8381 0.5455 263.2051 -94.1781)" class="st7" width="1.8" height="6.4"/>
		
			<rect x="219.5" y="193.4" transform="matrix(0.5455 0.8381 -0.8381 0.5455 265.5303 -95.0334)" class="st7" width="1.8" height="7.8"/>
		
			<rect x="221.6" y="194.1" transform="matrix(0.5455 0.8381 -0.8381 0.5455 267.8414 -96.0636)" class="st7" width="1.8" height="9.6"/>
		
			<rect x="222.7" y="196.7" transform="matrix(0.5455 0.8381 -0.8381 0.5455 270.2437 -95.957)" class="st7" width="1.8" height="8.9"/>
		
			<rect x="226.6" y="194.2" transform="matrix(0.5455 0.8381 -0.8381 0.5455 272.3945 -98.9868)" class="st7" width="1.8" height="14.9"/>
		
			<rect x="230.3" y="191.9" transform="matrix(0.5455 0.8381 -0.8381 0.5455 274.556 -101.8825)" class="st7" width="1.8" height="20.6"/>
	</g>
</g>
<g>
	<g>
		<g>
			<g>
				
					<rect x="249.3" y="200.6" transform="matrix(0.8381 -0.5455 0.5455 0.8381 -73.3158 169.8136)" class="st3" width="0.3" height="15.8"/>
			</g>
			<g>
				
					<rect x="246.5" y="202.4" transform="matrix(0.8381 -0.5455 0.5455 0.8381 -74.7718 168.5737)" class="st3" width="0.3" height="15.8"/>
			</g>
			<g>
				
					<rect x="243.7" y="204.2" transform="matrix(0.8381 -0.5455 0.5455 0.8381 -76.2281 167.335)" class="st3" width="0.3" height="15.8"/>
			</g>
			<g>
				
					<rect x="240.9" y="206.1" transform="matrix(0.8381 -0.5455 0.5455 0.8381 -77.6844 166.0949)" class="st3" width="0.3" height="15.8"/>
			</g>
			<g>
				
					<rect x="238" y="207.9" transform="matrix(0.8381 -0.5455 0.5455 0.8381 -79.1404 164.8539)" class="st3" width="0.3" height="15.8"/>
			</g>
			<g>
				
					<rect x="235.2" y="209.7" transform="matrix(0.8381 -0.5455 0.5455 0.8381 -80.5964 163.6141)" class="st3" width="0.3" height="15.8"/>
			</g>
			<g>
				
					<rect x="232.4" y="211.6" transform="matrix(0.8381 -0.5455 0.5455 0.8381 -82.0527 162.374)" class="st3" width="0.3" height="15.8"/>
			</g>
			
				<rect x="242.9" y="199" transform="matrix(0.5455 0.8381 -0.8381 0.5455 278.5455 -114.1518)" class="st3" width="3.2" height="1.5"/>
			
				<rect x="240.1" y="200.8" transform="matrix(0.5455 0.8381 -0.8381 0.5455 278.8017 -110.9575)" class="st3" width="3.2" height="1.5"/>
			
				<rect x="237.3" y="202.7" transform="matrix(0.5455 0.8381 -0.8381 0.5455 279.0579 -107.7631)" class="st3" width="3.2" height="1.5"/>
			
				<rect x="234.4" y="204.5" transform="matrix(0.5455 0.8381 -0.8381 0.5455 279.3143 -104.5686)" class="st3" width="3.2" height="1.5"/>
			
				<rect x="231.6" y="206.3" transform="matrix(0.5455 0.8381 -0.8381 0.5455 279.5705 -101.3743)" class="st3" width="3.2" height="1.5"/>
			
				<rect x="228.8" y="208.2" transform="matrix(0.5455 0.8381 -0.8381 0.5455 279.8265 -98.1799)" class="st3" width="3.2" height="1.5"/>
			
				<rect x="226" y="210" transform="matrix(0.5455 0.8381 -0.8381 0.5455 280.0827 -94.9855)" class="st3" width="3.2" height="1.5"/>
		</g>
		
			<rect x="248.9" y="206.8" transform="matrix(0.5455 0.8381 -0.8381 0.5455 288.3739 -116.8161)" class="st3" width="5.9" height="1.3"/>
	</g>
	<g>
		
			<rect x="229.2" y="210.4" transform="matrix(0.5455 0.8381 -0.8381 0.5455 283.5757 -95.8142)" class="st13" width="1.8" height="6.4"/>
		
			<rect x="230.4" y="212.9" transform="matrix(0.5455 0.8381 -0.8381 0.5455 285.9865 -95.7235)" class="st13" width="1.8" height="5.8"/>
		
			<rect x="234.1" y="210.6" transform="matrix(0.5455 0.8381 -0.8381 0.5455 288.1485 -98.6075)" class="st13" width="1.8" height="11.5"/>
		
			<rect x="236.6" y="210.6" transform="matrix(0.5455 0.8381 -0.8381 0.5455 290.4246 -100.075)" class="st13" width="1.8" height="14.2"/>
		
			<rect x="239.5" y="210" transform="matrix(0.5455 0.8381 -0.8381 0.5455 292.6666 -101.9622)" class="st13" width="1.8" height="17.7"/>
		
			<rect x="239.7" y="214.1" transform="matrix(0.5455 0.8381 -0.8381 0.5455 295.1451 -100.9112)" class="st13" width="1.8" height="15.1"/>
	</g>
</g>
<g>
	<g>
		<g>
			
				<rect x="262.4" y="218.4" transform="matrix(0.8381 -0.5455 0.5455 0.8381 -82.1335 180.1692)" class="st3" width="0.3" height="20.1"/>
		</g>
		<g>
			
				<rect x="259.5" y="220.3" transform="matrix(0.8381 -0.5455 0.5455 0.8381 -83.5896 178.9294)" class="st3" width="0.3" height="20.1"/>
		</g>
		<g>
			
				<rect x="256.7" y="222.1" transform="matrix(0.8381 -0.5455 0.5455 0.8381 -85.0457 177.6895)" class="st3" width="0.3" height="20.1"/>
		</g>
		<g>
			
				<rect x="253.9" y="223.9" transform="matrix(0.8381 -0.5455 0.5455 0.8381 -86.5022 176.4504)" class="st3" width="0.3" height="20.1"/>
		</g>
		<g>
			
				<rect x="251.1" y="225.8" transform="matrix(0.8381 -0.5455 0.5455 0.8381 -87.9581 175.2096)" class="st3" width="0.3" height="20.1"/>
		</g>
		<g>
			
				<rect x="248.3" y="227.6" transform="matrix(0.8381 -0.5455 0.5455 0.8381 -89.4142 173.9697)" class="st3" width="0.3" height="20.1"/>
		</g>
		<g>
			
				<rect x="245.4" y="229.4" transform="matrix(0.8381 -0.5455 0.5455 0.8381 -90.8705 172.7297)" class="st3" width="0.3" height="20.1"/>
		</g>
		
			<rect x="254.9" y="217.3" transform="matrix(0.5455 0.8381 -0.8381 0.5455 299.339 -115.8194)" class="st3" width="3" height="1.5"/>
		
			<rect x="252.1" y="219.2" transform="matrix(0.5455 0.8381 -0.8381 0.5455 299.5948 -112.6251)" class="st3" width="3" height="1.5"/>
		
			<rect x="249.3" y="221" transform="matrix(0.5455 0.8381 -0.8381 0.5455 299.8513 -109.4306)" class="st3" width="3" height="1.5"/>
		
			<rect x="246.5" y="222.8" transform="matrix(0.5455 0.8381 -0.8381 0.5455 300.1076 -106.2362)" class="st3" width="3" height="1.5"/>
		
			<rect x="243.7" y="224.7" transform="matrix(0.5455 0.8381 -0.8381 0.5455 300.3638 -103.0419)" class="st3" width="3" height="1.5"/>
		
			<rect x="240.8" y="226.5" transform="matrix(0.5455 0.8381 -0.8381 0.5455 300.62 -99.8474)" class="st3" width="3" height="1.5"/>
		<rect x="238" y="228.3" transform="matrix(0.5455 0.8381 -0.8381 0.5455 300.8762 -96.653)" class="st3" width="3" height="1.5"/>
	</g>
	
		<rect x="260.7" y="224.6" transform="matrix(0.5455 0.8381 -0.8381 0.5455 308.5405 -118.433)" class="st3" width="5.5" height="1.3"/>
</g>
<g>
	<g>
		<polygon class="st3" points="241.8,231.2 242,230.7 244.8,231.5 247.6,236.3 252.6,237.6 254.3,240.4 260.5,241.2 260.4,241.8 
			253.9,240.9 252.2,238.1 247.2,236.8 244.4,232 		"/>
	</g>
	<g>
		<polygon class="st8" points="250.3,238.7 250,236.1 246.5,230.8 246.6,227.7 247.2,227.7 247.1,230.6 250.6,236 250.9,238.2 
			256.4,239.6 258.4,242.8 257.9,243.1 256,240.2 		"/>
	</g>
	<g>
		<polygon class="st7" points="252.9,236.3 252.5,233.5 249.5,228.8 248.8,225.7 249.4,225.6 250,228.6 253.1,233.3 253.4,235.8 
			260.9,238 262.5,240.2 262,240.5 260.5,238.5 		"/>
	</g>
</g>
<g>
	<g>
		<g>
			<g>
				
					<rect x="268.3" y="137.2" transform="matrix(0.8381 -0.5455 0.5455 0.8381 -47.583 173.4516)" class="st3" width="0.3" height="59.5"/>
			</g>
			<g>
				
					<rect x="265.6" y="138.9" transform="matrix(0.8381 -0.5455 0.5455 0.8381 -48.9771 172.2645)" class="st3" width="0.3" height="59.5"/>
			</g>
			<g>
				
					<rect x="262.9" y="140.7" transform="matrix(0.8381 -0.5455 0.5455 0.8381 -50.3711 171.0775)" class="st3" width="0.3" height="59.5"/>
			</g>
			<g>
				
					<rect x="260.2" y="142.4" transform="matrix(0.8381 -0.5455 0.5455 0.8381 -51.7652 169.8902)" class="st3" width="0.3" height="59.5"/>
			</g>
			<g>
				
					<rect x="257.5" y="144.2" transform="matrix(0.8381 -0.5455 0.5455 0.8381 -53.1593 168.7034)" class="st3" width="0.3" height="59.5"/>
			</g>
			<g>
				
					<rect x="254.8" y="145.9" transform="matrix(0.8381 -0.5455 0.5455 0.8381 -54.5533 167.5159)" class="st3" width="0.3" height="59.5"/>
			</g>
		</g>
		<g>
			<polygon class="st13" points="239.8,150.1 244,155.6 253,158.7 252.6,168.1 258.9,171.2 260.6,177.7 269.1,181.3 269.8,187.2 
				277.5,190.3 280.9,194.3 267.7,202.9 235.3,153 			"/>
			<path class="st14" d="M235.3,153l2.6-1.7l6.3,5.5l1.6,2.5l3.4,1.2l1.6,7.9l5.2,4.5c0,0,1.2,6,1.4,6.2c0.1,0.2,7.8,6,7.8,6
				l3.1,5.8l9.3,5.5l-9.9,6.4L235.3,153z"/>
			<path class="st15" d="M236.9,151.9l6.2,6.2l2.9,4.5l3.1,6.4l5.1,4.4c0,0,0.1,6.3,0.9,6.4c0.8,0.1,5.3,5.7,5.3,5.7l3.1,4.8
				l6.9,3.8l3.3,5l-5.9,3.8L235.3,153L236.9,151.9z"/>
		</g>
		
			<rect x="249.8" y="138.7" transform="matrix(0.5455 0.8381 -0.8381 0.5455 231.2105 -147.426)" class="st3" width="3.4" height="1.6"/>
		
			<rect x="247.1" y="140.4" transform="matrix(0.5455 0.8381 -0.8381 0.5455 231.4558 -144.3676)" class="st3" width="3.4" height="1.6"/>
		
			<rect x="244.4" y="142.2" transform="matrix(0.5455 0.8381 -0.8381 0.5455 231.7011 -141.3093)" class="st3" width="3.4" height="1.6"/>
		
			<rect x="241.8" y="143.9" transform="matrix(0.5455 0.8381 -0.8381 0.5455 231.9464 -138.251)" class="st3" width="3.4" height="1.6"/>
		
			<rect x="239.1" y="145.7" transform="matrix(0.5455 0.8381 -0.8381 0.5455 232.1917 -135.1926)" class="st3" width="3.4" height="1.6"/>
		
			<rect x="236.4" y="147.5" transform="matrix(0.5455 0.8381 -0.8381 0.5455 232.437 -132.1343)" class="st3" width="3.4" height="1.6"/>
	</g>
</g>
<g>
	
		<rect x="234.8" y="156.9" transform="matrix(0.5455 0.8381 -0.8381 0.5455 239.5914 -126.5219)" class="st3" width="3.4" height="1.6"/>
</g>
<g>
	
		<rect x="239.2" y="163.7" transform="matrix(0.5454 0.8381 -0.8381 0.5454 247.3915 -127.1464)" class="st3" width="3.4" height="1.6"/>
</g>
<g>
	
		<rect x="243.7" y="170.6" transform="matrix(0.5455 0.8381 -0.8381 0.5455 255.1677 -127.7713)" class="st3" width="3.4" height="1.6"/>
</g>
<g>
	
		<rect x="248.2" y="177.5" transform="matrix(0.5455 0.8381 -0.8381 0.5455 262.9608 -128.3958)" class="st3" width="3.4" height="1.6"/>
</g>
<g>
	
		<rect x="252.6" y="184.3" transform="matrix(0.5455 0.8381 -0.8381 0.5455 270.7491 -129.0204)" class="st3" width="3.4" height="1.6"/>
</g>
<g>
	
		<rect x="257.1" y="191.2" transform="matrix(0.5455 0.8381 -0.8381 0.5455 278.5321 -129.6454)" class="st3" width="3.4" height="1.6"/>
</g>
<rect x="340.4" y="112" transform="matrix(1 -1.441332e-03 1.441332e-03 1 -0.2329 0.5457)" class="st6" width="76.1" height="99.7"/>
<rect x="340.4" y="112" transform="matrix(1 -1.484422e-03 1.484422e-03 1 -0.24 0.5276)" class="st16" width="29.7" height="99.7"/>
<path id="SVGID_3_" class="st17" d="M366.6,126.1c0,6.4-5.2,11.7-11.7,11.7c-6.4,0-11.7-5.2-11.7-11.7c0-6.4,5.2-11.7,11.7-11.7
	C361.4,114.5,366.6,119.7,366.6,126.1z"/>
<rect x="346.4" y="140.6" transform="matrix(1 -1.482081e-03 1.482081e-03 1 -0.2097 0.5267)" class="st7" width="17.7" height="2.4"/>
<rect x="346.4" y="143.8" transform="matrix(1 -1.487716e-03 1.487716e-03 1 -0.2154 0.5287)" class="st7" width="17.7" height="2.4"/>
<rect x="371.8" y="123.7" transform="matrix(1 -1.476155e-03 1.476155e-03 1 -0.183 0.5559)" class="st7" width="9.3" height="1.2"/>
<rect x="371.8" y="126.1" transform="matrix(1 -1.486836e-03 1.486836e-03 1 -0.188 0.5599)" class="st7" width="9.3" height="1.2"/>
<rect x="342.6" y="150.1" transform="matrix(1 -1.486623e-03 1.486623e-03 1 -0.2239 0.5283)" class="st3" width="25.3" height="1.4"/>
<rect x="379.5" y="117.1" transform="matrix(1 -1.484680e-03 1.484680e-03 1 -0.1745 0.5878)" class="st3" width="32.6" height="1.4"/>
<rect x="347.5" y="158.9" transform="matrix(1 -1.490421e-03 1.490421e-03 1 -0.2375 0.5334)" class="st3" width="20.4" height="1.4"/>
<rect x="347.6" y="164.9" transform="matrix(1 -1.480630e-03 1.480630e-03 1 -0.2449 0.5299)" class="st3" width="20.4" height="1.4"/>
<rect x="347.6" y="171" transform="matrix(1 -1.485518e-03 1.485518e-03 1 -0.2547 0.5316)" class="st3" width="20.4" height="1.4"/>
<rect x="347.6" y="177" transform="matrix(1 -1.490421e-03 1.490421e-03 1 -0.2645 0.5334)" class="st3" width="20.4" height="1.4"/>
<rect x="342.6" y="152.8" transform="matrix(1 -1.486623e-03 1.486623e-03 1 -0.2278 0.5283)" class="st3" width="25.3" height="1.4"/>
<rect x="342.7" y="181.9" transform="matrix(1 -1.482675e-03 1.482675e-03 1 -0.2703 0.527)" class="st3" width="25.3" height="1.4"/>
<rect x="342.7" y="184.5" transform="matrix(1 -1.486623e-03 1.486623e-03 1 -0.275 0.5284)" class="st3" width="25.3" height="1.4"/>
<rect x="342.7" y="187.2" transform="matrix(1 -1.486629e-03 1.486629e-03 1 -0.2789 0.5285)" class="st3" width="25.3" height="1.4"/>
<rect x="342.7" y="204.1" transform="matrix(1 -1.486629e-03 1.486629e-03 1 -0.3041 0.5285)" class="st3" width="25.3" height="1.4"/>
<rect x="342.7" y="206.8" transform="matrix(1 -1.482675e-03 1.482675e-03 1 -0.3072 0.5271)" class="st3" width="25.3" height="1.4"/>
<rect x="342.7" y="189.8" transform="matrix(1 -1.478715e-03 1.478715e-03 1 -0.2814 0.5257)" class="st3" width="25.3" height="1.4"/>
<rect x="384.3" y="123.3" transform="matrix(1 -1.479793e-03 1.479793e-03 1 -0.1836 0.5894)" class="st3" width="27.8" height="2"/>
<rect x="384.3" y="127" transform="matrix(1 -1.486977e-03 1.486977e-03 1 -0.1899 0.5923)" class="st3" width="27.8" height="2"/>
<rect x="384.3" y="130.7" transform="matrix(1 -1.483380e-03 1.483380e-03 1 -0.1949 0.5908)" class="st3" width="27.8" height="2"/>
<rect x="384.3" y="134.3" transform="matrix(1 -1.483384e-03 1.483384e-03 1 -0.2003 0.5908)" class="st3" width="27.8" height="2"/>
<rect x="384.3" y="138" transform="matrix(1 -1.483385e-03 1.483385e-03 1 -0.2058 0.5909)" class="st3" width="27.8" height="2"/>
<rect x="384.3" y="141.7" transform="matrix(1 -1.486977e-03 1.486977e-03 1 -0.2117 0.5923)" class="st3" width="27.8" height="2"/>
<rect x="384.3" y="145.3" transform="matrix(1 -1.479783e-03 1.479783e-03 1 -0.2161 0.5894)" class="st3" width="27.8" height="2"/>
<rect x="371.9" y="151.8" transform="matrix(1 -1.486852e-03 1.486852e-03 1 -0.2262 0.56)" class="st7" width="9.3" height="1.2"/>
<rect x="371.9" y="154.3" transform="matrix(1 -1.486852e-03 1.486852e-03 1 -0.2299 0.56)" class="st7" width="9.3" height="1.2"/>
<rect x="384.3" y="151.5" transform="matrix(1 -1.483385e-03 1.483385e-03 1 -0.2258 0.5909)" class="st3" width="27.8" height="2"/>
<rect x="384.3" y="155.2" transform="matrix(1 -1.486977e-03 1.486977e-03 1 -0.2318 0.5923)" class="st3" width="27.8" height="2"/>
<rect x="384.3" y="158.8" transform="matrix(1 -1.486971e-03 1.486971e-03 1 -0.2372 0.5924)" class="st3" width="27.8" height="2"/>
<rect x="384.3" y="162.5" transform="matrix(1 -1.486977e-03 1.486977e-03 1 -0.2427 0.5924)" class="st3" width="27.8" height="2"/>
<rect x="384.3" y="166.2" transform="matrix(1 -1.486971e-03 1.486971e-03 1 -0.2482 0.5924)" class="st3" width="27.8" height="2"/>
<rect x="384.3" y="169.8" transform="matrix(1 -1.486977e-03 1.486977e-03 1 -0.2536 0.5924)" class="st3" width="27.8" height="2"/>
<rect x="384.3" y="173.5" transform="matrix(1 -1.486977e-03 1.486977e-03 1 -0.2591 0.5924)" class="st3" width="27.8" height="2"/>
<rect x="371.9" y="180" transform="matrix(1 -1.476155e-03 1.476155e-03 1 -0.2662 0.5561)" class="st7" width="9.3" height="1.2"/>
<rect x="371.9" y="182.4" transform="matrix(1 -1.486851e-03 1.486851e-03 1 -0.2718 0.5601)" class="st7" width="9.3" height="1.2"/>
<rect x="384.4" y="179.7" transform="matrix(1 -1.483380e-03 1.483380e-03 1 -0.2676 0.591)" class="st3" width="27.8" height="2"/>
<rect x="384.4" y="183.3" transform="matrix(1 -1.479783e-03 1.479783e-03 1 -0.2724 0.5896)" class="st3" width="27.8" height="2"/>
<rect x="384.4" y="187" transform="matrix(1 -1.483385e-03 1.483385e-03 1 -0.2785 0.591)" class="st3" width="27.8" height="2"/>
<rect x="384.4" y="190.7" transform="matrix(1 -1.479788e-03 1.479788e-03 1 -0.2832 0.5896)" class="st3" width="27.8" height="2"/>
<rect x="384.4" y="194.3" transform="matrix(1 -1.483385e-03 1.483385e-03 1 -0.2894 0.591)" class="st3" width="27.8" height="2"/>
<rect x="384.4" y="198" transform="matrix(1 -1.483385e-03 1.483385e-03 1 -0.2948 0.5911)" class="st3" width="27.8" height="2"/>
<rect x="384.4" y="201.7" transform="matrix(1 -1.486971e-03 1.486971e-03 1 -0.301 0.5925)" class="st3" width="27.8" height="2"/>
<rect x="350.8" y="196.9" transform="matrix(1 -1.485250e-03 1.485250e-03 1 -0.293 0.534)" class="st3" width="17.2" height="1.4"/>
<rect x="350.8" y="199.5" transform="matrix(1 -1.479435e-03 1.479435e-03 1 -0.2958 0.532)" class="st3" width="17.2" height="1.4"/>
<path class="st7" d="M346.8,159.6c0,1.1-0.9,2.1-2.1,2.1c-1.1,0-2.1-0.9-2.1-2.1c0-1.1,0.9-2.1,2.1-2.1
	C345.9,157.5,346.8,158.5,346.8,159.6z"/>
<path class="st7" d="M346.8,165.7c0,1.1-0.9,2.1-2.1,2.1c-1.1,0-2.1-0.9-2.1-2.1c0-1.1,0.9-2.1,2.1-2.1
	C345.9,163.6,346.8,164.5,346.8,165.7z"/>
<path class="st7" d="M346.8,171.7c0,1.1-0.9,2.1-2.1,2.1c-1.1,0-2.1-0.9-2.1-2.1c0-1.1,0.9-2.1,2.1-2.1
	C345.9,169.6,346.8,170.6,346.8,171.7z"/>
<path class="st7" d="M346.8,177.8c0,1.1-0.9,2.1-2.1,2.1c-1.1,0-2.1-0.9-2.1-2.1c0-1.1,0.9-2.1,2.1-2.1
	C345.9,175.7,346.8,176.6,346.8,177.8z"/>
<path class="st7" d="M349.5,198.9c0,1.9-1.5,3.4-3.4,3.4c-1.9,0-3.4-1.5-3.4-3.4c0-1.9,1.5-3.4,3.4-3.4
	C348,195.5,349.5,197,349.5,198.9z"/>
<path class="st7" d="M377.3,117.8c0,1.9-1.5,3.4-3.4,3.4c-1.9,0-3.4-1.5-3.4-3.4c0-1.9,1.5-3.4,3.4-3.4
	C375.8,114.4,377.3,116,377.3,117.8z"/>
</svg>
