<?xml version="1.0" encoding="utf-8"?>
<!-- Generator: Adobe Illustrator 22.1.0, SVG Export Plug-In . SVG Version: 6.00 Build 0)  -->
<svg version="1.1" id="Layer_1" xmlns="http://www.w3.org/2000/svg" xmlns:xlink="http://www.w3.org/1999/xlink" x="0px" y="0px"
	 viewBox="0 0 841.9 595.3" style="enable-background:new 0 0 841.9 595.3;" xml:space="preserve">
<style type="text/css">
	.st0{opacity:0.71;fill:#43443F;}
	.st1{fill:#FFFFFF;}
	.st2{fill:#CF8778;}
	.st3{opacity:0.69;}
	.st4{fill:#43443F;}
	.st5{fill:none;stroke:#FEE2D4;stroke-width:2.0021;stroke-miterlimit:10;}
	.st6{opacity:0.81;fill:none;stroke:#FFFFFF;stroke-width:2.0421;stroke-miterlimit:10;}
	.st7{fill:url(#SVGID_1_);}
	.st8{fill:#5D819D;}
	.st9{fill:#FEE2D4;}
	.st10{fill:url(#SVGID_2_);}
	.st11{fill:url(#SVGID_3_);}
	.st12{fill:#DCBFB1;}
	.st13{fill:#CC6972;}
	.st14{fill:url(#SVGID_4_);}
	.st15{fill:#232855;}
	.st16{fill:#151613;}
	.st17{fill:url(#SVGID_5_);}
	.st18{fill:#DEC3B4;}
	.st19{fill:url(#SVGID_6_);}
	.st20{fill:#9FCDDE;}
	.st21{fill:url(#SVGID_7_);}
	.st22{fill:url(#SVGID_8_);}
	.st23{opacity:0.55;fill:#DEC3B4;}
	.st24{fill:url(#SVGID_9_);}
	.st25{fill:url(#SVGID_10_);}
	.st26{fill:url(#SVGID_11_);}
	.st27{fill:#32332F;}
	.st28{fill:url(#SVGID_12_);}
</style>
<path class="st0" d="M818,390.1c0.5,1.9-89.1,25-200,51.7c-110.9,26.7-201.2,46.8-201.7,45c-0.5-1.9,89.1-25,200-51.7
	C727.3,408.3,817.5,388.2,818,390.1z"/>
<g>
	<path class="st1" d="M325.7,253.6c-0.8,3.8-4.5,6.2-8.3,5.4c-3.8-0.8-6.2-4.5-5.4-8.3c0.8-3.8,4.5-6.2,8.3-5.4
		C324.1,246.1,326.5,249.8,325.7,253.6z"/>
	<polygon class="st1" points="205,353.6 141.7,278.8 89.3,345.8 65.6,308.9 0,336.5 0,334.9 66.1,307 89.4,343.2 141.6,276.4 
		205.1,351.5 319.2,250.4 365.8,296.1 431.8,205.9 432.2,206 628.6,232.5 754.3,95.3 755.5,96.3 629.2,234.1 628.8,234 432.4,207.5 
		366,298.4 319.2,252.5 	"/>
	<g>
		<path class="st1" d="M771.7,99.2c-1.9,9.2-11,15.1-20.2,13.2c-9.2-1.9-15.1-11-13.2-20.2c1.9-9.2,11-15.1,20.2-13.2
			C767.7,80.9,773.6,90,771.7,99.2z"/>
		<path class="st2" d="M761.7,97.2c-0.8,3.8-4.5,6.2-8.3,5.4c-3.8-0.8-6.2-4.5-5.4-8.3c0.8-3.8,4.5-6.2,8.3-5.4
			C760.1,89.7,762.5,93.4,761.7,97.2z"/>
	</g>
	<path class="st1" d="M439,208.3c-0.8,3.8-4.5,6.2-8.3,5.4c-3.8-0.8-6.2-4.5-5.4-8.3c0.8-3.8,4.5-6.2,8.3-5.4
		C437.4,200.8,439.8,204.6,439,208.3z"/>
	<path class="st1" d="M212,353.8c-0.8,3.8-4.5,6.2-8.3,5.4c-3.8-0.8-6.2-4.5-5.4-8.3c0.8-3.8,4.5-6.2,8.3-5.4
		C210.4,346.3,212.8,350,212,353.8z"/>
	<path class="st1" d="M148.6,279.4c-0.8,3.8-4.5,6.2-8.3,5.4c-3.8-0.8-6.2-4.5-5.4-8.3c0.8-3.8,4.5-6.2,8.3-5.4
		C146.9,271.9,149.4,275.6,148.6,279.4z"/>
	<path class="st1" d="M96.2,345.7c-0.8,3.8-4.5,6.2-8.3,5.4c-3.8-0.8-6.2-4.5-5.4-8.3c0.8-3.8,4.5-6.2,8.3-5.4
		C94.6,338.2,97,341.9,96.2,345.7z"/>
	<path class="st1" d="M72.7,309.8c-0.8,3.8-4.5,6.2-8.3,5.4c-3.8-0.8-6.2-4.5-5.4-8.3c0.8-3.8,4.5-6.2,8.3-5.4
		C71.1,302.3,73.5,306,72.7,309.8z"/>
	<path class="st1" d="M372.7,298.8c-0.8,3.8-4.5,6.2-8.3,5.4c-3.8-0.8-6.2-4.5-5.4-8.3c0.8-3.8,4.5-6.2,8.3-5.4
		C371.1,291.3,373.5,295.1,372.7,298.8z"/>
</g>
<g class="st3">
	<path class="st1" d="M698.1,67c-0.7-0.3-1.4-0.7-2.1-1l1-2.1c0.7,0.3,1.4,0.7,2.1,1L698.1,67z M689.7,63.1
		c-0.7-0.3-1.4-0.6-2.1-0.9l0.9-2.1c0.7,0.3,1.4,0.6,2.1,0.9L689.7,63.1z M342.1,366.8l-2.2,0.7c-0.2-0.8-0.4-1.5-0.6-2.3l2.2-0.6
		C341.7,365.3,341.9,366.1,342.1,366.8z M681.2,59.5c-0.7-0.3-1.4-0.6-2.2-0.9l0.8-2.2c0.7,0.3,1.5,0.6,2.2,0.9L681.2,59.5z
		 M339.7,357.8l-2.3,0.6c-0.2-0.8-0.4-1.5-0.6-2.3l2.3-0.5C339.3,356.3,339.5,357.1,339.7,357.8z M672.5,56.2
		c-0.7-0.3-1.5-0.5-2.2-0.8l0.8-2.2c0.7,0.3,1.5,0.5,2.2,0.8L672.5,56.2z M337.6,348.8l-2.3,0.5c-0.2-0.8-0.3-1.5-0.5-2.3l2.3-0.5
		C337.3,347.2,337.4,348,337.6,348.8z M663.7,53.3c-0.7-0.2-1.5-0.5-2.2-0.7l0.7-2.2c0.7,0.2,1.5,0.5,2.2,0.7L663.7,53.3z
		 M335.8,339.6l-2.3,0.4c-0.1-0.8-0.3-1.5-0.4-2.3l2.3-0.4C335.5,338.1,335.7,338.9,335.8,339.6z M654.8,50.6
		c-0.7-0.2-1.5-0.4-2.2-0.6l0.6-2.3c0.8,0.2,1.5,0.4,2.3,0.6L654.8,50.6z M334.4,330.4l-2.3,0.3c-0.1-0.8-0.2-1.6-0.3-2.3l2.3-0.3
		C334.2,328.9,334.3,329.7,334.4,330.4z M645.9,48.3c-0.8-0.2-1.5-0.4-2.3-0.5l0.5-2.3c0.8,0.2,1.5,0.4,2.3,0.5L645.9,48.3z
		 M333.3,321.2l-2.3,0.2c-0.1-0.8-0.2-1.6-0.2-2.3l2.3-0.2C333.1,319.7,333.2,320.4,333.3,321.2z M636.8,46.3
		c-0.8-0.2-1.5-0.3-2.3-0.4l0.4-2.3c0.8,0.1,1.5,0.3,2.3,0.4L636.8,46.3z M332.5,311.9l-2.3,0.2c-0.1-0.8-0.1-1.6-0.1-2.3l2.3-0.1
		C332.4,310.4,332.5,311.2,332.5,311.9z M627.7,44.6c-0.8-0.1-1.5-0.2-2.3-0.4l0.4-2.3c0.8,0.1,1.5,0.2,2.3,0.4L627.7,44.6z
		 M332.1,302.7l-2.3,0.1c0-0.8,0-1.6-0.1-2.3l2.3,0C332.1,301.1,332.1,301.9,332.1,302.7z M618.5,43.3c-0.8-0.1-1.5-0.2-2.3-0.3
		l0.3-2.3c0.8,0.1,1.6,0.2,2.3,0.3L618.5,43.3z M332,293.4l-2.3,0c0-0.8,0-1.6,0-2.3l2.3,0C332,291.8,332,292.6,332,293.4z
		 M609.3,42.3c-0.8-0.1-1.5-0.1-2.3-0.2l0.2-2.3c0.8,0.1,1.6,0.1,2.3,0.2L609.3,42.3z M332.3,284.1l-2.3-0.1c0-0.8,0.1-1.6,0.1-2.3
		l2.3,0.1C332.3,282.5,332.3,283.3,332.3,284.1z M600,41.6c-0.8,0-1.5-0.1-2.3-0.1l0.1-2.3c0.8,0,1.6,0.1,2.3,0.1L600,41.6z
		 M332.8,274.8l-2.3-0.2c0.1-0.8,0.1-1.6,0.2-2.3l2.3,0.2C333,273.3,332.9,274,332.8,274.8z M590.7,41.3c-0.8,0-1.5,0-2.3,0l0-2.3
		c0.8,0,1.6,0,2.3,0L590.7,41.3z M333.8,265.6l-2.3-0.3c0.1-0.8,0.2-1.6,0.3-2.3l2.3,0.3C334,264,333.9,264.8,333.8,265.6z
		 M581.4,41.3c-0.8,0-1.5,0-2.3,0.1L579,39c0.8,0,1.6,0,2.3,0L581.4,41.3z M335,256.4l-2.3-0.4c0.1-0.8,0.2-1.5,0.4-2.3l2.3,0.4
		C335.3,254.8,335.1,255.6,335,256.4z M572.1,41.6c-0.8,0-1.5,0.1-2.3,0.1l-0.2-2.3c0.8-0.1,1.6-0.1,2.3-0.1L572.1,41.6z
		 M336.6,247.2l-2.3-0.4c0.1-0.8,0.3-1.5,0.5-2.3l2.3,0.5C336.9,245.7,336.8,246.5,336.6,247.2z M562.9,42.3
		c-0.8,0.1-1.5,0.1-2.3,0.2l-0.2-2.3c0.8-0.1,1.6-0.2,2.3-0.2L562.9,42.3z M338.5,238.2l-2.3-0.5c0.2-0.8,0.4-1.5,0.5-2.3l2.3,0.5
		C338.9,236.7,338.7,237.4,338.5,238.2z M553.6,43.3c-0.8,0.1-1.5,0.2-2.3,0.3l-0.3-2.3c0.8-0.1,1.6-0.2,2.3-0.3L553.6,43.3z
		 M340.8,229.2l-2.2-0.6c0.2-0.8,0.4-1.5,0.6-2.3l2.2,0.6C341.2,227.7,341,228.4,340.8,229.2z M544.4,44.7c-0.8,0.1-1.5,0.3-2.3,0.4
		l-0.4-2.3c0.8-0.1,1.5-0.3,2.3-0.4L544.4,44.7z M343.4,220.2l-2.2-0.7c0.2-0.7,0.5-1.5,0.7-2.2l2.2,0.7
		C343.8,218.8,343.6,219.5,343.4,220.2z M535.3,46.4c-0.8,0.2-1.5,0.3-2.3,0.5l-0.5-2.3c0.8-0.2,1.5-0.3,2.3-0.5L535.3,46.4z
		 M346.3,211.4l-2.2-0.8c0.3-0.7,0.5-1.5,0.8-2.2l2.2,0.8C346.8,210,346.5,210.7,346.3,211.4z M526.2,48.4c-0.7,0.2-1.5,0.4-2.3,0.6
		l-0.6-2.3c0.8-0.2,1.5-0.4,2.3-0.6L526.2,48.4z M349.5,202.8l-2.2-0.8c0.3-0.7,0.6-1.5,0.9-2.2l2.2,0.9
		C350,201.3,349.8,202,349.5,202.8z M517.2,50.8c-0.7,0.2-1.5,0.4-2.2,0.6l-0.6-2.2c0.7-0.2,1.5-0.4,2.3-0.6L517.2,50.8z M353,194.2
		l-2.1-0.9c0.3-0.7,0.6-1.4,0.9-2.1l2.1,0.9C353.6,192.8,353.3,193.5,353,194.2z M508.3,53.4c-0.7,0.2-1.5,0.5-2.2,0.7l-0.7-2.2
		c0.7-0.2,1.5-0.5,2.2-0.7L508.3,53.4z M356.8,185.8l-2.1-1c0.3-0.7,0.7-1.4,1-2.1l2.1,1C357.5,184.4,357.2,185.1,356.8,185.8z
		 M499.5,56.5c-0.7,0.3-1.5,0.5-2.2,0.8l-0.8-2.2c0.7-0.3,1.5-0.5,2.2-0.8L499.5,56.5z M361,177.5l-2.1-1.1c0.4-0.7,0.7-1.4,1.1-2.1
		l2.1,1.1C361.7,176.1,361.3,176.8,361,177.5z M490.8,59.8c-0.7,0.3-1.4,0.6-2.1,0.9l-0.9-2.1c0.7-0.3,1.5-0.6,2.2-0.9L490.8,59.8z
		 M365.4,169.4l-2-1.2c0.4-0.7,0.8-1.4,1.2-2l2,1.2C366.2,168,365.8,168.7,365.4,169.4z M482.2,63.5c-0.7,0.3-1.4,0.6-2.1,1l-1-2.1
		c0.7-0.3,1.4-0.6,2.1-1L482.2,63.5z M370.2,161.4l-2-1.2c0.4-0.7,0.8-1.3,1.3-2l2,1.3C371,160.1,370.6,160.7,370.2,161.4z
		 M473.8,67.4c-0.7,0.3-1.4,0.7-2.1,1l-1.1-2.1c0.7-0.4,1.4-0.7,2.1-1L473.8,67.4z M375.2,153.6l-1.9-1.3c0.4-0.6,0.9-1.3,1.3-1.9
		l1.9,1.3C376.1,152.3,375.7,152.9,375.2,153.6z M465.5,71.7c-0.7,0.4-1.4,0.7-2,1.1l-1.1-2c0.7-0.4,1.4-0.8,2.1-1.1L465.5,71.7z
		 M380.6,146l-1.9-1.4c0.5-0.6,0.9-1.3,1.4-1.9l1.9,1.4C381.5,144.7,381,145.3,380.6,146z M457.4,76.3c-0.7,0.4-1.3,0.8-2,1.2
		l-1.2-2c0.7-0.4,1.3-0.8,2-1.2L457.4,76.3z M386.2,138.6l-1.8-1.4c0.5-0.6,1-1.2,1.5-1.8l1.8,1.5
		C387.1,137.3,386.7,138,386.2,138.6z M449.5,81.1c-0.7,0.4-1.3,0.8-2,1.3l-1.3-1.9c0.7-0.4,1.3-0.9,2-1.3L449.5,81.1z M392.1,131.4
		l-1.8-1.5c0.5-0.6,1-1.2,1.5-1.8l1.8,1.5C393.1,130.2,392.6,130.8,392.1,131.4z M441.8,86.3c-0.6,0.4-1.3,0.9-1.9,1.3l-1.3-1.9
		c0.6-0.5,1.3-0.9,1.9-1.3L441.8,86.3z M398.2,124.4l-1.7-1.6c0.5-0.6,1.1-1.2,1.6-1.7l1.7,1.6C399.2,123.2,398.7,123.8,398.2,124.4
		z M434.3,91.7c-0.6,0.5-1.2,0.9-1.8,1.4l-1.4-1.8c0.6-0.5,1.2-0.9,1.9-1.4L434.3,91.7z M404.6,117.6l-1.7-1.6
		c0.5-0.6,1.1-1.1,1.6-1.7l1.6,1.6C405.7,116.5,405.1,117.1,404.6,117.6z M426.9,97.4c-0.6,0.5-1.2,1-1.8,1.5l-1.5-1.8
		c0.6-0.5,1.2-1,1.8-1.5L426.9,97.4z M411.2,111.1l-1.6-1.7c0.6-0.5,1.1-1.1,1.7-1.6l1.6,1.7C412.3,110.1,411.8,110.6,411.2,111.1z
		 M419.8,103.3c-0.5,0.4-1,0.9-1.5,1.3l-0.2,0.2l-1.5-1.7l0.2-0.2c0.5-0.5,1-0.9,1.5-1.3L419.8,103.3z"/>
	<polygon class="st1" points="699.1,56.3 703.2,68.1 691.4,72.2 	"/>
</g>
<g>
	<path class="st4" d="M728.8,267.4c18.2,75.7-28.4,151.7-104,169.9c-75.6,18.2-151.7-28.3-170-104c-18.2-75.6,28.4-151.7,104-170
		C634.5,145.2,710.6,191.7,728.8,267.4z"/>
	<path class="st5" d="M717.5,270.1c16.7,69.4-26,139.3-95.5,156c-69.4,16.7-139.3-26-156-95.5c-16.7-69.4,26-139.3,95.5-156
		C631,157.9,700.8,200.7,717.5,270.1z"/>
	
		<ellipse transform="matrix(0.9805 -0.1967 0.1967 0.9805 -47.5244 122.2888)" class="st6" cx="591.8" cy="300.4" rx="131.9" ry="131.9"/>
	<g>
		
			<rect x="550.6" y="239.9" transform="matrix(0.8283 -0.5603 0.5603 0.8283 -41.1065 352.0048)" class="st1" width="6.4" height="6.4"/>
		
			<rect x="538.3" y="255.9" transform="matrix(0.8284 -0.5601 0.5601 0.8284 -52.2239 347.7409)" class="st1" width="6.4" height="6.4"/>
		
			<rect x="543.6" y="252.3" transform="matrix(0.8281 -0.5606 0.5606 0.8281 -49.2527 350.4502)" class="st1" width="6.4" height="6.4"/>
		
			<rect x="548.9" y="248.8" transform="matrix(0.8282 -0.5604 0.5604 0.8282 -46.3572 352.6666)" class="st1" width="6.4" height="6.4"/>
		
			<rect x="554.2" y="245.2" transform="matrix(0.8285 -0.56 0.56 0.8285 -43.4849 354.7703)" class="st1" width="6.4" height="6.4"/>
		
			<rect x="559.5" y="241.6" transform="matrix(0.8279 -0.5609 0.5609 0.8279 -40.4605 357.7101)" class="st1" width="6.4" height="6.4"/>
		
			<rect x="541.9" y="261.2" transform="matrix(0.8281 -0.5606 0.5606 0.8281 -54.5195 351.0417)" class="st1" width="6.4" height="6.4"/>
		
			<rect x="547.2" y="257.6" transform="matrix(0.8282 -0.5605 0.5605 0.8282 -51.618 353.2849)" class="st1" width="6.4" height="6.4"/>
		
			<rect x="557.8" y="250.5" transform="matrix(0.8281 -0.5606 0.5606 0.8281 -45.7644 358.0982)" class="st1" width="6.4" height="6.4"/>
		
			<rect x="545.5" y="266.5" transform="matrix(0.828 -0.5608 0.5608 0.828 -56.8546 354.0862)" class="st1" width="6.4" height="6.4"/>
		
			<rect x="550.8" y="262.9" transform="matrix(0.8285 -0.56 0.56 0.8285 -54.0226 355.8468)" class="st1" width="6.4" height="6.4"/>
		
			<rect x="561.4" y="255.8" transform="matrix(0.8281 -0.5606 0.5606 0.8281 -48.1131 361.0394)" class="st1" width="6.4" height="6.4"/>
		
			<rect x="549.1" y="271.8" transform="matrix(0.8282 -0.5604 0.5604 0.8282 -59.2485 356.6923)" class="st1" width="6.4" height="6.4"/>
		
			<rect x="554.4" y="268.2" transform="matrix(0.8283 -0.5603 0.5603 0.8283 -56.3403 358.9869)" class="st1" width="6.4" height="6.4"/>
		
			<rect x="564.9" y="261.1" transform="matrix(0.8282 -0.5604 0.5604 0.8282 -50.4989 363.7513)" class="st1" width="6.4" height="6.4"/>
		
			<rect x="552.6" y="277.1" transform="matrix(0.8283 -0.5602 0.5602 0.8283 -61.6133 359.5031)" class="st1" width="6.4" height="6.4"/>
		
			<rect x="557.9" y="273.5" transform="matrix(0.8282 -0.5605 0.5605 0.8282 -58.6708 362.0514)" class="st1" width="6.4" height="6.4"/>
		
			<rect x="568.5" y="266.4" transform="matrix(0.8284 -0.5602 0.5602 0.8284 -52.8711 366.5334)" class="st1" width="6.4" height="6.4"/>
		
			<rect x="556.2" y="282.4" transform="matrix(0.8282 -0.5604 0.5604 0.8282 -63.9513 362.5279)" class="st1" width="6.4" height="6.4"/>
		
			<rect x="561.5" y="278.8" transform="matrix(0.8282 -0.5604 0.5604 0.8282 -61.0313 364.9086)" class="st1" width="6.4" height="6.4"/>
		
			<rect x="572.1" y="271.6" transform="matrix(0.8283 -0.5603 0.5603 0.8283 -55.2114 369.5211)" class="st1" width="6.4" height="6.4"/>
		
			<rect x="559.8" y="287.7" transform="matrix(0.8283 -0.5603 0.5603 0.8283 -66.3087 365.3983)" class="st1" width="6.4" height="6.4"/>
		
			<rect x="565.1" y="284.1" transform="matrix(0.8283 -0.5603 0.5603 0.8283 -63.3949 367.7351)" class="st1" width="6.4" height="6.4"/>
		
			<rect x="575.7" y="276.9" transform="matrix(0.8282 -0.5604 0.5604 0.8282 -57.5541 372.4958)" class="st1" width="6.4" height="6.4"/>
		
			<rect x="563.4" y="293" transform="matrix(0.8282 -0.5604 0.5604 0.8282 -68.6544 368.3636)" class="st1" width="6.4" height="6.4"/>
		
			<rect x="568.7" y="289.4" transform="matrix(0.8283 -0.5603 0.5603 0.8283 -65.7491 370.6302)" class="st1" width="6.4" height="6.4"/>
		
			<rect x="579.3" y="282.2" transform="matrix(0.8284 -0.5601 0.5601 0.8284 -59.9322 375.2226)" class="st1" width="6.4" height="6.4"/>
		
			<rect x="567" y="298.3" transform="matrix(0.8282 -0.5605 0.5605 0.8282 -70.9943 371.3881)" class="st1" width="6.4" height="6.4"/>
		
			<rect x="572.3" y="294.7" transform="matrix(0.8282 -0.5605 0.5605 0.8282 -68.081 373.7069)" class="st1" width="6.4" height="6.4"/>
		
			<rect x="582.9" y="287.5" transform="matrix(0.8282 -0.5605 0.5605 0.8282 -62.2458 378.4192)" class="st1" width="6.4" height="6.4"/>
		
			<rect x="570.5" y="303.6" transform="matrix(0.8282 -0.5604 0.5604 0.8282 -73.3521 374.2492)" class="st1" width="6.4" height="6.4"/>
		
			<rect x="575.8" y="300" transform="matrix(0.8282 -0.5605 0.5605 0.8282 -70.4282 376.6575)" class="st1" width="6.4" height="6.4"/>
		
			<rect x="586.4" y="292.8" transform="matrix(0.8283 -0.5603 0.5603 0.8283 -64.6151 381.1999)" class="st1" width="6.4" height="6.4"/>
		
			<rect x="574.1" y="308.9" transform="matrix(0.8283 -0.5603 0.5603 0.8283 -75.7179 377.0244)" class="st1" width="6.4" height="6.4"/>
		
			<rect x="579.4" y="305.3" transform="matrix(0.8283 -0.5603 0.5603 0.8283 -72.7984 379.4085)" class="st1" width="6.4" height="6.4"/>
		
			<rect x="584.7" y="301.7" transform="matrix(0.8283 -0.5602 0.5602 0.8283 -69.8896 381.6992)" class="st1" width="6.4" height="6.4"/>
		
			<rect x="590" y="298.1" transform="matrix(0.828 -0.5608 0.5608 0.828 -66.9209 384.4743)" class="st1" width="6.4" height="6.4"/>
		
			<rect x="595.3" y="294.5" transform="matrix(0.8283 -0.5602 0.5602 0.8283 -64.0579 386.4091)" class="st1" width="6.4" height="6.4"/>
		
			<rect x="577.7" y="314.2" transform="matrix(0.8282 -0.5605 0.5605 0.8282 -78.0501 380.1407)" class="st1" width="6.4" height="6.4"/>
		
			<rect x="583" y="310.6" transform="matrix(0.8283 -0.5603 0.5603 0.8283 -75.1496 382.3299)" class="st1" width="6.4" height="6.4"/>
		
			<rect x="588.3" y="307" transform="matrix(0.8283 -0.5603 0.5603 0.8283 -72.2357 384.6669)" class="st1" width="6.4" height="6.4"/>
		
			<rect x="593.6" y="303.4" transform="matrix(0.8282 -0.5605 0.5605 0.8282 -69.2981 387.1963)" class="st1" width="6.4" height="6.4"/>
		
			<rect x="598.9" y="299.8" transform="matrix(0.8283 -0.5603 0.5603 0.8283 -66.4055 389.3529)" class="st1" width="6.4" height="6.4"/>
		
			<rect x="597.2" y="308.7" transform="matrix(0.8282 -0.5604 0.5604 0.8282 -71.6573 390.0552)" class="st1" width="6.4" height="6.4"/>
		
			<rect x="600.8" y="314" transform="matrix(0.8282 -0.5604 0.5604 0.8282 -74.0083 392.9783)" class="st1" width="6.4" height="6.4"/>
		
			<rect x="604.3" y="319.3" transform="matrix(0.8281 -0.5605 0.5605 0.8281 -76.3514 395.975)" class="st1" width="6.4" height="6.4"/>
		
			<rect x="592" y="335.3" transform="matrix(0.8282 -0.5604 0.5604 0.8282 -87.4655 391.7215)" class="st1" width="6.4" height="6.4"/>
		
			<rect x="597.3" y="331.8" transform="matrix(0.8282 -0.5604 0.5604 0.8282 -84.5481 394.0755)" class="st1" width="6.4" height="6.4"/>
		
			<rect x="607.9" y="324.6" transform="matrix(0.8283 -0.5603 0.5603 0.8283 -78.7251 398.6827)" class="st1" width="6.4" height="6.4"/>
		
			<rect x="595.6" y="340.6" transform="matrix(0.8283 -0.5603 0.5603 0.8283 -89.8235 394.5489)" class="st1" width="6.4" height="6.4"/>
		<rect x="600.9" y="337" transform="matrix(0.8285 -0.56 0.56 0.8285 -86.926 396.6721)" class="st1" width="6.4" height="6.4"/>
		
			<rect x="611.5" y="329.9" transform="matrix(0.8283 -0.5602 0.5602 0.8283 -81.0808 401.553)" class="st1" width="6.4" height="6.4"/>
		
			<rect x="599.2" y="345.9" transform="matrix(0.8281 -0.5605 0.5605 0.8281 -92.1623 397.6478)" class="st1" width="6.4" height="6.4"/>
		
			<rect x="604.5" y="342.3" transform="matrix(0.8282 -0.5605 0.5605 0.8282 -89.2468 399.973)" class="st1" width="6.4" height="6.4"/>
		
			<rect x="615.1" y="335.2" transform="matrix(0.8284 -0.5602 0.5602 0.8284 -83.4377 404.409)" class="st1" width="6.4" height="6.4"/>
		
			<rect x="602.8" y="351.2" transform="matrix(0.8281 -0.5605 0.5605 0.8281 -94.5122 400.5985)" class="st1" width="6.4" height="6.4"/>
		
			<rect x="608.1" y="347.6" transform="matrix(0.8283 -0.5603 0.5603 0.8283 -91.6126 402.7083)" class="st1" width="6.4" height="6.4"/>
		
			<rect x="618.7" y="340.5" transform="matrix(0.8281 -0.5606 0.5606 0.8281 -85.757 407.682)" class="st1" width="6.4" height="6.4"/>
		
			<rect x="606.4" y="356.5" transform="matrix(0.8281 -0.5605 0.5605 0.8281 -96.8647 403.5124)" class="st1" width="6.4" height="6.4"/>
		
			<rect x="611.7" y="352.9" transform="matrix(0.8282 -0.5605 0.5605 0.8282 -93.9511 405.8058)" class="st1" width="6.4" height="6.4"/>
		
			<rect x="622.3" y="345.8" transform="matrix(0.8281 -0.5606 0.5606 0.8281 -88.1093 410.6007)" class="st1" width="6.4" height="6.4"/>
		
			<rect x="610" y="361.8" transform="matrix(0.8282 -0.5605 0.5605 0.8282 -99.2183 406.3997)" class="st1" width="6.4" height="6.4"/>
		
			<rect x="615.2" y="358.2" transform="matrix(0.8284 -0.5602 0.5602 0.8284 -96.3208 408.4477)" class="st1" width="6.4" height="6.4"/>
		
			<rect x="625.8" y="351.1" transform="matrix(0.8281 -0.5606 0.5606 0.8281 -90.4614 413.5127)" class="st1" width="6.4" height="6.4"/>
		
			<rect x="613.5" y="367.1" transform="matrix(0.8282 -0.5604 0.5604 0.8282 -101.5766 409.1914)" class="st1" width="6.4" height="6.4"/>
		
			<rect x="618.8" y="363.5" transform="matrix(0.8284 -0.5601 0.5601 0.8284 -98.6758 411.299)" class="st1" width="6.4" height="6.4"/>
		
			<rect x="624.1" y="359.9" transform="matrix(0.8279 -0.5609 0.5609 0.8279 -95.7116 414.3582)" class="st1" width="6.4" height="6.4"/>
		
			<rect x="629.4" y="356.4" transform="matrix(0.8284 -0.5601 0.5601 0.8284 -92.8466 415.9999)" class="st1" width="6.4" height="6.4"/>
		
			<rect x="633" y="361.7" transform="matrix(0.8283 -0.5603 0.5603 0.8283 -95.183 419.112)" class="st1" width="6.4" height="6.4"/>
		
			<rect x="634.7" y="352.8" transform="matrix(0.8282 -0.5604 0.5604 0.8282 -89.9084 418.6313)" class="st1" width="6.4" height="6.4"/>
		
			<rect x="564.8" y="238" transform="matrix(0.8284 -0.5601 0.5601 0.8284 -37.6454 359.5246)" class="st1" width="6.4" height="6.4"/>
		
			<rect x="568.4" y="243.3" transform="matrix(0.8282 -0.5604 0.5604 0.8282 -39.958 362.6437)" class="st1" width="6.4" height="6.4"/>
		
			<rect x="571.9" y="248.6" transform="matrix(0.8281 -0.5606 0.5606 0.8281 -42.2863 365.6894)" class="st1" width="6.4" height="6.4"/>
		
			<rect x="575.5" y="253.9" transform="matrix(0.8283 -0.5603 0.5603 0.8283 -44.6749 368.405)" class="st1" width="6.4" height="6.4"/>
		<rect x="579.1" y="259.2" transform="matrix(0.8285 -0.56 0.56 0.8285 -47.07 371.0703)" class="st1" width="6.4" height="6.4"/>
		
			<rect x="582.7" y="264.5" transform="matrix(0.8282 -0.5605 0.5605 0.8282 -49.3568 374.3625)" class="st1" width="6.4" height="6.4"/>
		
			<rect x="586.3" y="269.8" transform="matrix(0.8283 -0.5603 0.5603 0.8283 -51.7307 377.14)" class="st1" width="6.4" height="6.4"/>
		
			<rect x="600.6" y="291" transform="matrix(0.8284 -0.5601 0.5601 0.8284 -61.1524 388.6935)" class="st1" width="6.4" height="6.4"/>
		
			<rect x="604.2" y="296.2" transform="matrix(0.8281 -0.5606 0.5606 0.8281 -63.4525 391.9728)" class="st1" width="6.4" height="6.4"/>
		
			<rect x="607.8" y="301.5" transform="matrix(0.8284 -0.5601 0.5601 0.8284 -65.8603 394.4758)" class="st1" width="6.4" height="6.4"/>
		
			<rect x="611.3" y="306.8" transform="matrix(0.8284 -0.5602 0.5602 0.8284 -68.2003 397.479)" class="st1" width="6.4" height="6.4"/>
		
			<rect x="614.9" y="312.1" transform="matrix(0.8284 -0.5602 0.5602 0.8284 -70.552 400.3883)" class="st1" width="6.4" height="6.4"/>
		
			<rect x="618.5" y="317.4" transform="matrix(0.8281 -0.5606 0.5606 0.8281 -72.8605 403.6607)" class="st1" width="6.4" height="6.4"/>
		
			<rect x="622.1" y="322.7" transform="matrix(0.8285 -0.56 0.56 0.8285 -75.2673 406.1029)" class="st1" width="6.4" height="6.4"/>
		
			<rect x="625.7" y="328" transform="matrix(0.8282 -0.5605 0.5605 0.8282 -77.5788 409.3705)" class="st1" width="6.4" height="6.4"/>
		
			<rect x="629.3" y="333.3" transform="matrix(0.8282 -0.5605 0.5605 0.8282 -79.9296 412.2975)" class="st1" width="6.4" height="6.4"/>
		
			<rect x="632.8" y="338.6" transform="matrix(0.8282 -0.5605 0.5605 0.8282 -82.2827 415.2056)" class="st1" width="6.4" height="6.4"/>
		
			<rect x="636.4" y="343.9" transform="matrix(0.8282 -0.5604 0.5604 0.8282 -84.6435 418.0351)" class="st1" width="6.4" height="6.4"/>
		
			<rect x="640" y="349.2" transform="matrix(0.8281 -0.5606 0.5606 0.8281 -86.9769 421.1442)" class="st1" width="6.4" height="6.4"/>
		
			<rect x="570.1" y="234.4" transform="matrix(0.8282 -0.5605 0.5605 0.8282 -34.6735 362.1572)" class="st1" width="6.4" height="6.4"/>
		
			<rect x="573.7" y="239.7" transform="matrix(0.8282 -0.5605 0.5605 0.8282 -37.0264 365.0694)" class="st1" width="6.4" height="6.4"/>
		
			<rect x="577.2" y="245" transform="matrix(0.8284 -0.5601 0.5601 0.8284 -39.4401 367.669)" class="st1" width="6.4" height="6.4"/>
		
			<rect x="580.8" y="250.3" transform="matrix(0.8283 -0.5603 0.5603 0.8283 -41.7556 370.774)" class="st1" width="6.4" height="6.4"/>
		
			<rect x="584.4" y="255.6" transform="matrix(0.8278 -0.561 0.561 0.8278 -44.0149 374.1975)" class="st1" width="6.4" height="6.4"/>
		
			<rect x="588" y="260.9" transform="matrix(0.8282 -0.5604 0.5604 0.8282 -46.4435 376.6903)" class="st1" width="6.4" height="6.4"/>
		
			<rect x="591.6" y="266.2" transform="matrix(0.8282 -0.5604 0.5604 0.8282 -48.8029 379.5614)" class="st1" width="6.4" height="6.4"/>
		
			<rect x="605.9" y="287.4" transform="matrix(0.8281 -0.5605 0.5605 0.8281 -58.1888 391.3673)" class="st1" width="6.4" height="6.4"/>
		
			<rect x="609.5" y="292.7" transform="matrix(0.8284 -0.5601 0.5601 0.8284 -60.5949 393.912)" class="st1" width="6.4" height="6.4"/>
		
			<rect x="613.1" y="298" transform="matrix(0.8282 -0.5605 0.5605 0.8282 -62.8986 397.1638)" class="st1" width="6.4" height="6.4"/>
		
			<rect x="616.6" y="303.3" transform="matrix(0.828 -0.5607 0.5607 0.828 -65.2307 400.2301)" class="st1" width="6.4" height="6.4"/>
		
			<rect x="620.2" y="308.6" transform="matrix(0.8281 -0.5606 0.5606 0.8281 -67.5948 403.0592)" class="st1" width="6.4" height="6.4"/>
		
			<rect x="623.8" y="313.8" transform="matrix(0.8283 -0.5603 0.5603 0.8283 -69.9737 405.7673)" class="st1" width="6.4" height="6.4"/>
		
			<rect x="627.4" y="319.1" transform="matrix(0.8282 -0.5604 0.5604 0.8282 -72.317 408.7496)" class="st1" width="6.4" height="6.4"/>
		
			<rect x="631" y="324.4" transform="matrix(0.8284 -0.5601 0.5601 0.8284 -74.6941 411.4506)" class="st1" width="6.4" height="6.4"/>
		
			<rect x="634.6" y="329.7" transform="matrix(0.8282 -0.5605 0.5605 0.8282 -77.0093 414.6755)" class="st1" width="6.4" height="6.4"/>
		
			<rect x="638.1" y="335" transform="matrix(0.8281 -0.5605 0.5605 0.8281 -79.3603 417.6021)" class="st1" width="6.4" height="6.4"/>
		
			<rect x="641.7" y="340.3" transform="matrix(0.8282 -0.5604 0.5604 0.8282 -81.7209 420.4473)" class="st1" width="6.4" height="6.4"/>
		
			<rect x="645.3" y="345.6" transform="matrix(0.8284 -0.5602 0.5602 0.8284 -84.0982 423.1158)" class="st1" width="6.4" height="6.4"/>
	</g>
</g>
<g>
	<g>
		
			<linearGradient id="SVGID_1_" gradientUnits="userSpaceOnUse" x1="398.2132" y1="422.8551" x2="393.9894" y2="407.1132" gradientTransform="matrix(-0.9928 0.1194 0.1194 0.9928 580.958 -41.7861)">
			<stop  offset="0" style="stop-color:#D4B1A1"/>
			<stop  offset="1" style="stop-color:#FFFFFF"/>
		</linearGradient>
		<path class="st7" d="M206.8,421.1c0,0,20.2,3.7,30.6,3.8c10.4,0,26.7-0.5,26.7-0.5s2.9-2.2,2.7-3.5c-9-1.2-21.5-3.1-28.5-2.9
			c-9-3-24.6-12.1-24.6-12.1L206.8,421.1z"/>
	</g>
	<path class="st8" d="M335.1,436.7c0,0,5.7-10.9,19.6-7.7c5.7,1.3,3.1-19.6,3.1-19.6s-2.5,1.8-15.4,9.6
		C338.9,421.1,335.1,436.7,335.1,436.7z"/>
	<g>
		<path class="st4" d="M308.4,452.6l-2.7-2.6l-2.3,2.5l1,1l-4.3,2.6l-1.8,2c0,0,0.3,1,0.9,0.5c0.2-0.1,2.7-1.2,2.7-1.2l4.1-1.2
			L308.4,452.6z"/>
		<path class="st4" d="M371.4,439.4c0,0-19.6-3-20.8,4.8c-1.7,10.9,0.4,25.4,1.6,32.2l-42.7-24.3l-4,4.4c0,0,40.8,31.2,43.9,34.1
			c3.1,2.9,12.4,6,16-4.9c3.6-10.9,9.5-30.7,11.4-37.7C350.2,453.2,371.4,439.4,371.4,439.4z"/>
	</g>
	<path class="st9" d="M336.4,506.2c-0.2,0-2.5-0.7-2.5-0.7l-3.8-3.3l-8.5-52c0,0,0,0,0,0c-1.2-8.8-11.2-8.2-11.2-8.2L249,453.9
		c0,0-13.7,25.5,22.9,14.5c9.1-2.7,15.8-7.9,39.6-15.2c-1.5,10.4,15.9,49.7,15.9,49.7l0.4,1.9l1.4,3.7l1-0.2l-0.2-2.4l3.5,1.7
		l3.3-0.6C336.8,507.1,337.1,506.3,336.4,506.2z"/>
	<path class="st4" d="M334,505.6c0.7,0.2,2.5,0.7,2.7,0.7c0.7,0,0.4,0.9,0.4,0.9s-3.1,0.6-3.8,0.7c-0.7,0.1-3.2-1.8-3.2-1.8l0.3,2.4
		l-1.2,0.2c0,0-0.7-2.2-1.4-3.9c-0.4-1-0.3-1.8-0.3-1.8s0.7-0.2,2.5,1.5C332,506.2,333.4,505.7,334,505.6z"/>
	<g>
		<path class="st9" d="M196.3,508.4l2.1-3.2l-2.4-0.1l0-1l3.9-0.9c0,0,1.2-0.1,1.9-0.1c17-2.4,44.7-9.3,48.9-6.9
			c-0.1-10-1.3-28.3,2.2-37c2.6-6.6,25-6.6,25-6.6s-17.1,45.1-18,46.7c-2.6,5-7.7,6.2-7.7,6.2l-16.9,0.1l-33.1,0.3l-3.8,3.3
			c0,0-1,2.1-1,2.3c-0.1,0.7-0.9,0.3-0.9,0.3L196.3,508.4z"/>
		<path class="st9" d="M198.3,509.1c-0.3,0.7-1,2.3-1,2.5c-0.1,0.7-0.9,0.3-0.9,0.3s-0.1-3.1-0.2-3.8c0-0.7,2.2-2.9,2.2-2.9l-2.4,0
			L196,504c0,0,2.2-0.4,4-0.8c1-0.2,1.8-0.1,1.8-0.1s0.1,0.7-1.8,2.3C198,507.1,198.3,508.5,198.3,509.1z"/>
	</g>
	<path class="st4" d="M391.9,359.6c0,0,3.7-1.3,16.2,7c7.1,4.7,17.8,4.2,17.8,4.2l25.6-24.1l2.4,2.3c0,0-10.4,15.2-16.3,23.7
		c-5.5,7.8-12.9,9.1-12.9,9.1l-26-1.4L391.9,359.6z"/>
	
		<linearGradient id="SVGID_2_" gradientUnits="userSpaceOnUse" x1="-73.052" y1="423.5309" x2="-88.6987" y2="457.4322" gradientTransform="matrix(-0.9722 0.234 0.234 0.9722 213.6067 -11.7975)">
		<stop  offset="0" style="stop-color:#DCBFB1"/>
		<stop  offset="1" style="stop-color:#FFFFFF"/>
	</linearGradient>
	<path class="st10" d="M382.7,421.6c0,0,20.8-17.1,24-32.5c3.9-19.1-9.6-28.1-9.6-28.1L382.7,421.6z"/>
	
		<linearGradient id="SVGID_3_" gradientUnits="userSpaceOnUse" x1="-48.6434" y1="455.7285" x2="-73.5246" y2="420.6242" gradientTransform="matrix(-0.9722 0.234 0.234 0.9722 213.6067 -11.7975)">
		<stop  offset="0" style="stop-color:#D4B1A1"/>
		<stop  offset="1" style="stop-color:#FFFFFF"/>
	</linearGradient>
	<path class="st11" d="M383.2,427.4c0,0,7.6-22.5,16.7-41.6c5.5-11.6-0.7-23.3-0.7-23.3s-5.5-4.9-9.2-4.5
		c-6.1,3.3-19.7,11-26.8,26.4c-10,21.7-17.7,48.9-17.7,48.9L383.2,427.4z"/>
	<path class="st12" d="M372.6,425.9c0,0,3.8-13.7,11.7-18.2c8.6-4.9,13.8-17.1,13.8-17.1s-5.5,8.9-13.9,15.9
		c-8.3,7-14.4,20.2-14.4,20.2L372.6,425.9z"/>
	<path class="st13" d="M399.2,364.6c0,0,0.9,0.9,1.1,2.2c0.1,1.3-1,2.4-1,2.4s4.2,8.7,2.4,19.3c-2.8,16.3-10.3,28.4-10.3,28.4
		l-7.2,3.2l-1.3-8.4c0,0,9.8-9.4,14.4-24.9c3.2-10.7,0.6-17.5,0.6-17.5s-0.6-1.3-1.2-2.4C398.4,366.1,399.2,364.6,399.2,364.6z"/>
	<g>
		
			<linearGradient id="SVGID_4_" gradientUnits="userSpaceOnUse" x1="1286.9917" y1="296.5144" x2="1274.0464" y2="297.7299" gradientTransform="matrix(0.8948 -0.4465 0.4465 0.8948 -884.1512 664.1717)">
			<stop  offset="0" style="stop-color:#D4B1A1"/>
			<stop  offset="1" style="stop-color:#FFFFFF"/>
		</linearGradient>
		<path class="st14" d="M389,358.6c0.1-0.5-0.2-1.1-0.2-1.1l2.3-5.8c0,0,3.5,2.5,5.1,4.4c1.4,1.7,4.1,2,5.1,1.6
			c2.1-0.8,5.6-2.8,5.6-2.8s-4.9,3.1-8,9.1C395.7,363.1,389.7,360,389,358.6z"/>
		<path class="st9" d="M406.8,355c-1.6,0.8-4.6,2.5-6.1,3.1c-2.2,0.9-3.7-1-3.7-1l-3.1-2.9c0,0-1,0-2-0.4c-0.4-0.2-1.6-1.2-0.3-2.7
			c1.9-2.2-3.3-7-3.3-7l2.8-2.7l3.7,0l9.4,5.3c0,0,0.3,0.4-0.3,0.8c-0.6,0.4-1.2,1-1.2,1s3.9,5.7,4.1,6.1
			C407,354.9,406.9,354.9,406.8,355z"/>
		<path class="st15" d="M399.2,345.5c0.3,0.5,0.2,0.6-0.3,0.8c-0.5,0.3-2.1,1.2-1.8,0.8c0.1-0.1,0.6-0.9,1.5-2.1
			C398.8,344.6,398.9,345,399.2,345.5z"/>
		<path class="st16" d="M383.5,348.6c5.6-9,8.7-11,10.7-9.3c0.4,0.3,0.9,1.3,0.7,2.1c-2.8,1.2-5.3,2.6-3.7,3.9
			c0.4,0.5,6.4,5.2,4.3,6.5c-0.9-0.6-3.2-1.9-4.3-0.1c-0.7,1,1.5,2.7-2.4,5.9C386.6,354.1,383.6,350.2,383.5,348.6z"/>
	</g>
	<path class="st4" d="M438.7,484.9l0.8,3.7l3.4-0.7l-0.3-1.4l5,0.4l2.9-0.8c0,0,0.3-1-0.5-0.9c-0.2,0-3.2-0.4-3.2-0.4l-3.7-0.9
		L438.7,484.9z"/>
	<path class="st4" d="M444,482.9c0,0-14.1-57.4-14.1-57.4c-2.2-10-12.5-10.4-15.3-9.7c-2.7,0.7-68.8,16.7-68.8,16.7
		s-5.2,26.6,35,12.6c10-3.5,9.7-5.1,35.9-14.4c-1.2,11.6,21.9,54.4,21.9,54.4L444,482.9z"/>
	<g>
		<path class="st4" d="M377.3,380.9c11.5,8.9,31.7,15.5,40.9,16.1c17.4-3.7,42.9-16.1,42.9-16.1s0-2-0.6-4c-13.4,2.9-35,8-43.2,9.8
			c-10-4.9-18.8-7.5-24.6-18.9C386.9,356.5,372.9,365.7,377.3,380.9z"/>
		<path class="st9" d="M461.5,378.8c-0.2-0.9-0.4-1.5-0.5-1.9c2.8-0.7,7.9-1.3,7.9-1.3s0.1,1-1,1.1c-1.3,0.2-2,0.8-2,0.8l4.7,3.2
			c0,0,2.4-0.6,2.8-0.6c0.4,0,0.8,0.6,0.7,0.7c-0.8,0.3-3.5,1.2-3.5,1.2s2.2,0,2.6,0.4c0.2,0.1,0.3,0.4,0,0.5
			c-2.4,0.3-5.2,0.5-5.5,0.3c-0.6-0.3-1.1-0.6-1.1-0.6s-1.2-0.8-2.4-1.5c-1.2-0.7-1.7-0.9-1.7-0.9l-0.9,0
			C461.7,380.2,461.6,379.6,461.5,378.8z"/>
	</g>
	<path class="st12" d="M389,358.5l-0.5,0.3l5.8,9.1c0,0,2.5-0.8,4.6-4C391,361,389,358.5,389,358.5z"/>
	<path class="st9" d="M452.1,346.6l2,1.8c0,0,1.2-1,1.8-1.5c3.1-2.7,5.3-3.8,5.3-3.8s-1.2-0.8-2.1-0.1c-0.6,0.5-1.9,0.2-1.9,0.2
		s-0.7-2.3-1.1-3.5c-0.3-1.2-1.2-4.5-1.4-4.9c-0.5-0.8-0.9-0.5-1.1-0.4c0.1,0.9,0.2,2,0.2,2s-1,1.1-1.4,1.7
		c-0.3,0.5,1.3,2.2,1.3,2.2s0.1,1.3-0.2,2.6c-0.3,1.3-1.1,2.9-1.1,2.9L452.1,346.6z M454.2,338.8l-0.5-0.3l0.4-0.8L454.2,338.8z"/>
	<path class="st4" d="M388.8,358.3c0,0,21.5,28.9-23.2,53.8c-26.2,14.6-29.8,27.6-29.8,27.6s-12.2-11.9,14-29.3
		C375.8,393,388.8,358.3,388.8,358.3z"/>
	<path class="st4" d="M351.9,410.3c0,0,9.6-26.3,14.7-33.3c8-10.9,22.3-18.7,22.3-18.7s14,18.6-2.6,31
		C369.8,401.6,351.9,410.3,351.9,410.3z"/>
	<g>
		<path class="st4" d="M342.2,415.5l-13.5,2.6c0,0-3.1-2.8-8.4-7.3c-14.6,3.1-5.7-4.7-9.2-7.4c-10.7-8.2-17.3-4.3-17.3-4.3
			l10.2,13.1c0,0,15.7,9.7,18.1,11c2.5,1.3,7.7,2.3,12.9,0.3C337.4,419.1,342.2,415.5,342.2,415.5z"/>
		<path class="st4" d="M274.1,443.3c0,0,27.2-7.2,31.6-20.7c4.7-14-2.9-25.9-2.9-25.9L274.1,443.3z"/>
		
			<linearGradient id="SVGID_5_" gradientUnits="userSpaceOnUse" x1="559.5158" y1="283.364" x2="632.9012" y2="283.364" gradientTransform="matrix(0.9563 -0.2924 0.2924 0.9563 -376.3279 327.655)">
			<stop  offset="0" style="stop-color:#D4B1A1"/>
			<stop  offset="1" style="stop-color:#FFFFFF"/>
		</linearGradient>
		<path class="st17" d="M278.2,449.6c0,0,1.9-13.2,18.7-21.8c10.3-5.2,9.3-32.4,9.3-32.4s-4.6-2.3-7.9-2.4
			c-8.2-0.3-19.7,6.1-28.1,18.9c-11.8,17.9-22.7,42.4-22.7,42.4L278.2,449.6z"/>
		<path class="st18" d="M276.5,449.6c0,0,3.1-13.7,10.7-18.5c8.2-5.2,12.9-17.5,12.9-17.5s-5.1,9-13,16.3
			c-7.9,7.3-13.3,20.6-13.3,20.6L276.5,449.6z"/>
		<path class="st4" d="M246,449.8c0,0,25.3-47.7,37.3-52.9c12-5.2,13.2-4,13.2-4s1.1,24.6-26.9,45.9C253.7,451,246,449.8,246,449.8z
			"/>
		
			<linearGradient id="SVGID_6_" gradientUnits="userSpaceOnUse" x1="1090.416" y1="277.595" x2="1083.8947" y2="279.9468" gradientTransform="matrix(0.9938 -0.1113 0.1113 0.9938 -806.939 234.5246)">
			<stop  offset="0" style="stop-color:#D4B1A1"/>
			<stop  offset="1" style="stop-color:#FFFFFF"/>
		</linearGradient>
		<path class="st19" d="M296.5,392.9l1.8-4.2l3.8-4.2c0,0,2.2,3.2,3,5.3c0.7,1.9,2.9,2.7,3.9,2.7c2-0.1,4.2-0.5,4.2-0.5
			s-7.1,4-7.9,5.5C304.1,398.5,296.5,392.9,296.5,392.9z"/>
		<path class="st9" d="M312.4,392.1c-0.9,0.1-2.8,0.4-4.5,0.5c-2.2,0.2-2.6-1.7-2.6-1.7l-1.7-3.4c0,0-0.9-0.3-1.6-1
			c-0.3-0.3-1-1.5,0.6-2.4c2.3-1.3-0.6-6.9-0.6-6.9l3.2-1.4l3.2,1.1l5.7,7.2c0,0,0,0.3-0.6,0.5c-0.6,0.2-0.8,0.5-0.8,0.5
			s0.7,6.2,0.7,6.5C313.4,391.9,313,392,312.4,392.1z"/>
		<path class="st15" d="M310.6,382.1c0.1,0.5,0,0.5-0.5,0.6c-0.5,0.1-1.1,0.2-1.7,0.2c-0.1,0,0.7-0.6,1.8-1.4
			C310.6,381.2,310.5,381.6,310.6,382.1z"/>
		<path class="st20" d="M301.1,410.6c0,0,2.5-7.7-1.9-13.9c1.4,1.2,4.2,1,5.7,1.2C305.9,403.6,301.1,410.6,301.1,410.6z"/>
		<g>
			<polygon class="st9" points="339.9,400.3 357.8,389.9 356.9,387.7 333.8,396.4 			"/>
			<path class="st4" d="M339,394.2l-18.2,7.5l-18.3-1.8c0,0-10.2-4.4-11.7-1.1l-6.5,9.9c0,0,25.7,2.1,28.7,2.1
				c3,0.1,8.7-0.6,14.5-3.6c3.7-1.8,7.9-4,13.2-7.1L339,394.2z"/>
		</g>
		<path class="st16" d="M296.6,379.5c7.5-5.9,10.7-6.6,11.9-4.5c0.2,0.4,0.3,1.4-0.1,2c-2.4,0.4-3.1,5.3-2.3,10.1
			c1.1,4.4,2.7,10.9,5.2,11.6c-6.3,3.6-15.3,6.6-16.6-4.5C294,390.5,296.1,381,296.6,379.5z"/>
	</g>
	<g>
		<path class="st4" d="M181.3,466.7c0,0-17.3-4-18.9,2.9c-1.7,7.2-1.4,20.9-0.5,29.6L132,476.6c0,0-6.5,1.9-5.8,2.6
			c8.3,8.7,30.1,29.5,32.2,31.7c2.6,2.8,10.7,6.2,14.7-3.3c3.9-9.5,9-25.7,11.1-31.7C161.8,477.4,181.3,466.7,181.3,466.7z"/>
	</g>
	<path class="st4" d="M247.6,453.8c-5.5,7.5,3.3,17.2-3.3,29.1c10,1.2,51.2-13.4,63.7-27.5c5.3-5.9,4.1-13.6,4.1-13.6
		S256.7,452.3,247.6,453.8z"/>
	<linearGradient id="SVGID_7_" gradientUnits="userSpaceOnUse" x1="193.4302" y1="430.7335" x2="221.2418" y2="430.7335">
		<stop  offset="0" style="stop-color:#D4B1A1"/>
		<stop  offset="1" style="stop-color:#FFFFFF"/>
	</linearGradient>
	<path class="st21" d="M193.4,454.4c0,0,6-6.8,9.6-9.2c5.6-3.7,10.6-7.9,14.3-14.1c8-13.7,1.4-24,1.4-24L193.4,454.4z"/>
	
		<linearGradient id="SVGID_8_" gradientUnits="userSpaceOnUse" x1="433.8208" y1="431.8859" x2="471.651" y2="396.3315" gradientTransform="matrix(-0.9928 0.1194 0.1194 0.9928 580.958 -41.7861)">
		<stop  offset="0" style="stop-color:#D4B1A1"/>
		<stop  offset="1" style="stop-color:#FFFFFF"/>
	</linearGradient>
	<path class="st22" d="M191.7,457.1c0,0,12-16.8,23.2-29.9c6.8-7.9,4.4-19.3,4.4-19.3s-3.4-4.2-6.3-4.6c-5.5,1.4-18.3,4.1-27.1,14.7
		c-12.4,14.9-24.3,35.6-24.3,35.6L191.7,457.1z"/>
	<path class="st23" d="M191.1,455.7c0,0,2.6-12.5,9.3-17c7.3-4.9,11.3-16.2,11.3-16.2s-4.4,8.3-11.4,15.1
		c-7,6.8-11.6,18.9-11.6,18.9L191.1,455.7z"/>
	
		<linearGradient id="SVGID_9_" gradientUnits="userSpaceOnUse" x1="414.4682" y1="402.1715" x2="420.6609" y2="402.1715" gradientTransform="matrix(-0.9928 0.1194 0.1194 0.9928 580.958 -41.7861)">
		<stop  offset="0" style="stop-color:#D4B1A1"/>
		<stop  offset="1" style="stop-color:#FFFFFF"/>
	</linearGradient>
	<path class="st24" d="M211.7,403.6l-0.7,0.8l1.7,7c0,0,2.1,0.8,5.2-1.4C214.5,408.5,211.7,403.6,211.7,403.6z"/>
	<path class="st13" d="M217.9,410c0,0,0.7,0.6,1.1,1.4c-0.3,1-1.2,2.2-1.2,2.2s1.4,7.2-2.3,15.2c-5.6,12.2-25.1,21.9-25.1,21.9
		l-5.4-2.1l2.5-6c0,0,18.1-4.8,24.9-16c4.7-7.7,4.2-13.2,4.2-13.2s-1.1-1.1-1.6-2.1C216.7,410.9,217.9,410,217.9,410z"/>
	<g>
		
			<linearGradient id="SVGID_10_" gradientUnits="userSpaceOnUse" x1="-596.3985" y1="491.8616" x2="-607.1309" y2="493.9697" gradientTransform="matrix(0.9961 -8.930000e-02 8.930000e-02 0.9961 772.008 -140.76)">
			<stop  offset="0" style="stop-color:#D4B1A1"/>
			<stop  offset="1" style="stop-color:#FFFFFF"/>
		</linearGradient>
		<path class="st25" d="M211.5,403.7c1-0.6,1.5-2.2,1.5-2.2l3.5-3.7c0,0,1.9,2.9,2.6,4.8c0.6,1.7,2.5,2.7,3.4,2.7
			c1.8,0,5.1-0.4,5.1-0.4s-7.3,2.8-9.7,5C214.2,408.1,212.2,404.6,211.5,403.7z"/>
		<path class="st9" d="M227.4,404.9c-1.4,0.2-4.2,0.5-5.6,0.5c-2,0-2.5-1.9-2.5-1.9l-1.5-3.1c0,0-0.8-0.3-1.4-0.9
			c-0.3-0.3-0.8-1.4,0.6-2.1c2.1-1.1-0.4-6.3-0.4-6.3l2.9-1.2l2.8,1.1l5.5,6.8c0,0,0.1,0.4-0.5,0.6c-0.5,0.1-1.2,0.4-1.2,0.4
			s1.2,5.5,1.3,5.8C227.6,404.9,227.5,404.9,227.4,404.9z"/>
		<path class="st15" d="M224.5,395.5c0.1,0.4,0,0.5-0.5,0.5c-0.4,0.1-1.9,0.3-1.6,0.1c0.1-0.1,0.7-0.5,1.7-1.2
			C224.5,394.6,224.4,395,224.5,395.5z"/>
		<path class="st16" d="M211.7,393.1c6.9-5.2,9.8-5.8,10.9-3.9c0.2,0.4,0.3,1.2-0.1,1.8c-2.5,0.1-4.8,0.4-3.9,1.9
			c0.2,0.5,3.3,5.8,1.3,6.2c-0.5-0.7-1.9-2.4-3.3-1.4c-0.8,0.6,0.3,2.5-3.5,3.7C212.4,398.3,211.3,394.4,211.7,393.1z"/>
	</g>
	<g>
		
			<linearGradient id="SVGID_11_" gradientUnits="userSpaceOnUse" x1="415.3088" y1="436.9171" x2="406.4911" y2="406.9791" gradientTransform="matrix(-0.9928 0.1194 0.1194 0.9928 580.958 -41.7861)">
			<stop  offset="0" style="stop-color:#D4B1A1"/>
			<stop  offset="1" style="stop-color:#FFFFFF"/>
		</linearGradient>
		<path class="st26" d="M198,421.8c4,4.5,13.2,14.2,14.4,15.2c1.1,1,2.7,3.7,10,2.8c9.6-0.9,27.8-3.8,27.8-3.8s0.1-1.8,0.1-3.4
			c-10.7,0.2-29.9,1.1-29.9,1.1s-9.6-18-13-22.6C199.4,403.2,194.1,417.2,198,421.8z"/>
	</g>
	<path class="st9" d="M250.5,435.6c0,0,1.2,0.2,1.7,0.1c1.5-0.2,2.5-0.8,2.5-0.8l0.6-1l-1.1-0.1l3.6-3.2c0,0,1.9,0,2.2-0.1
		c0.3-0.1,0.5-0.6,0.4-0.6c-0.7-0.1-3.1-0.4-3.1-0.4s-1.6-0.3-1.9-0.2c-0.4,0.3-0.9,0.6-0.9,0.6l-3.9,2.8L250.5,435.6z"/>
	<g>
		<path class="st4" d="M233.1,515.2l0.4,3.3l2.8-0.3l-0.1-1.1l4,0.7l3.6-0.5c0,0,0.3-0.8-0.3-0.8c-0.2,0-3.7-0.5-3.7-0.5l-3.2-1.6
			L233.1,515.2z"/>
		<path class="st4" d="M236.8,514.4l-5.2-47.1c0,0,0,0,0,0c-1.3-8-8.3-9.5-8.3-9.5l-61.7-4.2c0,0-10.5,23.7,24.1,21.1
			c8.6-0.6,11.5-2.3,34-4c-3.4,8.9,11.9,43.9,11.9,43.9L236.8,514.4z"/>
	</g>
	<g>
		<g>
			<path class="st9" d="M39.3,504.6l1.9,0.2l-1.9,2.5l-0.1,2.7c0,0,0.6,0.4,0.8-0.2c0-0.2,0.9-1.8,0.9-1.8l3.3-2.5l26.8,1.6
				l13.7,0.9c0,0,4.2-0.6,6.6-4.6c0.8-1.3,13.7-36.5,13.7-36.5S88.5,466,86,471.1c-3.3,6.8-2.5,22.2-2.1,29.3
				c-3.3-2.2-26,1.9-39.9,2.8c-0.6-0.1-1.6,0-1.6,0l-3.2,0.5L39.3,504.6z"/>
			<path class="st9" d="M40.9,508c-0.3,0.5-0.9,1.8-1,2c-0.1,0.6-0.8,0.2-0.8,0.2s0.1-2.5,0.1-3.1c0-0.6,2-2.2,2-2.2l-1.9-0.2l0-1
				c0,0,1.8-0.2,3.3-0.4c0.8-0.1,1.5,0.1,1.5,0.1s0.1,0.6-1.6,1.8C40.7,506.3,40.9,507.5,40.9,508z"/>
		</g>
		<path class="st27" d="M167.7,421.8c-1.7,0.3-6.5,1.6-11.1,2.3c-7.9,1.2-11.6,1-21.6,1.4c-11,0.5-8.4,5-8.4,5s4.2,4.3,6.1,5.7
			c19.3-4.1,30.9-7.8,36.1-9.8C168.8,426.4,168.2,422.6,167.7,421.8z"/>
		<path class="st4" d="M109.3,460.7c0.6-1.6,2.8-9.4,15.2-10.7c15.7-1.6,12.3-23.3,12.3-23.3s-3-2.6-5.6-3.2
			c-6.5-1.4-16.6,2.1-25,11.1c-11.9,12.7-19.5,25-19.5,25S96.7,458.3,109.3,460.7z"/>
		<path class="st9" d="M160.8,521.2c-0.2,0-2-0.4-2-0.4l-3.3-2.4l-8.8-41.5c0,0,0,0,0,0c0-7.3-6.5-9.3-6.5-9.3l-53.8-6.5
			c0,0-7.8,15.7,17.4,16.6c7.7,0.3,13.1-1.2,33.3-0.5c-3.9,7.6,16.3,41.9,16.3,41.9l0.4,1.5l1.4,2.9l0.8-0.2l-0.3-1.9l2.9,1.1
			l2.6-0.7C161.2,521.8,161.4,521.1,160.8,521.2z"/>
		<path class="st4" d="M158.8,520.8c0.6,0.1,2,0.4,2.2,0.4c0.6,0,0.4,0.7,0.4,0.7s-2.5,0.7-3,0.8c-0.5,0.2-2.7-1.2-2.7-1.2l0.4,1.9
			l-1,0.3c0,0-0.7-1.7-1.4-3c-0.4-0.7-0.4-1.4-0.4-1.4s0.6-0.2,2.1,1C157.2,521.4,158.3,520.9,158.8,520.8z"/>
		<path class="st4" d="M87.4,458.1c-8.2,6-1,17.5-8.6,25.4c7.6,3,42.9,0.3,55.6-8.1c5.4-3.5,6-8.3,6-8.3S94.9,458.9,87.4,458.1z"/>
		<path class="st4" d="M129.5,442c0,0,5.2-11.9,1.5-17.6c0.9,1.1,2.3,3.4,4.5,3.2C136.8,434.4,129.5,442,129.5,442z"/>
		<path class="st9" d="M129,444.4c0,0,7-9,5.8-17.9c-0.3-2.3,0.1-4.8,1-1.8C140.4,439.4,129,444.4,129,444.4z"/>
		
			<linearGradient id="SVGID_12_" gradientUnits="userSpaceOnUse" x1="-1165.0311" y1="511.0934" x2="-1175.0798" y2="513.2537" gradientTransform="matrix(0.975 -0.2225 0.2225 0.975 1161.8115 -337.8917)">
			<stop  offset="0" style="stop-color:#D4B1A1"/>
			<stop  offset="1" style="stop-color:#FFFFFF"/>
		</linearGradient>
		<path class="st28" d="M130.5,422.8c2.4-1.1,2.1-4,2.1-4l2.7-3.2c0,0,1.6,2.7,2.1,4.4c0.4,1.6,2.1,2.2,2.9,2.2
			c1.6,0.1,3.3-0.1,3.3-0.1s-6.5,1.1-8.7,5.7C130.6,427.8,131.6,423.9,130.5,422.8z"/>
		<path class="st9" d="M142.8,422.3c-0.8,0-2.1,0.3-3.3,0.2c-1.7-0.1-2-1.6-2-1.6l-1.2-2.8c0,0-0.7-0.3-1.2-0.9
			c-0.2-0.2-0.9-1.5,0.4-2.1c1.9-0.9,0.1-5.4,0.1-5.4l2.7-0.9l3,1.9l3.5,5.3c0,0,0,0.3-0.5,0.4c-0.5,0.1-0.7,0.4-0.7,0.4
			s0.2,5.1,0.2,5.3C143.7,422.2,143.3,422.3,142.8,422.3z"/>
		<path class="st16" d="M130,413.7l0.2-0.9c0,0,0.2-3,4.5-4.1c4.7-1.3,6.5,2.1,6.5,2.1s-3.7-0.2-3.5,2.2c0.2,2.4-1.3,2.3-1.5,2.3
			c-0.2,0-1.4,0.3-1.4,1.5c0,1.5-1.6,2.3-2.2,2.4C129.6,416.2,130,413.7,130,413.7z"/>
		<path class="st15" d="M142.2,414.2c0,0.4-0.1,0.4-0.4,0.5c-0.4,0-0.9,0.1-1.4,0.1c-0.1,0,0.6-0.5,1.6-1
			C142.3,413.5,142.2,413.8,142.2,414.2z"/>
		<path class="st16" d="M130,412.7c0,0-1.7-1.8-4.3-1.3c-2.6,0.5-3.2,1.2-6.2,2.9c-3,1.7-5.1,0.4-8.3,1c-3.2,0.6-4.2,1.7-4.7,2.1
			c-1.8,1.5-3.8,4.3-3.8,4.3s4.5,3,8.1,1.3c1.3-0.6,3-3.2,7.2-2.8c3,0.3,4.2-1.5,5.4-3.3c0.8-1.1,2.1-2.4,3.3-2.8
			c1.2-0.4,3.2-0.2,3.2-0.2L130,412.7z"/>
		<path class="st1" d="M130.2,413.8c0,0.2-0.2,0.4-0.5,0.4l0,0c-0.2,0-0.4-0.3-0.4-0.5l0.1-1c0-0.2,0.2-0.4,0.5-0.4l0,0
			c0.2,0,0.4,0.3,0.4,0.5L130.2,413.8z"/>
		<path class="st9" d="M130.7,422.7c0,0,2.3,3.7,2.4,8.7c0,4.9-4.6,10.3-5.4,11.2c2-4.7,2.5-11.9,2.5-11.9l1.7-1l-1.9-1l-0.3-5.6
			L130.7,422.7z"/>
		<polygon class="st9" points="163.6,441.1 141.7,447.4 145.2,452.8 164.1,443.5 		"/>
		<path class="st4" d="M150.6,444.7l-10.4,2.9c0,0-9.1-11.4-12.1-18.9c-5.1-5.6-9.3,1.2-7.1,7.9c5.6,8.1,11,13.2,14.3,15.7
			c3.9,3,8.2,1.4,8.2,1.4s5.9-3,9.3-4.6L150.6,444.7z"/>
		<path class="st9" d="M180.3,421.8c2.3-0.4,6.2-0.2,6.2-0.2s-0.2-1.1-1.2-1.1c-1.4,0-1.7-0.6-1.7-0.6l3.2-3.6l0.9-0.1l0.7-0.9
			l-1.6-0.1c0,0,1.6-0.1,1.9-0.4c0.1-0.2,0.5-0.8,0.2-0.7c-2.1,0.2-4.2,0.4-4.4,0.6c-0.4,0.4-4.4,4.2-4.4,4.2l-12.8,3
			c0,0-0.2,2.5,1.2,4.4C168.8,426.5,180.3,421.7,180.3,421.8z"/>
		<path class="st9" d="M163.4,441.3c0,0,1.3-0.6,2.1-1.3c0.8-0.7,1.6-1.5,1.6-1.5s0.4-0.3,0.8-0.6c0.2-0.2,2.4-0.5,4.3-0.5
			c0.3,0,0.2,0.2,0.1,0.4c-0.3,0.3-1.9,0.6-1.9,0.6s2.2,0.4,2.9,0.4c0.1,0-0.1,0.6-0.4,0.6c-0.3,0.1-2.3,0-2.3,0l-3.2,3.2l1.4,0.3
			l-0.5,0.8c0,0-2.2,0.1-4.5-0.1L163.4,441.3z"/>
	</g>
	<path class="st9" d="M356.1,388.2c0,0,0.7-0.8,1.5-1.7c0.7-0.9,1.5-1.9,1.5-1.9s0.4-0.4,0.7-0.8c0.2-0.2,2.1-1.5,3.5-2.7
		c0.3,0,0.4,0.6,0.1,0.9c-0.3,0.3-1.7,1.6-1.7,1.6s3.2,0.2,3.9,0.2c0.1,0,0,0.6-0.3,0.7c-0.3,0.1-2.4,0.3-2.4,0.3l-2.8,3.8l0.6,0
		l-0.4,1.1c0,0-1.3,0.3-3.7,0.5L356.1,388.2z"/>
</g>
<g>
	<polygon class="st1" points="770.4,261.5 777.5,249.9 765.9,242.9 767.4,248.9 768.9,255.4 	"/>
	<path class="st1" d="M765.5,252.9c0.5,1.9-0.7,3.8-2.6,4.3c-1.9,0.5-3.8-0.7-4.3-2.6c-0.5-1.9,0.7-3.8,2.6-4.3
		C763.1,249.9,765,251,765.5,252.9z"/>
	<path class="st1" d="M755.7,255.3c0.5,1.9-0.7,3.8-2.6,4.3c-1.9,0.5-3.8-0.7-4.3-2.6c-0.5-1.9,0.7-3.8,2.6-4.3
		C753.3,252.2,755.3,253.4,755.7,255.3z"/>
	<path class="st1" d="M745.8,257.7c0.5,1.9-0.7,3.8-2.6,4.3c-1.9,0.5-3.8-0.7-4.3-2.6c-0.5-1.9,0.7-3.8,2.6-4.3
		C743.4,254.6,745.3,255.8,745.8,257.7z"/>
</g>
</svg>
