<?xml version="1.0" encoding="utf-8"?>
<!-- Generator: Adobe Illustrator 22.1.0, SVG Export Plug-In . SVG Version: 6.00 Build 0)  -->
<svg version="1.1" id="Layer_1" xmlns="http://www.w3.org/2000/svg" xmlns:xlink="http://www.w3.org/1999/xlink" x="0px" y="0px"
	 viewBox="0 0 521.5 513.5" style="enable-background:new 0 0 521.5 513.5;" xml:space="preserve">
<style type="text/css">
	.st0{fill:url(#SVGID_1_);}
	.st1{fill:url(#SVGID_2_);}
	.st2{fill:#FFFFFF;}
	.st3{fill:#FEE2D4;}
	.st4{fill:#43443F;}
	.st5{fill:url(#SVGID_3_);}
	.st6{fill:url(#SVGID_4_);}
	.st7{fill:url(#SVGID_5_);}
	.st8{fill:url(#SVGID_6_);}
	.st9{fill:url(#SVGID_7_);}
	.st10{fill:#CC6972;}
	.st11{fill:url(#SVGID_8_);}
	.st12{fill:#002B6E;}
	.st13{fill:url(#SVGID_9_);}
	.st14{fill:#5E5E5C;}
	.st15{fill:url(#SVGID_10_);}
	.st16{opacity:0.36;fill:#FEE2D4;}
	.st17{fill:#DDBBAC;}
	.st18{fill:url(#SVGID_11_);}
	.st19{fill:#002B6A;}
</style>
<g>
	<g>
		<g>
			<linearGradient id="SVGID_1_" gradientUnits="userSpaceOnUse" x1="157.8345" y1="64.4396" x2="115.1794" y2="86.4653">
				<stop  offset="0" style="stop-color:#E6CCBF"/>
				<stop  offset="0.3222" style="stop-color:#EFD7CB"/>
				<stop  offset="1" style="stop-color:#FEEBE2"/>
			</linearGradient>
			<path class="st0" d="M171.8,86.7c0-21.8-14.1-39.5-31.5-39.5c-17.4,0-31.4,17.7-31.4,39.5H171.8z"/>
			<linearGradient id="SVGID_2_" gradientUnits="userSpaceOnUse" x1="343.2943" y1="403.5722" x2="348.3766" y2="363.3676">
				<stop  offset="0" style="stop-color:#E3AB9C"/>
				<stop  offset="0.6322" style="stop-color:#F5D6CB"/>
				<stop  offset="1" style="stop-color:#FEEBE2"/>
			</linearGradient>
			<path class="st1" d="M203.6,402.9c17.4,0,31.5-17.7,31.5-39.5h252.8c0,21.8-14.1,39.5-31.5,39.5H203.6z"/>
			<path class="st2" d="M424.5,87.3l0-0.6c0-21.8-14.1-39.5-31.5-39.5H140.4c17.4,0,31.5,17.7,31.5,39.5v276.5h0
				c0,21.8,14.1,39.5,31.5,39.5c17.4,0,31.4-17.7,31.4-39.5h189.8V87.3z"/>
			<rect x="203.1" y="123.5" class="st3" width="186.7" height="8.7"/>
			<rect x="203.1" y="151.9" class="st3" width="186.7" height="8.7"/>
			<rect x="203.1" y="180.2" class="st3" width="186.7" height="8.7"/>
			<rect x="203.1" y="208.6" class="st3" width="186.7" height="8.7"/>
			<rect x="203.1" y="236.9" class="st3" width="186.7" height="8.7"/>
			<rect x="203.1" y="265.3" class="st3" width="186.7" height="8.7"/>
			<rect x="203.1" y="293.6" class="st3" width="186.7" height="8.7"/>
		</g>
		<path class="st4" d="M218.5,361.4c-0.2,0-0.4,0-0.5-0.1c-2.3-0.8-3.3-7.7-5.1-27.9c-0.5-5.2-1-11-1.5-13.8
			c-1.3,3.4-3.4,11.9-5,19.8c-0.1,0.6-0.7,1-1.3,0.9c-0.6-0.1-1-0.7-0.9-1.3c2.9-14.4,5.3-22,7-22.7c0.5-0.2,0.9-0.1,1.3,0.2
			c0.9,0.7,1.3,3.1,2.5,16.7c0.8,8.6,2.1,22.6,3.5,25.6c1.4-2.4,1.1-10,1-15.7c-0.2-7.4-0.3-11.4,1.1-12.7c0.4-0.4,0.8-0.5,1.3-0.5
			c2.5,0.1,3.2,3.8,3.8,7.6c0.3,1.8,0.9,5.1,1.5,5.5c1.1-0.2,2.9-3.8,4-6c1.7-3.4,2.9-5.8,4.7-5.6c0.4,0,0.8,0.2,1.5,0.4
			c4.5,1.5,18.3,6,33.3-12.9c0.4-0.5,1.1-0.6,1.5-0.2c0.5,0.4,0.6,1.1,0.2,1.5c-16,20.2-30.9,15.3-35.7,13.6c-0.4-0.1-0.8-0.3-1-0.3
			c-0.6,0.4-1.8,2.8-2.6,4.4c-1.7,3.5-3.4,6.9-5.7,7.2c-2.7,0.3-3.3-3.3-4-7.3c-0.3-1.6-0.9-5.1-1.6-5.7c-0.6,1.4-0.4,6.8-0.3,10.8
			c0.3,9.3,0.3,15.6-2,17.8C219.4,361.2,218.9,361.4,218.5,361.4z"/>
	</g>
	<g>
		<g>
			<g>
				<linearGradient id="SVGID_3_" gradientUnits="userSpaceOnUse" x1="239.8737" y1="233.718" x2="328.0247" y2="189.301">
					<stop  offset="7.975460e-02" style="stop-color:#C8A8A6"/>
					<stop  offset="1" style="stop-color:#FEE2D4"/>
				</linearGradient>
				<path class="st5" d="M265.9,222.3c0,0-3.2,0.9-4.7,1c-1.5,0.1-16.4-2.6-16.4-2.6s-0.3,2.6,3.3,3.2c3.5,0.6,3.5,2.2,3.5,2.2
					s-6.9,4.6-8.8,5.7c-1.9,1.2-4.3,3.1-4.4,3.9c-0.1,0.5,0,2.2,1.1,3.2c0.5,0.5,2.1,0.2,5.8-1.2c-1.5,1.1-4.6,1.7-3.5,3.2
					c0.9,0,7.1-2.3,7.5-2.5c0.9-0.4,5.7-2,8.7-3.6c3.1-1.6,5.5-5,5.5-5l3.4-4.8L265.9,222.3z"/>
				<g>
					<linearGradient id="SVGID_4_" gradientUnits="userSpaceOnUse" x1="228.7149" y1="244.0974" x2="350.5165" y2="148.2535">
						<stop  offset="7.975460e-02" style="stop-color:#C8A8A6"/>
						<stop  offset="1" style="stop-color:#FEE2D4"/>
					</linearGradient>
					<path class="st6" d="M338.3,160.9c-18.1,32.8-39.6,49.5-76.5,69.6c-1.8-2.4-2.6-3.6-3.7-4.8c15-11.5,53.7-45,62.6-72.4
						C333,153.3,337.2,159.1,338.3,160.9z"/>
					<linearGradient id="SVGID_5_" gradientUnits="userSpaceOnUse" x1="224.5555" y1="239.5062" x2="346.8154" y2="143.3017">
						<stop  offset="7.975460e-02" style="stop-color:#C8A8A6"/>
						<stop  offset="1" style="stop-color:#FEE2D4"/>
					</linearGradient>
					<path class="st7" d="M282.7,204.5c0,0,35.7-32.4,43.7-72c11.8-7.6,17.4-8.1,17.4-8.1l9.6,7.3c0,0-17.5,53.4-64.2,82.8
						L282.7,204.5z"/>
				</g>
			</g>
			<g>
				<path class="st4" d="M318.9,196.5c0,0-14.6-31.4-6.9-51.2c10.9-28,35-40.8,35-40.8l-13.6,96.7L318.9,196.5z"/>
				<g>
					
						<linearGradient id="SVGID_6_" gradientUnits="userSpaceOnUse" x1="261.4975" y1="336.2035" x2="209.6783" y2="356.1909" gradientTransform="matrix(-1 0 0 1 585.0592 0)">
						<stop  offset="7.975460e-02" style="stop-color:#C8A8A6"/>
						<stop  offset="1" style="stop-color:#FEE2D4"/>
					</linearGradient>
					<path class="st8" d="M334.2,460.9l8.2-9.7c0,0-8-97.8-11.8-116.9c-3.9-9.8-5-96.1-5-96.1s28-20.4,29.5-11
						c3.9,24.7-1.7,45.3-3.3,99.8c15.8,22.1-5.1,108.9-3.1,124c0,1.9-2.7,3.9-2.7,3.9l-10,8.9L334.2,460.9z"/>
					<path class="st4" d="M334.2,460.9c-2.3,2.4-4.3,2.9-4.7,3.1c-1.6,0.8-0.7,2.2-0.7,2.2s5.5,0,7.2,0c3.8,0.1,8.3-8.2,8.3-8.2
						l0.8,8.2l2.1,0c0,0-0.3-6.4,1.8-10.5c1.4-2.7-0.1-4.8-0.1-4.8s-1.9-0.2-5.5,4.9C339.5,461.4,335.7,460.9,334.2,460.9z"/>
				</g>
				<g>
					
						<linearGradient id="SVGID_7_" gradientUnits="userSpaceOnUse" x1="303.0786" y1="311.403" x2="216.746" y2="344.7027" gradientTransform="matrix(-1 0 0 1 585.0592 0)">
						<stop  offset="7.975460e-02" style="stop-color:#C8A8A6"/>
						<stop  offset="1" style="stop-color:#FEE2D4"/>
					</linearGradient>
					<path class="st9" d="M362.1,460.9l8.2-9.7c0,0-9.1-98.2-12.8-117.3c-3.9-9.8-9.9-95.7-9.9-95.7s25.8-19.5,27.3-10.1
						c3.9,24.7,6.5,44.5,4.9,98.9c15.8,22.1-5.1,108.9-3.1,124c0,1.9-2.7,3.9-2.7,3.9l-10,8.9L362.1,460.9z"/>
					<path class="st4" d="M362.1,460.9c-2.3,2.4-4.3,2.9-4.7,3.1c-1.6,0.8-0.7,2.2-0.7,2.2s5.5,0,7.2,0c3.8,0.1,8.3-8.2,8.3-8.2
						l0.8,8.2l2.1,0c0,0-0.3-6.4,1.8-10.5c1.4-2.7-0.1-4.8-0.1-4.8s-1.9-0.2-5.5,4.9C367.3,461.4,363.6,460.9,362.1,460.9z"/>
				</g>
				<path class="st10" d="M323.6,209.9c0,0,1.4-8.8-5.1-36.4c-16.7-29,26.6-68.5,26.6-68.5s9.6,7.8,15.3,12.9
					c14.1,12.4,4.7,25.5,5.8,33.7c-6.7,39.7-2.8,57.2-2.8,57.2L323.6,209.9z"/>
				<path class="st10" d="M328,210.5c0,0-1.2-22.6-5.5-38c-4.5-15.8,1.6-25.1,1.6-25.1s-2.9,6.4-0.2,23.7
					c2.8,18.7,8.2,40.4,8.2,40.4L328,210.5z"/>
				<path class="st4" d="M364.7,203.8c0,0-3.9-22.8,2.5-50c2.9-6.1,4.7-11.4,5.9-13.9c4.2-8.8,4.8-15.9,1.7-18
					c-9.4-6.4-13.6-9.1-23.3-15c-19.1,23.3-28.1,21.7-21.2,88.4C351.3,206.4,364.7,203.8,364.7,203.8z"/>
				<path class="st4" d="M363.4,208.4c30.8,31.4,13.1,45.2,31.2,93.6c-21.3,1.7-31.3,11.8-69,9c-2.4-62.9-1.9-101.2-1.9-101.2
					S332.6,209.6,363.4,208.4z"/>
				<path class="st3" d="M377.2,254.8c0,0-1.6,3-2.6,4.2c-1,1.2-13.3,10.1-13.3,10.1s1.5,2,4.5-0.1c2.9-2.1,4-1,4-1
					s-1.8,8.3-2.3,10.4c-0.5,2.2-0.9,5.3-0.4,6c0.3,0.4,1.5,1.6,2.9,1.5c0.7,0,1.6-1.4,3.3-5.1c-0.3,1.9-2.1,4.6-0.3,4.8
					c0.7-0.7,3.4-6.8,3.6-7.2c0.4-0.9,2.6-5.6,3.7-8.9c1.1-3.3,0.4-7.5,0.4-7.5l-0.9-5.9L377.2,254.8z"/>
				<g>
					<path class="st3" d="M386.6,158.8c9.5,36.3,5.6,63.6-6.7,104.7c-2.9-0.3-4.2-0.6-5.8-0.6c2.8-19,7.3-70.8-4.9-96.5
						C377.8,157.3,384.6,158.3,386.6,158.8z"/>
					<path class="st3" d="M377,230c0,0,3.2-48.9-17.9-82.5c3.2-13.9,6.8-18.4,6.8-18.4l10.4-5.1c0,0,25.1,53.6,12.1,108.3L377,230z"
						/>
				</g>
				<path class="st10" d="M327,126.1c0,0,5-5.6,16.1-15.1c-0.4-0.3-6.6-4.3-8.2-4.7C323,115.2,327,126.1,327,126.1z"/>
				<path class="st3" d="M338.1,111.8c0,0-13.3,12.1-13.4,28.9c15-20.1,23.6-28.8,23.6-28.8L338.1,111.8z"/>
				<linearGradient id="SVGID_8_" gradientUnits="userSpaceOnUse" x1="316.33" y1="96.6092" x2="349.7089" y2="96.6092">
					<stop  offset="7.975460e-02" style="stop-color:#C8A8A6"/>
					<stop  offset="1" style="stop-color:#FEE2D4"/>
				</linearGradient>
				<path class="st11" d="M349.7,106.6c-6.1-7.9-4.6-14.4-4.6-15.2L334,74.7c0,0-6.3,4.8-5.4,16.4c0.3,3.3-4,5.6-6.8,6.8
					c-1.6,0.7-4.7,1.7-5.5,2.3c7.6,1,9.9,2.7,18.9,18.3C340.5,113.1,345.7,109.4,349.7,106.6z"/>
				<path class="st4" d="M350.1,69.5c0,0,5.3-2.6,10.4,0.5c11.4,7,3.9,19,10.4,25.4c5.3,5.2,7.5,9.2,7.8,14.8
					c0.3,6.8-2.5,12.5-4.3,16.2c-7.1-15.1-15.2-9.6-18.8-25.5c-1.6-6.9,3.6-17.8,2.3-22.2c-1.7-5.7-7.6-6.4-7.6-6.4L350.1,69.5z"/>
				<path class="st2" d="M348.8,73c0.1,0.8,0.8,1.3,1.6,1.2l0,0c0.8-0.1,1.3-0.9,1.2-1.7l-0.4-3.4c-0.1-0.8-0.8-1.4-1.6-1.2l0,0
					c-0.8,0.1-1.3,0.9-1.2,1.7L348.8,73z"/>
				<path class="st3" d="M316.2,100.2c3.9,0,7.2-0.3,10-2.5c3.6-2.8,5-11.5,5-11.5s3-2,3-4.8c0-2.8,0.6-4.1-3.8-5.5
					c-6.6-2-0.9-10.9-0.9-10.9l-4.5-3.3c0,0-2.6-0.6-4,1.5c-1.7,2.6-5.7,7.3-6.4,14.9c-2.5,4.2-4.4,7.4-4.4,7.4s0.1,0.9,1.2,1.1
					c1,0.1,1.4,1,1.4,1s-0.2,1.2-1.1,2.3c0,0.5,0.4,1.4,1.1,1.8c-0.5,0.3-0.5,1-0.6,1.4c1.9,2.1-0.7,5.2,0.9,6.6
					C313.9,100.2,314.4,100.2,316.2,100.2z"/>
				<path class="st4" d="M349.1,70.1l-0.4-1.7c0,0-7.1-6.8-13.6-8.7c-15.2-4.5-15.8,5.9-15.8,5.9s6.1,0,6.2,6.9c0.1,4,1.1,5.5,2,5.9
					c4.2-3.7,7.7-1.3,7,3.7c-1,7.3,9,12.5,10.5,12.6C351.4,84.2,349.1,70.1,349.1,70.1z"/>
				<path class="st12" d="M316.4,80.9c0,0.3,0,0.6,1.1,0.6c1.1,0.1,2.4-0.1,3.6-0.4c0.3-0.1-1.7-0.5-4.4-2.1
					c-0.8-0.5-0.3,0.1-0.1,0.6C316.4,79.9,316.3,80.4,316.4,80.9z"/>
				<path class="st10" d="M352.7,107c0,0-4.4,7.1-4.4,14.4c-4.1-1.1-7.1,0-7.1,0s0.4,2.6,3.8,8.6c-9.6,2.7-19.9,13.5-23.2,20.9
					c3.4-19.4,16-36.9,28-46.8C351.2,105.7,352.7,107,352.7,107z"/>
			</g>
		</g>
		
			<linearGradient id="SVGID_9_" gradientUnits="userSpaceOnUse" x1="260.5474" y1="145.5915" x2="309.8896" y2="145.5915" gradientTransform="matrix(0.9999 -1.070000e-02 1.070000e-02 0.9999 -25.7268 4.369)">
			<stop  offset="7.975460e-02" style="stop-color:#C8A8A6"/>
			<stop  offset="1" style="stop-color:#FEE2D4"/>
		</linearGradient>
		<path class="st13" d="M259.7,150.4c0,0,2.4-0.8,3.3-1.6c0.9-0.8,7.4-11.2,7.4-11.2s1.6,1.3,0,3.8c-1.3,2-0.7,3.1-0.7,3.1
			s7.1-1.6,8.7-2c1.6-0.4,5.3-2.1,5.8-1.7c0.3,0.2,0.8,1,1.1,1.6c0.3,0.5-3,2.2-6.6,4.9c1.4-0.3,6.6-2.6,6.8-1.1
			c-0.5,0.5-7.5,4.1-7.8,4.2c-0.7,0.3-3.5,1.6-6.1,2.6c-2.5,0.9-6.2,1.2-6.2,1.2l-2.9,1.8L259.7,150.4z"/>
		<path class="st4" d="M149.1,99.5c0,0,16.1,3.8,27.2,30.2c11.1,26.5,21,45.7,21,45.7l64.5-25.9l3.6,8.4c0,0-44.5,26.7-60,34.1
			c-13.2,6.3-22.8,0.6-27-4.2c-4.2-4.9-29.9-38.3-29.9-38.3L149.1,99.5z"/>
		<path class="st14" d="M39.2,271c0,0,10.2-11.1,47.9-12.9c35.6-1.7,47.5-82,47.5-82s-67.2,50.2-87.8,76
			C41.3,259.1,39.2,271,39.2,271z"/>
		<path class="st4" d="M60.9,458.9l-0.4,6.9l5.6,0.1l0.1-2.4l7.8,2.6l7.3,0c0,0,0.9-1.5-0.4-1.8c-0.4-0.1-7.3-2.2-7.3-2.2l-6.3-4.3
			L60.9,458.9z"/>
		<path class="st4" d="M121.3,458.9l-0.4,6.9l5.6,0.1l0.1-2.4l7.8,2.6l7.3,0c0,0,0.9-1.5-0.4-1.8c-0.4-0.1-7.3-2.2-7.3-2.2l-6.6-4.3
			L121.3,458.9z"/>
		<path class="st4" d="M146.5,235c0,0,29.6-35,31.6-79.8c1.6-34.4-25.9-56.5-25.9-56.5L146.5,235z"/>
		<linearGradient id="SVGID_10_" gradientUnits="userSpaceOnUse" x1="83.1056" y1="171.5949" x2="168.6187" y2="171.5949">
			<stop  offset="0" style="stop-color:#9FC7D4"/>
			<stop  offset="1" style="stop-color:#FFFFFF"/>
		</linearGradient>
		<path class="st15" d="M155,249c0,0,4.7-35.7,12.5-79c6.3-35.4-14.7-75.8-14.7-75.8l-17.9,2.6c0,0-33.2,27.4-41.6,61.3
			c-5.1,20.7-7.1,45.1-7.1,45.1l-3,44.2L155,249z"/>
		<path class="st16" d="M141.2,252c0,0-2.3-22.2,6-34.9c9-13.9,9.8-42.2,9.8-42.2s-3.5,23.5-10.7,40.4c-7.2,16.9-7.7,36.4-7.7,36.4
			L141.2,252z"/>
		<path class="st17" d="M134.8,96.8l-1.8,1.3l12.3,16.5c0,0,6.8-2.5,9.8-8.9C142.4,105.1,134.8,96.8,134.8,96.8z"/>
		<path class="st4" d="M133,98.1c0,0,38.2,61.2-9.5,99.9c-76.8,62.4-89.2,84.1-89.2,84.1s-6.4-36.3,22.7-58.6
			C133.2,165.2,133,98.1,133,98.1z"/>
		<path class="st4" d="M81.4,211.2c0.9-25.3,0.2-71.7,1.4-82.8c0.5-6,3.7-12.8,9.7-14.9c26.3-9.3,40.5-15.4,40.5-15.4
			s18.6,32.4-6.2,70.5C101.9,206.7,85.1,210.6,81.4,211.2z"/>
		<path class="st16" d="M149.8,194.9c0,0-7.2,17.3-13.4,28.8c-6.1,11.5-10.7,16.7-10.7,16.7s-9.6-0.6-13.6,0.3
			c-4,0.9-8.2,2.7-8.2,2.7s3.1-14.6,5.3-18.8c2.1-4.2,6.3-7.4,6.3-7.4l11.1-10.1L149.8,194.9z"/>
		<path class="st10" d="M156,106c0,0,1.9,1.3,3.1,6c0.1,2.7-1.5,4.8-1.5,4.8s7.7,16.6,6.3,39.2c-2.1,34.7-37.8,75-37.8,75l-17.3,2.5
			l2.7-18.9c0,0,37.2-27.4,43.2-60.9c4.1-23.1-0.5-36.2-0.5-36.2s-1.2-0.7-4.4-4C154.1,110.7,156,106,156,106z"/>
		<path class="st14" d="M129.2,106c0,0,9.8,15.1,4,23.4c4,2.9,7.7,5.3,7.7,5.3s-2,3.2-7,8c3.1,6.7,4.4,25.9-0.5,40.4
			c16.7-23.6,11-49.2,7.7-60.3c-3.2-11.1-8.9-21.8-8.9-21.8L129.2,106z"/>
		<g>
			
				<linearGradient id="SVGID_11_" gradientUnits="userSpaceOnUse" x1="-445.333" y1="570.4838" x2="-468.4474" y2="557.7709" gradientTransform="matrix(0.9994 3.360000e-02 -3.360000e-02 0.9994 630.5753 -454.1978)">
				<stop  offset="7.975460e-02" style="stop-color:#C8A8A6"/>
				<stop  offset="1" style="stop-color:#FEE2D4"/>
			</linearGradient>
			<path class="st18" d="M134.8,96.7c0,0,2.8-4.8,2.5-14.1c-0.3-9.4,9.5-8.1,9.5-8.1s3.8,7.9,4.7,12.9c0.9,4.5,5.3,7.6,7.3,7.9
				c4.3,0.5,11,1.1,11,1.1s-11,1.6-14.6,8.6C145.2,105.3,134.8,96.7,134.8,96.7z"/>
		</g>
		<path class="st4" d="M131.1,458.8c0,0-5.7,2.2-13.8,2.2c-1.1-41.4-11.1-73-0.4-105.8c-3.4-51.9-15.5-107-15.5-107L155,249
			L131.1,458.8z"/>
		<path class="st14" d="M112.5,313.3l1.7,12.7c0,0,7.6-23.8,7.7-37.1C122.1,270.1,112.5,313.3,112.5,313.3z"/>
		<path class="st4" d="M134.8,248.5L72.2,460.2c0,0-9.2-0.4-12.5-0.7c2.2-38.8,4.4-86.7,16.3-105.4c5.8-58.3,6-78,7.1-106.7
			C108.4,248.5,134.8,248.5,134.8,248.5z"/>
		<path class="st14" d="M122.3,199.1l3-2.2c0,0-27-38.4-25.1-30.8C103.3,178.6,122.3,199.1,122.3,199.1z"/>
		<path class="st3" d="M221.4,230.1c0,0,3,0.7,4.4,0.6c1.4-0.1,15-5,15-5s0.6,2.4-2.7,3.5c-3.2,1.1-3,2.6-3,2.6s7.2,3.2,9.1,4.1
			c1.9,0.8,4.5,2.3,4.7,3c0.1,0.5,0.3,2.1-0.5,3.2c-0.4,0.5-2,0.5-5.7-0.3c1.6,0.8,4.6,0.9,3.7,2.5c-0.9,0.1-7-1.1-7.4-1.2
			c-0.9-0.2-5.6-1-8.7-2c-3.1-1-5.9-3.5-5.9-3.5l-5-0.6L221.4,230.1z"/>
		<path class="st4" d="M220.3,239.3l3.2-9.6c0,0-46.3-23.7-64.1-35.2c-21.2-13.7-40.3-65.3-45.5-88.4c-8.9,3.9-16,6.2-24.3,11.3
			c-0.8,0.5-4.9,8.2-2.9,21.5c2,12.8,22.2,49.6,55.3,71.1C163,223.7,220.3,239.3,220.3,239.3z"/>
		<path class="st3" d="M169.6,96.3c-3.9-0.1-7.9-0.2-11.6-0.4c-4.9-0.2-6.2-5.6-6.2-5.6l-2.4-8.3c0,0-1.8-1-3.2-2.9
			c-0.5-0.8-1.7-4.7,2.1-6c5.5-1.9,1.6-15.1,1.6-15.1l7.6-1.8l6.5,3.8c0,0,4.6,7.3,4.7,10.3c1,1.5,6.3,8.9,6.3,8.9s0,1.2-1.3,1.2
			c-1.7,0.1-3.2,0.6-3.2,0.6s-0.2,2.1,0.9,4c0,0.7-0.2,1.1-0.7,1.8c0.5,0.2,0.8,0.6,0.8,1.4c-1.2,3,0.7,4,0.5,6
			C171.9,94.9,171,96.3,169.6,96.3z"/>
		<path class="st4" d="M138.3,60.7c18.9-10.3,25-10.2,26.7-5c0.3,1,0.2,3.2-1,4.4c-6.1-0.8-12-1-10.4,3.2c0.3,1.3,5.8,15.8,0.8,16.1
			c-1-1.9-3.9-7.1-7.7-5.2c-2.2,1.1,0.2,7.9-9.8,9.6C136.7,75.4,136.8,63.7,138.3,60.7z"/>
		<path class="st19" d="M166.7,73.8c-0.1,0.3-0.1,0.6-1.3,0.7c-1.2,0.1-2.6-0.3-3.8-0.6c-0.3-0.1,1.9-0.5,5.1-2.3
			c0.9-0.5,0.3,0.1,0,0.6C166.8,72.4,166.8,73.3,166.7,73.8z"/>
	</g>
</g>
</svg>
